<svg width="32" height="33" viewBox="0 0 32 33" fill="none" xmlns="http://www.w3.org/2000/svg">
<path d="M20.4285 3.45306C20.2338 3.54697 17.0964 6.6948 17.0198 6.87219C16.8112 7.38002 17.2738 7.91219 17.8268 7.79741C17.9833 7.76263 18.0529 7.7035 18.9955 6.76784L19.9938 5.77306V7.95045C19.9938 9.40436 20.0077 10.1905 20.032 10.3087C20.0981 10.6218 20.3938 10.8652 20.7068 10.8652C21.0198 10.8652 21.3155 10.6183 21.3851 10.3018C21.4059 10.1939 21.4198 9.33828 21.4198 7.95045V5.77306L22.4216 6.76784C23.3607 7.7035 23.4303 7.76263 23.5868 7.79741C24.1398 7.91219 24.6025 7.38002 24.3938 6.87219C24.3172 6.6948 21.1798 3.54697 20.9851 3.45306C20.9085 3.41828 20.7833 3.38697 20.7068 3.38697C20.6303 3.38697 20.5051 3.41828 20.4285 3.45306Z" fill="#AFAFAF"/>
<path d="M8.95401 3.82859C6.92966 3.95033 5.32966 4.28425 4.03227 4.84425C3.05488 5.26859 2.37662 5.85642 2.0914 6.52425L1.99749 6.74338L1.98705 15.0912C1.9801 22.6529 1.98358 23.4529 2.03575 23.6303C2.12618 23.9399 2.28966 24.2147 2.56792 24.5069C3.32618 25.3138 4.83227 25.9399 6.82184 26.2738C7.98358 26.4686 8.43575 26.4999 9.99749 26.4999C11.7297 26.4999 12.0949 26.4651 13.9036 26.1451C14.0044 26.1277 14.0149 26.1347 14.0149 26.2077C14.0184 26.3434 14.1679 26.6703 14.3384 26.9103C15.0653 27.9295 16.9366 28.7086 19.4584 29.0356C20.1331 29.126 20.1262 29.1295 19.7471 28.8408C19.3853 28.559 18.7766 27.9642 18.5262 27.6442L18.3627 27.4356L18.0253 27.3556C17.2949 27.1816 16.5436 26.8929 16.0566 26.5973C15.8097 26.4477 15.4931 26.1625 15.4201 26.0234C15.3818 25.9469 15.3714 25.6164 15.3714 24.2077V22.486L15.6601 22.639C15.9349 22.7851 16.554 23.046 16.7349 23.0912L16.8218 23.1121L16.8636 22.5103C16.8879 22.1799 16.9123 21.8599 16.9227 21.8042C16.9401 21.6999 16.9331 21.6964 16.4601 21.4669C15.9488 21.2199 15.6427 21.0042 15.4757 20.7712L15.3714 20.6286V18.8929C15.3714 17.9364 15.3818 17.1608 15.3992 17.1677C16.2723 17.6164 17.0584 17.9051 17.9523 18.1034L18.4671 18.2182L18.5957 18.0651C18.8288 17.7869 19.2462 17.366 19.4688 17.1851L19.6879 17.0077L19.1384 16.9138C18.1749 16.7538 17.4201 16.5521 16.7836 16.2947C15.9314 15.9434 15.3714 15.4947 15.3714 15.1608C15.3714 14.8999 15.7436 14.5521 16.3453 14.2425C18.7801 12.9938 23.9349 12.8408 26.9366 13.9329C27.9244 14.2912 28.6236 14.8025 28.6236 15.1608C28.6236 15.3938 28.2897 15.7451 27.8236 15.999L27.6497 16.0929L27.9871 16.2808C28.6792 16.6738 29.1558 17.0286 29.7123 17.5747L30.0184 17.8738L30.0079 16.3086C29.9975 14.7747 29.9975 14.7399 29.9175 14.5486C29.5766 13.6999 28.6062 13.0077 27.0584 12.5069C24.7697 11.7695 21.4827 11.5956 18.7801 12.0686C18.5018 12.1173 18.2166 12.166 18.1471 12.1764L18.0149 12.1973V10.5208V8.84772H17.6914C17.3227 8.84772 17.0792 8.7886 16.8044 8.63207C16.5749 8.50338 16.3036 8.23555 16.1784 8.01642L16.0844 7.84599L15.8236 7.99903C15.4792 8.19729 14.801 8.46164 14.241 8.61816C12.9853 8.96251 11.6218 9.12599 9.99749 9.12599C7.94879 9.12599 6.09488 8.83033 4.78358 8.29468C3.9314 7.94338 3.3714 7.49468 3.3714 7.16077C3.3714 6.71207 4.37662 6.09642 5.71923 5.72077C8.84966 4.84772 13.4897 5.10164 15.7123 6.27381C15.8931 6.3712 16.0462 6.44773 16.0497 6.44773C16.0566 6.44773 16.1123 6.35729 16.1714 6.24599C16.234 6.13816 16.4323 5.89816 16.6131 5.71033L16.9436 5.37642L16.6097 5.17816C15.121 4.30164 12.6027 3.79033 9.89314 3.8112C9.47227 3.81468 9.0514 3.82164 8.95401 3.82859ZM3.85836 9.39381C4.88097 9.89468 6.28271 10.246 7.99749 10.4373C8.45662 10.486 8.85314 10.4999 9.99749 10.4999C11.5592 10.4999 12.0114 10.4686 13.1801 10.2703C14.5436 10.0442 15.4688 9.74512 16.5992 9.16772C16.6131 9.16077 16.6201 9.93294 16.6166 10.8825L16.6062 12.6077L16.1644 12.7921C15.5244 13.0599 15.0479 13.3521 14.6514 13.7277C14.481 13.8877 14.4566 13.8982 13.994 14.0164C11.5418 14.6321 8.31053 14.6182 5.84445 13.9747C4.7314 13.686 3.79227 13.2095 3.47575 12.7712L3.3714 12.6286V10.8929C3.3714 9.93642 3.38184 9.16077 3.39923 9.16772C3.41314 9.17468 3.61836 9.27903 3.85836 9.39381ZM4.76271 15.0982C7.1314 15.8947 10.3836 16.086 13.2323 15.5956C13.5592 15.5364 13.8584 15.4808 13.9036 15.4703L13.9801 15.4495V17.3973V19.3486L13.834 19.3903C13.2636 19.5434 12.0566 19.7103 11.1279 19.7695C7.98358 19.9608 4.71053 19.3103 3.63923 18.2773C3.35401 18.006 3.3714 18.1347 3.3714 16.2112V14.4964L3.79923 14.7086C4.03575 14.8234 4.46705 15.0008 4.76271 15.0982ZM3.60097 19.9434C3.87923 20.0999 4.45662 20.3364 4.93662 20.4929C7.22184 21.2303 10.5123 21.4042 13.2149 20.9312C13.4931 20.8825 13.7784 20.8338 13.8514 20.8234L13.9801 20.8025L13.9731 22.7469L13.9627 24.6912L13.7192 24.7503C12.8497 24.966 11.6949 25.0912 10.3801 25.1156C9.26358 25.1364 8.54705 25.1016 7.61488 24.9834C5.62532 24.7329 3.88271 24.0756 3.47227 23.4251L3.3714 23.2686V21.5538C3.3714 20.6112 3.38184 19.839 3.39575 19.839C3.40618 19.839 3.5001 19.8842 3.60097 19.9434Z" fill="#AFAFAF"/>
<path d="M23.7743 16.4339C21.3708 16.6808 19.3534 18.1591 18.4108 20.3608C18.0039 21.3139 17.823 22.4165 17.9134 23.4008C18.063 25.0634 18.71 26.4304 19.8856 27.5643C20.4143 28.0721 20.8282 28.3678 21.4613 28.6843C23.0334 29.4773 24.7169 29.606 26.3969 29.0669C26.8978 28.9104 27.7048 28.5034 28.1395 28.1973C28.5639 27.8947 29.3708 27.0878 29.6804 26.6565C29.983 26.2286 30.3865 25.4252 30.55 24.9243C31.3604 22.4304 30.6126 19.7104 28.6439 18.006C27.7082 17.1956 26.5639 16.6634 25.3569 16.4826C24.9221 16.4165 24.1674 16.3921 23.7743 16.4339ZM25.2526 17.8773C25.6561 17.9434 26.2961 18.1521 26.6682 18.3365C28.1048 19.0599 29.1308 20.4512 29.4091 22.0478C29.4926 22.5104 29.4926 23.286 29.4126 23.7521C29.0439 25.8843 27.3743 27.5539 25.2352 27.926C24.7726 28.0095 23.9969 28.0095 23.5308 27.9295C21.3987 27.5608 19.7291 25.8912 19.3569 23.7521C19.2734 23.2895 19.2734 22.5139 19.3534 22.0478C19.6317 20.4443 20.6578 19.0599 22.1048 18.3434C23.1134 17.8426 24.1221 17.6965 25.2526 17.8773Z" fill="#AFAFAF"/>
<path d="M21.7441 22.2948C21.3407 22.493 21.2433 23.0043 21.5389 23.3417C21.772 23.6061 21.6328 23.5956 24.3807 23.5956C27.1285 23.5956 26.9894 23.6061 27.2224 23.3417C27.5215 23.0009 27.4172 22.493 27.0102 22.2913L26.8363 22.2043H24.3807H21.925L21.7441 22.2948Z" fill="#AFAFAF"/>
</svg>
