<svg width="187" height="144" viewBox="0 0 187 144" fill="none" xmlns="http://www.w3.org/2000/svg">
<rect x="33" y="41.5859" width="99.7077" height="71.2198" fill="url(#paint0_linear_3219_48942)"/>
<path d="M108.968 78.2079C108.968 74.2746 112.157 71.0859 116.09 71.0859H137.456V85.3299H116.09C112.157 85.3299 108.968 82.1413 108.968 78.2079V78.2079Z" fill="url(#paint1_linear_3219_48942)"/>
<path d="M33 36.1567L126.773 30.7305V36.1567H33Z" fill="url(#paint2_linear_3219_48942)"/>
<path d="M33 115.01L82.8539 126.879H186.123L133.895 115.01H33Z" fill="url(#paint3_linear_3219_48942)"/>
<circle cx="116.089" cy="78.213" r="4.74799" transform="rotate(-90 116.089 78.213)" fill="url(#paint4_linear_3219_48942)"/>
<path fill-rule="evenodd" clip-rule="evenodd" d="M13.369 43.746C9.79666 45.3921 8.23513 49.6225 9.88123 53.1949L17.6838 70.1279C19.1903 73.3972 22.8613 74.9824 26.2115 73.966C26.0124 73.7701 25.8448 73.5356 25.721 73.2669L15.8295 51.8006C15.2808 50.6099 15.8013 49.1997 16.9921 48.651L25.2944 44.8254C26.4851 44.2767 27.8953 44.7972 28.444 45.988L38.3354 67.4543C38.456 67.7159 38.5249 67.9881 38.5465 68.2594C41.409 66.3475 42.5376 62.5857 41.0514 59.3603L33.2488 42.4273C31.6027 38.855 27.3723 37.2934 23.8 38.9395L13.369 43.746Z" fill="url(#paint5_linear_3219_48942)"/>
<rect x="11.6132" y="72.8984" width="40.3579" height="40.3579" transform="rotate(-24.7398 11.6132 72.8984)" fill="url(#paint6_linear_3219_48942)"/>
<path d="M27.2273 120.944L77.0812 132.812L120.839 132.81L68.6109 120.941L27.2273 120.944Z" fill="url(#paint7_linear_3219_48942)"/>
<path d="M134.177 0.375C134.177 0.375 139.707 12.8655 157.854 21.0349C157.854 21.0349 154.094 57.9722 134.177 61.084C134.177 61.1025 116.491 53.5898 113.357 11.644C113.357 11.644 129.181 10.1303 134.177 0.375Z" fill="url(#paint8_linear_3219_48942)"/>
<path d="M130.381 2.44531C130.381 2.44531 135.912 14.9358 154.059 23.1052C154.059 23.1052 150.298 60.0425 130.381 63.1543C130.381 63.1728 112.696 55.6601 109.562 13.7143C109.562 13.7143 125.386 12.2006 130.381 2.44531Z" fill="url(#paint9_linear_3219_48942)"/>
<path fill-rule="evenodd" clip-rule="evenodd" d="M140.433 25.2109L127.469 44.8722L121.634 34.5822L122.138 32.9417L127.555 41.768L138.162 25.7847L140.433 25.2109Z" fill="white"/>
<path fill-rule="evenodd" clip-rule="evenodd" d="M140.433 25.2109L127.469 44.8722L121.634 34.5822L122.138 32.9417L127.555 41.768L138.162 25.7847L140.433 25.2109Z" fill="white"/>
<defs>
<linearGradient id="paint0_linear_3219_48942" x1="112.529" y1="20.0484" x2="33" y2="105.461" gradientUnits="userSpaceOnUse">
<stop offset="0.3" stop-color="#F4E3B9"/>
<stop offset="0.72" stop-color="white"/>
<stop offset="1" stop-color="#F4E3B9"/>
</linearGradient>
<linearGradient id="paint1_linear_3219_48942" x1="131.691" y1="66.7784" x2="117.102" y2="89.1621" gradientUnits="userSpaceOnUse">
<stop offset="0.3" stop-color="#F4E3B9"/>
<stop offset="0.72" stop-color="white"/>
<stop offset="1" stop-color="#CCA543"/>
</linearGradient>
<linearGradient id="paint2_linear_3219_48942" x1="74.7145" y1="36.1567" x2="74.7145" y2="11.7385" gradientUnits="userSpaceOnUse">
<stop offset="0.3" stop-color="#F4E3B9"/>
<stop offset="1" stop-color="white"/>
</linearGradient>
<linearGradient id="paint3_linear_3219_48942" x1="82.8539" y1="53.2874" x2="184.936" y2="136.377" gradientUnits="userSpaceOnUse">
<stop stop-color="#594F34" stop-opacity="0.53"/>
<stop offset="1" stop-color="white"/>
</linearGradient>
<linearGradient id="paint4_linear_3219_48942" x1="118.915" y1="70.5933" x2="108.648" y2="78.4702" gradientUnits="userSpaceOnUse">
<stop offset="0.3" stop-color="#836825"/>
<stop offset="0.72" stop-color="white"/>
<stop offset="1" stop-color="#694B01"/>
</linearGradient>
<linearGradient id="paint5_linear_3219_48942" x1="18.5845" y1="41.3428" x2="32.3199" y2="71.1511" gradientUnits="userSpaceOnUse">
<stop stop-color="white"/>
<stop offset="0.495192" stop-color="#F4E3B9"/>
<stop offset="1" stop-color="#796430"/>
</linearGradient>
<linearGradient id="paint6_linear_3219_48942" x1="15.7624" y1="82.4579" x2="52.2439" y2="80.8411" gradientUnits="userSpaceOnUse">
<stop stop-color="#7F714E"/>
<stop offset="0.735" stop-color="#F4E3B9"/>
<stop offset="0.817308" stop-color="white"/>
<stop offset="1" stop-color="#FFEDBF"/>
</linearGradient>
<linearGradient id="paint7_linear_3219_48942" x1="57.7054" y1="59.2066" x2="140.874" y2="100.584" gradientUnits="userSpaceOnUse">
<stop stop-color="#594F34" stop-opacity="0.53"/>
<stop offset="1" stop-color="white"/>
</linearGradient>
<linearGradient id="paint8_linear_3219_48942" x1="117.66" y1="13.692" x2="156.899" y2="52.8987" gradientUnits="userSpaceOnUse">
<stop stop-color="white"/>
<stop offset="0.22" stop-color="white"/>
<stop offset="1" stop-color="#B18517"/>
</linearGradient>
<linearGradient id="paint9_linear_3219_48942" x1="113.865" y1="15.7624" x2="153.103" y2="54.9691" gradientUnits="userSpaceOnUse">
<stop stop-color="white"/>
<stop offset="0.0001" stop-color="white"/>
<stop offset="1" stop-color="#B18517" stop-opacity="0.59"/>
</linearGradient>
</defs>
</svg>
