<svg width="32" height="32" viewBox="0 0 32 32" fill="none" xmlns="http://www.w3.org/2000/svg">
<g clip-path="url(#clip0_5548_10195)">
<path d="M14.5313 1.59375C10.2001 2.46875 6.38757 3.225 6.06257 3.28125C5.00632 3.4625 4.43132 3.84375 4.05007 4.6125L3.90632 4.90625L3.88757 12.0437C3.87507 19.1062 3.87507 19.1812 4.00007 19.5188C4.26257 20.225 4.80632 20.7125 5.53132 20.9062C5.85007 20.9875 6.56257 21 10.6688 21H15.4376V23.7437V26.4875L15.2063 26.5687C14.5438 26.7812 14.0313 27.1625 13.6751 27.7125C13.5376 27.925 13.4001 28.2125 13.3563 28.3563L13.2876 28.625L6.80632 28.6375L0.325069 28.6562L0.162569 28.8062C6.85444e-05 28.9625 -0.0561814 29.2812 0.0375685 29.5312C0.150069 29.8187 0.0250687 29.8125 6.84382 29.8125C12.8938 29.8125 13.2563 29.8187 13.2876 29.925C13.7251 31.2312 14.7313 32 16.0001 32C17.2688 32 18.2751 31.2312 18.7126 29.9188C18.7438 29.8187 19.1063 29.8125 25.1563 29.8125C31.9751 29.8125 31.8501 29.8187 31.9626 29.5312C32.0438 29.3062 32.0001 29.0062 31.8501 28.8312L31.7001 28.6562L25.1938 28.6375C18.9501 28.625 18.6876 28.6187 18.6876 28.5062C18.6876 28.3438 18.3501 27.6937 18.1126 27.4125C17.8688 27.1125 17.2876 26.7312 16.8688 26.5938L16.5626 26.4875V23.7437V21H21.3313C25.4376 21 26.1501 20.9875 26.4688 20.9062C27.1938 20.7125 27.7376 20.225 28.0001 19.5188C28.1251 19.1812 28.1251 19.1062 28.1126 12.0437L28.0938 4.90625L27.9501 4.6125C27.7188 4.15 27.3501 3.775 26.8876 3.55C26.4938 3.35625 26.4251 3.34375 25.6751 3.31875L24.8751 3.3V2.81875C24.8688 1.7 24.6188 0.981249 24.0626 0.481249C23.6876 0.143749 23.2938 0 22.7876 0.00625038C22.5626 0.0124989 19.1876 0.6625 14.5313 1.59375ZM23.2188 1.29375C23.5438 1.5375 23.6501 1.85 23.6751 2.60625L23.7001 3.3125L17.8688 3.30625L12.0313 3.3L17.3751 2.21875C20.3126 1.61875 22.8001 1.14375 22.8938 1.15625C22.9876 1.175 23.1376 1.2375 23.2188 1.29375ZM26.4063 4.6125C26.5438 4.69375 26.7313 4.85625 26.8126 4.98125C26.9626 5.2 26.9688 5.25625 26.9876 6.325L27.0126 7.4375H22.2251H17.4438L17.2688 7.5875L17.0938 7.7375L17.0751 12.0437C17.0626 15.2625 17.0813 16.3875 17.1376 16.525C17.2813 16.8812 17.1938 16.875 22.3126 16.875H27.0001V17.8875C27.0001 18.7437 26.9813 18.9437 26.8813 19.1562C26.7501 19.4437 26.5438 19.65 26.2938 19.7437C26.1688 19.7937 23.0126 19.8125 15.9938 19.8125C7.58757 19.8125 5.83757 19.8 5.66882 19.725C5.40632 19.6187 5.15007 19.3125 5.06257 19.0125C5.01257 18.85 5.00007 16.7063 5.01257 11.9937L5.03132 5.2125L5.18757 4.9875C5.36257 4.725 5.62507 4.55625 5.93757 4.49375C6.05632 4.46875 10.6563 4.45625 16.1563 4.4625L26.1563 4.46875L26.4063 4.6125ZM27.0001 12.1562V15.6875H22.6251H18.2501V12.1562V8.625H22.6251H27.0001V12.1562ZM16.6563 27.775C17.2813 28.0625 17.6813 28.7437 17.6063 29.3875C17.4938 30.325 16.5813 31 15.6876 30.8062C14.7563 30.6062 14.1751 29.6312 14.4688 28.75C14.6876 28.0938 15.3251 27.625 16.0001 27.625C16.2313 27.625 16.4501 27.675 16.6563 27.775Z" fill="#8D9797"/>
<path d="M22.1058 10.5067C21.5308 10.5942 20.9933 11.0504 20.8058 11.6067C20.7121 11.9004 20.7621 12.6629 20.8996 12.9192C21.1683 13.4442 21.6808 13.7629 22.3246 13.8004C22.6683 13.8192 22.7996 13.8004 23.0746 13.6754C23.6808 13.3942 24.0058 12.9317 24.0496 12.2817C24.0808 11.8067 23.9933 11.4754 23.7433 11.1379C23.3871 10.6504 22.7621 10.4129 22.1058 10.5067Z" fill="#8D9797"/>
</g>
<defs>
<clipPath id="clip0_5548_10195">
<rect width="32" height="32" fill="white"/>
</clipPath>
</defs>
</svg>
