<svg width="2030" height="196" viewBox="0 0 2030 196" fill="none" xmlns="http://www.w3.org/2000/svg">
<path d="M410.414 0.328125H470.893L459.693 14.5375H397.969L410.414 0.328125Z" stroke="#000000" stroke-miterlimit="10"/>
<path d="M470.895 0.328125H531.373L521.42 14.5375H459.695L470.895 0.328125Z" stroke="#000000" stroke-miterlimit="10"/>
<path d="M531.375 0.328125H591.861L583.146 14.5375H521.422L531.375 0.328125Z" stroke="#000000" stroke-miterlimit="10"/>
<path d="M591.856 0.328125H652.334L644.865 14.5375H583.141L591.856 0.328125Z" stroke="#000000" stroke-miterlimit="10"/>
<path d="M652.336 0.328125H712.814L706.592 14.5375H644.867L652.336 0.328125Z" stroke="#000000" stroke-miterlimit="10"/>
<path d="M712.817 0.328125H773.295L768.318 14.5375H706.594L712.817 0.328125Z" stroke="#000000" stroke-miterlimit="10"/>
<path d="M773.297 0.328125H833.783L830.045 14.5375H768.32L773.297 0.328125Z" stroke="#000000" stroke-miterlimit="10"/>
<path d="M833.785 0.328125H894.264L891.771 14.5375H830.047L833.785 0.328125Z" stroke="#000000" stroke-miterlimit="10"/>
<path d="M894.258 0.328125H954.736L953.49 14.5375H891.766L894.258 0.328125Z" stroke="#000000" stroke-miterlimit="10"/>
<path d="M954.738 0.328125H1015.22V14.5375H953.492L954.738 0.328125Z" stroke="#000000" stroke-miterlimit="10"/>
<path d="M1015.22 0.328125H1075.71L1076.95 14.5375H1015.22V0.328125Z" stroke="#000000" stroke-miterlimit="10"/>
<path d="M1075.7 0.328125H1136.18L1138.67 14.5375H1076.95L1075.7 0.328125Z" stroke="#000000" stroke-miterlimit="10"/>
<path d="M1136.18 0.328125H1196.66L1200.4 14.5375H1138.67L1136.18 0.328125Z" stroke="#000000" stroke-miterlimit="10"/>
<path d="M1196.66 0.328125H1257.13L1262.12 14.5375H1200.39L1196.66 0.328125Z" stroke="#000000" stroke-miterlimit="10"/>
<path d="M1257.14 0.328125H1317.63L1323.85 14.5375H1262.13L1257.14 0.328125Z" stroke="#000000" stroke-miterlimit="10"/>
<path d="M1317.62 0.328125H1378.1L1385.57 14.5375H1323.85L1317.62 0.328125Z" stroke="#000000" stroke-miterlimit="10"/>
<path d="M1378.1 0.328125H1438.58L1447.29 14.5375H1385.57L1378.1 0.328125Z" stroke="#000000" stroke-miterlimit="10"/>
<path d="M1438.58 0.328125H1499.06L1509.02 14.5375H1447.29L1438.58 0.328125Z" stroke="#000000" stroke-miterlimit="10"/>
<path d="M1499.06 0.328125H1559.54L1570.74 14.5375H1509.02L1499.06 0.328125Z" stroke="#000000" stroke-miterlimit="10"/>
<path d="M1559.55 0.328125H1620.03L1632.47 14.5375H1570.75L1559.55 0.328125Z" stroke="#000000" stroke-miterlimit="10"/>
<path d="M397.973 14.5391H459.697L448.027 29.3477H385L397.973 14.5391Z" stroke="#000000" stroke-miterlimit="10"/>
<path d="M459.694 14.5391H521.419L511.042 29.3477H448.023L459.694 14.5391Z" stroke="#000000" stroke-miterlimit="10"/>
<path d="M521.423 14.5391H583.148L574.065 29.3477H511.047L521.423 14.5391Z" stroke="#000000" stroke-miterlimit="10"/>
<path d="M583.145 14.5391H644.87L637.089 29.3477H574.062L583.145 14.5391Z" stroke="#000000" stroke-miterlimit="10"/>
<path d="M644.874 14.5391H706.599L700.112 29.3477H637.094L644.874 14.5391Z" stroke="#000000" stroke-miterlimit="10"/>
<path d="M706.596 14.5391H768.32L763.136 29.3477H700.109L706.596 14.5391Z" stroke="#000000" stroke-miterlimit="10"/>
<path d="M768.317 14.5391H830.042L826.151 29.3477H763.133L768.317 14.5391Z" stroke="#000000" stroke-miterlimit="10"/>
<path d="M830.046 14.5391H891.771L889.183 29.3477H826.156L830.046 14.5391Z" stroke="#000000" stroke-miterlimit="10"/>
<path d="M891.768 14.5391H953.492L952.198 29.3477H889.18L891.768 14.5391Z" stroke="#000000" stroke-miterlimit="10"/>
<path d="M953.489 14.5391H1015.21V29.3477H952.195L953.489 14.5391Z" stroke="#000000" stroke-miterlimit="10"/>
<path d="M1015.22 14.5391H1076.95L1078.25 29.3477H1015.22V14.5391Z" stroke="#000000" stroke-miterlimit="10"/>
<path d="M1076.95 14.5391H1138.68L1141.27 29.3477H1078.25L1076.95 14.5391Z" stroke="#000000" stroke-miterlimit="10"/>
<path d="M1138.67 14.5391H1200.4L1204.29 29.3477H1141.26L1138.67 14.5391Z" stroke="#000000" stroke-miterlimit="10"/>
<path d="M1200.4 14.5391H1262.12L1267.31 29.3477H1204.29L1200.4 14.5391Z" stroke="#000000" stroke-miterlimit="10"/>
<path d="M1262.12 14.5391H1323.85L1330.34 29.3477H1267.31L1262.12 14.5391Z" stroke="#000000" stroke-miterlimit="10"/>
<path d="M1323.84 14.5391H1385.57L1393.35 29.3477H1330.33L1323.84 14.5391Z" stroke="#000000" stroke-miterlimit="10"/>
<path d="M1385.57 14.5391H1447.29L1456.37 29.3477H1393.35L1385.57 14.5391Z" stroke="#000000" stroke-miterlimit="10"/>
<path d="M1447.3 14.5391H1509.02L1519.4 29.3477H1456.37L1447.3 14.5391Z" stroke="#000000" stroke-miterlimit="10"/>
<path d="M1509.02 14.5391H1570.74L1582.41 29.3477H1519.39L1509.02 14.5391Z" stroke="#000000" stroke-miterlimit="10"/>
<path d="M1570.74 14.5391H1632.47L1645.44 29.3477H1582.41L1570.74 14.5391Z" stroke="#000000" stroke-miterlimit="10"/>
<path d="M385.001 29.3438H448.027L435.853 44.7852H371.477L385.001 29.3438Z" stroke="#000000" stroke-miterlimit="10"/>
<path d="M448.026 29.3438H511.044L500.22 44.7852H435.852L448.026 29.3438Z" stroke="#000000" stroke-miterlimit="10"/>
<path d="M511.043 29.3438H574.061L564.595 44.7852H500.219L511.043 29.3438Z" stroke="#000000" stroke-miterlimit="10"/>
<path d="M574.06 29.3438H637.086L628.97 44.7852H564.594L574.06 29.3438Z" stroke="#000000" stroke-miterlimit="10"/>
<path d="M637.085 29.3438H700.103L693.345 44.7852H628.969L637.085 29.3438Z" stroke="#000000" stroke-miterlimit="10"/>
<path d="M700.11 29.3438H763.136L757.72 44.7852H693.352L700.11 29.3438Z" stroke="#000000" stroke-miterlimit="10"/>
<path d="M763.135 29.3438H826.153L822.095 44.7852H757.719L763.135 29.3438Z" stroke="#000000" stroke-miterlimit="10"/>
<path d="M826.152 29.3438H889.178L886.47 44.7852H822.094L826.152 29.3438Z" stroke="#000000" stroke-miterlimit="10"/>
<path d="M889.177 29.3438H952.195L950.845 44.7852H886.469L889.177 29.3438Z" stroke="#000000" stroke-miterlimit="10"/>
<path d="M952.194 29.3438H1015.21V44.7852H950.844L952.194 29.3438Z" stroke="#000000" stroke-miterlimit="10"/>
<path d="M1015.22 29.3438H1078.25L1079.6 44.7852H1015.22V29.3438Z" stroke="#000000" stroke-miterlimit="10"/>
<path d="M1078.24 29.3438H1141.26L1143.97 44.7852H1079.59L1078.24 29.3438Z" stroke="#000000" stroke-miterlimit="10"/>
<path d="M1141.27 29.3438H1204.29L1208.35 44.7852H1143.97L1141.27 29.3438Z" stroke="#000000" stroke-miterlimit="10"/>
<path d="M1204.29 29.3438H1267.31L1272.72 44.7852H1208.35L1204.29 29.3438Z" stroke="#000000" stroke-miterlimit="10"/>
<path d="M1267.3 29.3438H1330.33L1337.09 44.7852H1272.71L1267.3 29.3438Z" stroke="#000000" stroke-miterlimit="10"/>
<path d="M1330.34 29.3438H1393.35L1401.47 44.7852H1337.09L1330.34 29.3438Z" stroke="#000000" stroke-miterlimit="10"/>
<path d="M1393.35 29.3438H1456.37L1465.84 44.7852H1401.47L1393.35 29.3438Z" stroke="#000000" stroke-miterlimit="10"/>
<path d="M1456.37 29.3438H1519.39L1530.22 44.7852H1465.84L1456.37 29.3438Z" stroke="#000000" stroke-miterlimit="10"/>
<path d="M1519.4 29.3438H1582.42L1594.59 44.7852H1530.22L1519.4 29.3438Z" stroke="#000000" stroke-miterlimit="10"/>
<path d="M1582.41 29.3438H1645.44L1658.96 44.7852H1594.59L1582.41 29.3438Z" stroke="#000000" stroke-miterlimit="10"/>
<path d="M371.475 44.7891H435.851L423.142 60.9113H357.352L371.475 44.7891Z" stroke="#000000" stroke-miterlimit="10"/>
<path d="M435.85 44.7891H500.218L488.923 60.9113H423.141L435.85 44.7891Z" stroke="#000000" stroke-miterlimit="10"/>
<path d="M500.217 44.7891H564.594L554.712 60.9113H488.922L500.217 44.7891Z" stroke="#000000" stroke-miterlimit="10"/>
<path d="M564.6 44.7891H628.977L620.501 60.9113H554.719L564.6 44.7891Z" stroke="#000000" stroke-miterlimit="10"/>
<path d="M628.975 44.7891H693.352L686.29 60.9113H620.5L628.975 44.7891Z" stroke="#000000" stroke-miterlimit="10"/>
<path d="M693.351 44.7891H757.719L752.071 60.9113H686.289L693.351 44.7891Z" stroke="#000000" stroke-miterlimit="10"/>
<path d="M757.718 44.7891H822.094L817.861 60.9113H752.07L757.718 44.7891Z" stroke="#000000" stroke-miterlimit="10"/>
<path d="M822.093 44.7891H886.47L883.642 60.9113H817.859L822.093 44.7891Z" stroke="#000000" stroke-miterlimit="10"/>
<path d="M886.468 44.7891H950.845L949.431 60.9113H883.641L886.468 44.7891Z" stroke="#000000" stroke-miterlimit="10"/>
<path d="M950.851 44.7891H1015.22V60.9113H949.438L950.851 44.7891Z" stroke="#000000" stroke-miterlimit="10"/>
<path d="M1015.22 44.7891H1079.6L1081.01 60.9113H1015.22V44.7891Z" stroke="#000000" stroke-miterlimit="10"/>
<path d="M1079.59 44.7891H1143.97L1146.79 60.9113H1081.01L1079.59 44.7891Z" stroke="#000000" stroke-miterlimit="10"/>
<path d="M1143.97 44.7891H1208.35L1212.58 60.9113H1146.79L1143.97 44.7891Z" stroke="#000000" stroke-miterlimit="10"/>
<path d="M1208.34 44.7891H1272.71L1278.37 60.9113H1212.58L1208.34 44.7891Z" stroke="#000000" stroke-miterlimit="10"/>
<path d="M1272.72 44.7891H1337.1L1344.16 60.9113H1278.37L1272.72 44.7891Z" stroke="#000000" stroke-miterlimit="10"/>
<path d="M1337.09 44.7891H1401.47L1409.95 60.9113H1344.16L1337.09 44.7891Z" stroke="#000000" stroke-miterlimit="10"/>
<path d="M1401.47 44.7891H1465.85L1475.73 60.9113H1409.94L1401.47 44.7891Z" stroke="#000000" stroke-miterlimit="10"/>
<path d="M1465.84 44.7891H1530.22L1541.52 60.9113H1475.73L1465.84 44.7891Z" stroke="#000000" stroke-miterlimit="10"/>
<path d="M1530.22 44.7891H1594.59L1607.3 60.9113H1541.51L1530.22 44.7891Z" stroke="#000000" stroke-miterlimit="10"/>
<path d="M1594.59 44.7891H1658.97L1673.09 60.9113H1607.3L1594.59 44.7891Z" stroke="#000000" stroke-miterlimit="10"/>
<path d="M357.348 60.9062H423.138L409.862 77.7476H342.594L357.348 60.9062Z" stroke="#000000" stroke-miterlimit="10"/>
<path d="M423.144 60.9062H488.926L477.127 77.7476H409.867L423.144 60.9062Z" stroke="#000000" stroke-miterlimit="10"/>
<path d="M488.924 60.9062H554.714L544.385 77.7476H477.125L488.924 60.9062Z" stroke="#000000" stroke-miterlimit="10"/>
<path d="M554.719 60.9062H620.502L611.651 77.7476H544.391L554.719 60.9062Z" stroke="#000000" stroke-miterlimit="10"/>
<path d="M620.499 60.9062H686.29L678.909 77.7476H611.648L620.499 60.9062Z" stroke="#000000" stroke-miterlimit="10"/>
<path d="M686.287 60.9062H752.07L746.174 77.7476H678.906L686.287 60.9062Z" stroke="#000000" stroke-miterlimit="10"/>
<path d="M752.067 60.9062H817.858L813.432 77.7476H746.172L752.067 60.9062Z" stroke="#000000" stroke-miterlimit="10"/>
<path d="M817.863 60.9062H883.645L880.698 77.7476H813.438L817.863 60.9062Z" stroke="#000000" stroke-miterlimit="10"/>
<path d="M883.643 60.9062H949.433L947.956 77.7476H880.695L883.643 60.9062Z" stroke="#000000" stroke-miterlimit="10"/>
<path d="M949.431 60.9062H1015.21V77.7476H947.953L949.431 60.9062Z" stroke="#000000" stroke-miterlimit="10"/>
<path d="M1015.22 60.9062H1081.01L1082.49 77.7476H1015.22V60.9062Z" stroke="#000000" stroke-miterlimit="10"/>
<path d="M1081.01 60.9062H1146.79L1149.75 77.7476H1082.49L1081.01 60.9062Z" stroke="#000000" stroke-miterlimit="10"/>
<path d="M1146.79 60.9062H1212.58L1217 77.7476H1149.74L1146.79 60.9062Z" stroke="#000000" stroke-miterlimit="10"/>
<path d="M1212.58 60.9062H1278.37L1284.26 77.7476H1217L1212.58 60.9062Z" stroke="#000000" stroke-miterlimit="10"/>
<path d="M1278.37 60.9062H1344.15L1351.52 77.7476H1284.26L1278.37 60.9062Z" stroke="#000000" stroke-miterlimit="10"/>
<path d="M1344.16 60.9062H1409.95L1418.8 77.7476H1351.53L1344.16 60.9062Z" stroke="#000000" stroke-miterlimit="10"/>
<path d="M1409.95 60.9062H1475.73L1486.06 77.7476H1418.8L1409.95 60.9062Z" stroke="#000000" stroke-miterlimit="10"/>
<path d="M1475.73 60.9062H1541.52L1553.32 77.7476H1486.06L1475.73 60.9062Z" stroke="#000000" stroke-miterlimit="10"/>
<path d="M1541.52 60.9062H1607.3L1620.57 77.7476H1553.31L1541.52 60.9062Z" stroke="#000000" stroke-miterlimit="10"/>
<path d="M1607.3 60.9062H1673.09L1687.83 77.7476H1620.57L1607.3 60.9062Z" stroke="#000000" stroke-miterlimit="10"/>
<path d="M342.597 77.75H409.865L395.974 95.368H327.172L342.597 77.75Z" stroke="#000000" stroke-miterlimit="10"/>
<path d="M409.868 77.75H477.128L464.787 95.368H395.977L409.868 77.75Z" stroke="#000000" stroke-miterlimit="10"/>
<path d="M477.123 77.75H544.383L533.583 95.368H464.781L477.123 77.75Z" stroke="#000000" stroke-miterlimit="10"/>
<path d="M544.386 77.75H611.646L602.388 95.368H533.586L544.386 77.75Z" stroke="#000000" stroke-miterlimit="10"/>
<path d="M611.649 77.75H678.909L671.201 95.368H602.391L611.649 77.75Z" stroke="#000000" stroke-miterlimit="10"/>
<path d="M678.912 77.75H746.18L740.005 95.368H671.203L678.912 77.75Z" stroke="#000000" stroke-miterlimit="10"/>
<path d="M746.175 77.75H813.435L808.802 95.368H740L746.175 77.75Z" stroke="#000000" stroke-miterlimit="10"/>
<path d="M813.438 77.75H880.698L877.615 95.368H808.805L813.438 77.75Z" stroke="#000000" stroke-miterlimit="10"/>
<path d="M880.693 77.75H947.953L946.411 95.368H877.609L880.693 77.75Z" stroke="#000000" stroke-miterlimit="10"/>
<path d="M947.956 77.75H1015.22V95.368H946.414L947.956 77.75Z" stroke="#000000" stroke-miterlimit="10"/>
<path d="M1015.22 77.75H1082.49L1084.03 95.368H1015.22V77.75Z" stroke="#000000" stroke-miterlimit="10"/>
<path d="M1082.48 77.75H1149.74L1152.83 95.368H1084.03L1082.48 77.75Z" stroke="#000000" stroke-miterlimit="10"/>
<path d="M1149.74 77.75H1217L1221.64 95.368H1152.83L1149.74 77.75Z" stroke="#000000" stroke-miterlimit="10"/>
<path d="M1217 77.75H1284.26L1290.44 95.368H1221.63L1217 77.75Z" stroke="#000000" stroke-miterlimit="10"/>
<path d="M1284.27 77.75H1351.53L1359.24 95.368H1290.44L1284.27 77.75Z" stroke="#000000" stroke-miterlimit="10"/>
<path d="M1351.52 77.75H1418.79L1428.05 95.368H1359.24L1351.52 77.75Z" stroke="#000000" stroke-miterlimit="10"/>
<path d="M1418.8 77.75H1486.06L1496.86 95.368H1428.06L1418.8 77.75Z" stroke="#000000" stroke-miterlimit="10"/>
<path d="M1486.05 77.75H1553.32L1565.66 95.368H1496.85L1486.05 77.75Z" stroke="#000000" stroke-miterlimit="10"/>
<path d="M1553.31 77.75H1620.57L1634.46 95.368H1565.65L1553.31 77.75Z" stroke="#000000" stroke-miterlimit="10"/>
<path d="M1620.58 77.75H1687.84L1703.27 95.368H1634.47L1620.58 77.75Z" stroke="#000000" stroke-miterlimit="10"/>
<path d="M327.168 95.3672H395.97L381.431 113.81H311.016L327.168 95.3672Z" stroke="#000000" stroke-miterlimit="10"/>
<path d="M395.976 95.3672H464.786L451.861 113.81H381.438L395.976 95.3672Z" stroke="#000000" stroke-miterlimit="10"/>
<path d="M464.784 95.3672H533.586L522.275 113.81H451.859L464.784 95.3672Z" stroke="#000000" stroke-miterlimit="10"/>
<path d="M533.585 95.3672H602.387L592.697 113.81H522.273L533.585 95.3672Z" stroke="#000000" stroke-miterlimit="10"/>
<path d="M602.393 95.3672H671.203L663.127 113.81H592.703L602.393 95.3672Z" stroke="#000000" stroke-miterlimit="10"/>
<path d="M671.201 95.3672H740.003L733.541 113.81H663.125L671.201 95.3672Z" stroke="#000000" stroke-miterlimit="10"/>
<path d="M740.001 95.3672H808.803L803.963 113.81H733.539L740.001 95.3672Z" stroke="#000000" stroke-miterlimit="10"/>
<path d="M808.802 95.3672H877.612L874.376 113.81H803.961L808.802 95.3672Z" stroke="#000000" stroke-miterlimit="10"/>
<path d="M877.61 95.3672H946.412L944.799 113.81H874.375L877.61 95.3672Z" stroke="#000000" stroke-miterlimit="10"/>
<path d="M946.41 95.3672H1015.21V113.81H944.797L946.41 95.3672Z" stroke="#000000" stroke-miterlimit="10"/>
<path d="M1015.22 95.3672H1084.03L1085.64 113.81H1015.22V95.3672Z" stroke="#000000" stroke-miterlimit="10"/>
<path d="M1084.02 95.3672H1152.83L1156.06 113.81H1085.64L1084.02 95.3672Z" stroke="#000000" stroke-miterlimit="10"/>
<path d="M1152.83 95.3672H1221.64L1226.48 113.81H1156.06L1152.83 95.3672Z" stroke="#000000" stroke-miterlimit="10"/>
<path d="M1221.64 95.3672H1290.44L1296.9 113.81H1226.48L1221.64 95.3672Z" stroke="#000000" stroke-miterlimit="10"/>
<path d="M1290.44 95.3672H1359.24L1367.32 113.81H1296.9L1290.44 95.3672Z" stroke="#000000" stroke-miterlimit="10"/>
<path d="M1359.24 95.3672H1428.05L1437.74 113.81H1367.32L1359.24 95.3672Z" stroke="#000000" stroke-miterlimit="10"/>
<path d="M1428.05 95.3672H1496.85L1508.16 113.81H1437.74L1428.05 95.3672Z" stroke="#000000" stroke-miterlimit="10"/>
<path d="M1496.85 95.3672H1565.65L1578.58 113.81H1508.16L1496.85 95.3672Z" stroke="#000000" stroke-miterlimit="10"/>
<path d="M1565.66 95.3672H1634.47L1649 113.81H1578.58L1565.66 95.3672Z" stroke="#000000" stroke-miterlimit="10"/>
<path d="M1634.47 95.3672H1703.27L1719.42 113.81H1649.01L1634.47 95.3672Z" stroke="#000000" stroke-miterlimit="10"/>
<path d="M311.021 113.812H381.436L366.203 133.142H294.086L311.021 113.812Z" stroke="#000000" stroke-miterlimit="10"/>
<path d="M381.437 113.812H451.86L438.312 133.142H366.203L381.437 113.812Z" stroke="#000000" stroke-miterlimit="10"/>
<path d="M451.86 113.812H522.276L510.43 133.142H438.312L451.86 113.812Z" stroke="#000000" stroke-miterlimit="10"/>
<path d="M522.276 113.812H592.7L582.539 133.142H510.43L522.276 113.812Z" stroke="#000000" stroke-miterlimit="10"/>
<path d="M592.7 113.812H663.124L654.656 133.142H582.539L592.7 113.812Z" stroke="#000000" stroke-miterlimit="10"/>
<path d="M663.124 113.812H733.539L726.765 133.142H654.656L663.124 113.812Z" stroke="#000000" stroke-miterlimit="10"/>
<path d="M733.54 113.812H803.963L798.883 133.142H726.766L733.54 113.812Z" stroke="#000000" stroke-miterlimit="10"/>
<path d="M803.963 113.812H874.379L870.992 133.142H798.883L803.963 113.812Z" stroke="#000000" stroke-miterlimit="10"/>
<path d="M874.371 113.812H944.795L943.101 133.142H870.984L874.371 113.812Z" stroke="#000000" stroke-miterlimit="10"/>
<path d="M944.803 113.812H1015.22V133.142H943.109L944.803 113.812Z" stroke="#000000" stroke-miterlimit="10"/>
<path d="M1015.22 113.812H1085.64L1087.34 133.142H1015.22V113.812Z" stroke="#000000" stroke-miterlimit="10"/>
<path d="M1085.64 113.812H1156.06L1159.45 133.142H1087.33L1085.64 113.812Z" stroke="#000000" stroke-miterlimit="10"/>
<path d="M1156.06 113.812H1226.48L1231.56 133.142H1159.45L1156.06 113.812Z" stroke="#000000" stroke-miterlimit="10"/>
<path d="M1226.48 113.812H1296.9L1303.67 133.142H1231.56L1226.48 113.812Z" stroke="#000000" stroke-miterlimit="10"/>
<path d="M1296.91 113.812H1367.32L1375.79 133.142H1303.68L1296.91 113.812Z" stroke="#000000" stroke-miterlimit="10"/>
<path d="M1367.31 113.812H1437.74L1447.9 133.142H1375.78L1367.31 113.812Z" stroke="#000000" stroke-miterlimit="10"/>
<path d="M1437.74 113.812H1508.17L1520.01 133.142H1447.9L1437.74 113.812Z" stroke="#000000" stroke-miterlimit="10"/>
<path d="M1508.16 113.812H1578.58L1592.13 133.142H1520.01L1508.16 113.812Z" stroke="#000000" stroke-miterlimit="10"/>
<path d="M1578.58 113.812H1649L1664.23 133.142H1592.13L1578.58 113.812Z" stroke="#000000" stroke-miterlimit="10"/>
<path d="M1649 113.812H1719.42L1736.35 133.142H1664.23L1649 113.812Z" stroke="#000000" stroke-miterlimit="10"/>
<path d="M294.086 133.141H366.203L350.211 153.424H276.32L294.086 133.141Z" stroke="#000000" stroke-miterlimit="10"/>
<path d="M366.203 133.141H438.312L424.101 153.424H350.211L366.203 133.141Z" stroke="#000000" stroke-miterlimit="10"/>
<path d="M438.313 133.141H510.43L497.992 153.424H424.102L438.313 133.141Z" stroke="#000000" stroke-miterlimit="10"/>
<path d="M510.43 133.141H582.539L571.883 153.424H497.992L510.43 133.141Z" stroke="#000000" stroke-miterlimit="10"/>
<path d="M582.539 133.141H654.656L645.773 153.424H571.883L582.539 133.141Z" stroke="#000000" stroke-miterlimit="10"/>
<path d="M654.656 133.141H726.765L719.664 153.424H645.773L654.656 133.141Z" stroke="#000000" stroke-miterlimit="10"/>
<path d="M726.766 133.141H798.883L793.554 153.424H719.664L726.766 133.141Z" stroke="#000000" stroke-miterlimit="10"/>
<path d="M798.883 133.141H870.992L867.445 153.424H793.555L798.883 133.141Z" stroke="#000000" stroke-miterlimit="10"/>
<path d="M870.992 133.141H943.109L941.336 153.424H867.445L870.992 133.141Z" stroke="#000000" stroke-miterlimit="10"/>
<path d="M943.109 133.141H1015.22V153.424H941.336L943.109 133.141Z" stroke="#000000" stroke-miterlimit="10"/>
<path d="M1015.22 133.141H1087.34L1089.11 153.424H1015.22V133.141Z" stroke="#000000" stroke-miterlimit="10"/>
<path d="M1087.33 133.141H1159.45L1162.99 153.424H1089.1L1087.33 133.141Z" stroke="#000000" stroke-miterlimit="10"/>
<path d="M1159.45 133.141H1231.56L1236.89 153.424H1163L1159.45 133.141Z" stroke="#000000" stroke-miterlimit="10"/>
<path d="M1231.56 133.141H1303.68L1310.78 153.424H1236.89L1231.56 133.141Z" stroke="#000000" stroke-miterlimit="10"/>
<path d="M1303.67 133.141H1375.78L1384.66 153.424H1310.77L1303.67 133.141Z" stroke="#000000" stroke-miterlimit="10"/>
<path d="M1375.78 133.141H1447.9L1458.55 153.424H1384.66L1375.78 133.141Z" stroke="#000000" stroke-miterlimit="10"/>
<path d="M1447.91 133.141H1520.02L1532.45 153.424H1458.56L1447.91 133.141Z" stroke="#000000" stroke-miterlimit="10"/>
<path d="M1520.02 133.141H1592.13L1606.34 153.424H1532.45L1520.02 133.141Z" stroke="#000000" stroke-miterlimit="10"/>
<path d="M1592.12 133.141H1664.23L1680.23 153.424H1606.34L1592.12 133.141Z" stroke="#000000" stroke-miterlimit="10"/>
<path d="M1664.23 133.141H1736.35L1754.12 153.424H1680.23L1664.23 133.141Z" stroke="#000000" stroke-miterlimit="10"/>
<path d="M276.317 153.43H350.207L333.408 174.734H257.656L276.317 153.43Z" stroke="#000000" stroke-miterlimit="10"/>
<path d="M350.205 153.43H424.096L409.166 174.734H333.406L350.205 153.43Z" stroke="#000000" stroke-miterlimit="10"/>
<path d="M424.102 153.43H497.992L484.932 174.734H409.172L424.102 153.43Z" stroke="#000000" stroke-miterlimit="10"/>
<path d="M497.99 153.43H571.881L560.681 174.734H484.93L497.99 153.43Z" stroke="#000000" stroke-miterlimit="10"/>
<path d="M571.879 153.43H645.769L636.439 174.734H560.68L571.879 153.43Z" stroke="#000000" stroke-miterlimit="10"/>
<path d="M645.768 153.43H719.658L712.189 174.734H636.438L645.768 153.43Z" stroke="#000000" stroke-miterlimit="10"/>
<path d="M719.664 153.43H793.555L787.955 174.734H712.195L719.664 153.43Z" stroke="#000000" stroke-miterlimit="10"/>
<path d="M793.553 153.43H867.443L863.705 174.734H787.953L793.553 153.43Z" stroke="#000000" stroke-miterlimit="10"/>
<path d="M867.442 153.43H941.332L939.463 174.734H863.703L867.442 153.43Z" stroke="#000000" stroke-miterlimit="10"/>
<path d="M941.338 153.43H1015.22V174.734H939.469L941.338 153.43Z" stroke="#000000" stroke-miterlimit="10"/>
<path d="M1015.22 153.43H1089.11L1090.98 174.734H1015.22V153.43Z" stroke="#000000" stroke-miterlimit="10"/>
<path d="M1089.11 153.43H1163L1166.74 174.734H1090.98L1089.11 153.43Z" stroke="#000000" stroke-miterlimit="10"/>
<path d="M1163 153.43H1236.89L1242.49 174.734H1166.74L1163 153.43Z" stroke="#000000" stroke-miterlimit="10"/>
<path d="M1236.89 153.43H1310.78L1318.25 174.734H1242.49L1236.89 153.43Z" stroke="#000000" stroke-miterlimit="10"/>
<path d="M1310.78 153.43H1384.67L1394 174.734H1318.25L1310.78 153.43Z" stroke="#000000" stroke-miterlimit="10"/>
<path d="M1384.67 153.43H1458.56L1469.76 174.734H1394L1384.67 153.43Z" stroke="#000000" stroke-miterlimit="10"/>
<path d="M1458.56 153.43H1532.45L1545.51 174.734H1469.76L1458.56 153.43Z" stroke="#000000" stroke-miterlimit="10"/>
<path d="M1532.45 153.43H1606.34L1621.27 174.734H1545.51L1532.45 153.43Z" stroke="#000000" stroke-miterlimit="10"/>
<path d="M1606.34 153.43H1680.23L1697.03 174.734H1621.27L1606.34 153.43Z" stroke="#000000" stroke-miterlimit="10"/>
<path d="M1680.23 153.43H1754.12L1772.79 174.734H1697.03L1680.23 153.43Z" stroke="#000000" stroke-miterlimit="10"/>
<path d="M257.658 174.727H333.41L315.748 197.139H238.023L257.658 174.727Z" stroke="#000000" stroke-miterlimit="10"/>
<path d="M333.412 174.727H409.171L393.467 197.139H315.75L333.412 174.727Z" stroke="#000000" stroke-miterlimit="10"/>
<path d="M409.173 174.727H484.933L471.185 197.139H393.469L409.173 174.727Z" stroke="#000000" stroke-miterlimit="10"/>
<path d="M484.927 174.727H560.679L548.904 197.139H471.18L484.927 174.727Z" stroke="#000000" stroke-miterlimit="10"/>
<path d="M560.681 174.727H636.44L626.623 197.139H548.906L560.681 174.727Z" stroke="#000000" stroke-miterlimit="10"/>
<path d="M636.442 174.727H712.194L704.342 197.139H626.625L636.442 174.727Z" stroke="#000000" stroke-miterlimit="10"/>
<path d="M712.196 174.727H787.956L782.069 197.139H704.344L712.196 174.727Z" stroke="#000000" stroke-miterlimit="10"/>
<path d="M787.95 174.727H863.701L859.779 197.139H782.062L787.95 174.727Z" stroke="#000000" stroke-miterlimit="10"/>
<path d="M863.703 174.727H939.463L937.498 197.139H859.781L863.703 174.727Z" stroke="#000000" stroke-miterlimit="10"/>
<path d="M939.465 174.727H1015.22V197.139H937.5L939.465 174.727Z" stroke="#000000" stroke-miterlimit="10"/>
<path d="M1015.22 174.727H1090.98L1092.94 197.139H1015.22V174.727Z" stroke="#000000" stroke-miterlimit="10"/>
<path d="M1090.98 174.727H1166.74L1170.66 197.139H1092.94L1090.98 174.727Z" stroke="#000000" stroke-miterlimit="10"/>
<path d="M1166.73 174.727H1242.49L1248.37 197.139H1170.66L1166.73 174.727Z" stroke="#000000" stroke-miterlimit="10"/>
<path d="M1242.48 174.727H1318.24L1326.1 197.139H1248.37L1242.48 174.727Z" stroke="#000000" stroke-miterlimit="10"/>
<path d="M1318.25 174.727H1394L1403.82 197.139H1326.1L1318.25 174.727Z" stroke="#000000" stroke-miterlimit="10"/>
<path d="M1394 174.727H1469.76L1481.53 197.139H1403.82L1394 174.727Z" stroke="#000000" stroke-miterlimit="10"/>
<path d="M1469.76 174.727H1545.51L1559.26 197.139H1481.53L1469.76 174.727Z" stroke="#000000" stroke-miterlimit="10"/>
<path d="M1545.51 174.727H1621.27L1636.97 197.139H1559.26L1545.51 174.727Z" stroke="#000000" stroke-miterlimit="10"/>
<path d="M1621.27 174.727H1697.02L1714.69 197.139H1636.97L1621.27 174.727Z" stroke="#000000" stroke-miterlimit="10"/>
<path d="M1697.02 174.727H1772.78L1792.41 197.139H1714.69L1697.02 174.727Z" stroke="#000000" stroke-miterlimit="10"/>
</svg>
