<svg width="38" height="36" viewBox="0 0 38 50" fill="none" xmlns="http://www.w3.org/2000/svg">
<path d="M37.6738 20.1005C38.4596 14.8466 34.4596 12.0225 28.9901 10.1385L30.7644 3.02174L26.4322 1.94226L24.705 8.87166C23.566 8.5876 22.3964 8.31995 21.234 8.05462L22.9738 1.07948L18.6443 0L16.869 7.11446C15.9265 6.89988 15.0008 6.6878 14.1027 6.46434L14.1077 6.44196L8.13354 4.9501L6.98112 9.57716C6.98112 9.57716 10.1953 10.3139 10.1275 10.3593C11.8818 10.7971 12.1991 11.9584 12.1464 12.8789L10.1252 20.9866C10.246 21.0173 10.4027 21.0616 10.5756 21.1311C10.4311 21.0952 10.2773 21.0561 10.1177 21.0178L7.28466 32.3756C7.07027 32.9085 6.52609 33.7084 5.29957 33.4047C5.34299 33.4676 2.15086 32.6189 2.15086 32.6189L0 37.5779L5.63765 38.9833C6.68645 39.2463 7.71422 39.5215 8.72635 39.7802L6.93365 46.9786L11.2608 48.0581L13.0362 40.9361C14.2183 41.2571 15.3655 41.5531 16.4886 41.8321L14.7193 48.9205L19.0517 50L20.8442 42.8151C28.2315 44.2132 33.7862 43.6495 36.1242 36.9677C38.0082 31.588 36.0304 28.4851 32.144 26.4616C34.9747 25.8087 37.1068 23.947 37.6753 20.101L37.674 20.1001L37.6738 20.1005ZM27.7757 33.9801C26.4369 39.3598 17.3792 36.4517 14.4425 35.7224L16.8215 26.1858C19.7579 26.9189 29.1749 28.3697 27.7759 33.9801H27.7757ZM29.1155 20.0225C27.8942 24.9159 20.3554 22.4298 17.9099 21.8202L20.0667 13.1711C22.5122 13.7807 30.3878 14.9184 29.1159 20.0225H29.1155Z" fill="white"/>
</svg>
