<svg width="250" height="44" viewBox="0 0 250 44" fill="none" xmlns="http://www.w3.org/2000/svg">
<path d="M43.9189 17.16L35.2309 2.20001C34.8421 1.52985 34.2826 0.973579 33.6088 0.587322C32.935 0.201065 32.1708 -0.00151857 31.3932 8.57056e-06H14.035C13.0725 0.00257566 12.1275 0.256231 11.2943 0.735673C10.4611 1.21511 9.7688 1.90358 9.28642 2.73241L0.598453 17.6924C0.210398 18.3613 0.00610352 19.12 0.00610352 19.8924C0.00610352 20.6648 0.210398 21.4235 0.598453 22.0924L9.28642 37.0744C9.76918 37.9039 10.4622 38.5928 11.2962 39.0722C12.1303 39.5517 13.0762 39.805 14.0394 39.8068H31.3932C32.1678 39.8052 32.9284 39.6012 33.5988 39.2151C34.2692 38.829 34.826 38.2744 35.2132 37.6068L43.9012 22.6468C44.3891 21.8147 44.6477 20.8692 44.6508 19.9058C44.6539 18.9424 44.4014 17.9952 43.9189 17.16ZM3.06557 19.954L4.04711 18.2776L11.8066 4.87961L16.6701 13.2748C16.897 13.6279 17.252 13.8803 17.6613 13.9794C18.0705 14.0786 18.5024 14.0168 18.867 13.8071C19.2316 13.5973 19.5009 13.2556 19.6188 12.8532C19.7366 12.4508 19.694 12.0187 19.4998 11.6468L15.5824 4.87961C15.2577 4.40058 14.8244 4.00411 14.3176 3.72211C13.8108 3.44011 13.2445 3.28046 12.6643 3.25601H30.1817L21.9448 17.4548C21.7992 17.7047 21.5904 17.9123 21.339 18.0567C21.0876 18.2011 20.8025 18.2772 20.5122 18.2776H6.02346C5.42588 18.2737 4.83781 18.4266 4.31853 18.7209C3.79924 19.0152 3.36707 19.4405 3.06557 19.954ZM30.1817 36.5552H14.6407L19.5042 28.1512C19.6232 27.9659 19.7034 27.7586 19.7397 27.5416C19.776 27.3247 19.7678 27.1026 19.7155 26.889C19.6632 26.6753 19.568 26.4743 19.4355 26.2983C19.3031 26.1222 19.1361 25.9747 18.9448 25.8646C18.7535 25.7545 18.5417 25.6842 18.3223 25.6578C18.1029 25.6314 17.8804 25.6495 17.6682 25.7111C17.4561 25.7726 17.2586 25.8763 17.0878 26.0159C16.917 26.1555 16.7764 26.3281 16.6745 26.5232L11.811 34.9272L10.8427 36.608C11.1102 36.1427 11.2628 35.6209 11.2882 35.0855C11.3135 34.55 11.2109 34.0163 10.9886 33.528L4.03827 21.5292H20.5122C20.8024 21.53 21.0873 21.6064 21.3386 21.7507C21.5899 21.8951 21.7989 22.1024 21.9448 22.352L29.2621 34.9624C29.5851 35.4347 30.015 35.8249 30.5173 36.1016C31.0195 36.3782 31.58 36.5336 32.1537 36.5552H30.1817ZM40.7842 21.5336L33.0158 34.9272L24.7612 20.7284C24.6169 20.478 24.541 20.1943 24.541 19.9056C24.541 19.6169 24.6169 19.3333 24.7612 19.0828L33.0158 4.87961L33.9841 3.20321C33.6602 3.76802 33.5055 4.41332 33.5384 5.06283C33.5713 5.71234 33.7904 6.33888 34.1698 6.86841C34.4484 7.25561 40.8018 18.2732 40.8018 18.2732H31.0262C30.5924 18.2732 30.1763 18.4447 29.8695 18.75C29.5627 19.0553 29.3903 19.4694 29.3903 19.9012C29.3903 20.333 29.5627 20.7471 29.8695 21.0524C30.1763 21.3577 30.5924 21.5292 31.0262 21.5292H38.852H38.8078C39.4054 21.5331 39.9935 21.3802 40.5127 21.0859C41.032 20.7916 41.4642 20.3663 41.7657 19.8528L40.7797 21.538L40.7842 21.5336Z" fill="white"/>
<path d="M138.623 11.0746C137.614 11.053 136.618 11.3121 135.749 11.8226C134.911 12.3377 134.16 12.9823 133.525 13.7322L133.437 13.8378H132.919L132.38 11.4706H126.756C126.548 11.4707 126.344 11.5338 126.173 11.6517C126.001 11.7696 125.87 11.9367 125.796 12.1306L124.78 14.8278H131.288C131.288 14.8278 129.25 14.8278 129.25 16.4734V25.467H126.751C126.543 25.4671 126.34 25.5302 126.168 25.6481C125.997 25.766 125.866 25.9331 125.792 26.127L124.775 28.8242H139.193C139.403 28.8248 139.608 28.7614 139.78 28.6426C139.952 28.5238 140.084 28.3553 140.157 28.1598L141.174 25.4626H133.348V17.437L133.397 17.3622C133.824 16.7127 134.349 16.1324 134.953 15.6418C135.674 15.0958 136.564 14.8186 137.469 14.8586C137.755 14.8402 138.042 14.8982 138.298 15.0266C138.555 15.155 138.772 15.3491 138.928 15.589C139.22 16.1293 139.364 16.736 139.348 17.349H142.978C142.947 15.1182 142.536 13.5034 141.797 12.5486C141.427 12.0663 140.945 11.6803 140.392 11.4236C139.839 11.1669 139.232 11.0472 138.623 11.0746Z" fill="white"/>
<path d="M160.712 19.8C159.816 19.3735 158.88 19.0375 157.917 18.7968L155.066 18.062C154.31 17.8702 153.571 17.6186 152.855 17.3096C152.152 16.9972 151.794 16.5572 151.794 15.9896C151.801 15.6604 151.911 15.3416 152.109 15.078C152.307 14.8144 152.584 14.6193 152.899 14.52C153.72 14.2149 154.593 14.0729 155.468 14.102C156.052 14.1033 156.634 14.1653 157.206 14.2868C157.772 14.4062 158.329 14.5665 158.872 14.7664C159.394 14.96 159.903 15.1756 160.376 15.4044C160.747 15.5848 161.088 15.7608 161.388 15.9324L163.073 13.2176C162.778 13.0211 162.455 12.807 162.104 12.5752C161.589 12.2573 161.041 11.9962 160.469 11.7964C159.725 11.5375 158.962 11.3374 158.187 11.198C157.181 11.0233 156.162 10.9408 155.141 10.9516C154.126 10.9451 153.115 11.0634 152.13 11.3036C151.291 11.5025 150.493 11.8465 149.773 12.32C149.149 12.7375 148.625 13.2874 148.239 13.9304C147.858 14.6002 147.667 15.3608 147.686 16.1304C147.648 17.0174 147.938 17.8876 148.5 18.5768C149.086 19.2446 149.796 19.793 150.591 20.1916C151.476 20.6381 152.411 20.9792 153.377 21.208C154.402 21.4588 155.362 21.7052 156.233 21.9472C157 22.1497 157.747 22.4206 158.466 22.7568C158.763 22.861 159.021 23.0511 159.209 23.3028C159.397 23.5545 159.504 23.8562 159.518 24.1692C159.532 24.504 159.444 24.8352 159.266 25.1194C159.088 25.4036 158.827 25.6276 158.519 25.762C157.387 26.2988 155.733 26.2944 154.155 25.9072C153.435 25.7329 152.728 25.5064 152.041 25.2296C151.418 24.9811 150.817 24.6793 150.246 24.3276C149.844 24.0768 149.508 23.848 149.229 23.6368L147.381 26.5188C148.391 27.3256 149.52 27.9727 150.728 28.4372C152.403 29.0633 154.184 29.3621 155.972 29.3172C158.514 29.3172 160.446 28.8112 161.72 27.8168C162.336 27.3396 162.827 26.7219 163.153 26.0158C163.478 25.3097 163.628 24.536 163.59 23.76C163.626 22.8915 163.338 22.0405 162.781 21.3708C162.203 20.7151 161.5 20.181 160.712 19.8Z" fill="white"/>
<path d="M183.734 24.1078C183.359 24.4142 182.958 24.688 182.536 24.9262C182.065 25.1892 181.565 25.3974 181.046 25.5466C180.443 25.7166 179.819 25.7996 179.193 25.793C178.601 25.8217 178.009 25.7159 177.464 25.4833C176.918 25.2508 176.433 24.8978 176.045 24.451C175.307 23.571 174.931 22.163 174.931 20.2578V14.8282H183.115L184.371 11.471H174.935V6.16016L171.584 7.11056C171.37 7.17169 171.182 7.3005 171.048 7.47751C170.914 7.65453 170.841 7.87013 170.841 8.09176V11.4842H169.245C169.037 11.4842 168.833 11.5473 168.662 11.6652C168.491 11.7831 168.359 11.9502 168.286 12.1442L167.269 14.8414H173.039C173.039 14.8414 170.828 14.8414 170.828 16.5706V20.2402C170.828 23.4038 171.487 25.7358 172.791 27.1658C174.095 28.5958 176.054 29.313 178.649 29.313C179.393 29.3099 180.134 29.2272 180.86 29.0666C181.602 28.9064 182.327 28.6781 183.026 28.3846C183.7 28.1022 184.348 27.7621 184.963 27.3682C185.449 27.0626 185.895 26.6975 186.289 26.2814L184.437 23.5138L183.734 24.1078Z" fill="white"/>
<path d="M204.872 25.1944C204.849 24.901 204.813 24.5842 204.766 24.244C204.716 23.6045 204.691 23.0281 204.691 22.5148C204.691 21.8372 204.735 21.054 204.819 20.1872C204.903 19.3204 204.943 18.304 204.943 17.1072C204.953 16.2628 204.836 15.4218 204.594 14.6124C204.38 13.9166 204.003 13.2816 203.493 12.76C202.926 12.2087 202.237 11.7973 201.481 11.5588C200.48 11.2461 199.435 11.0975 198.386 11.1188C196.9 11.0899 195.416 11.2376 193.965 11.5588C192.924 11.8075 191.906 12.1385 190.918 12.5488L191.856 15.6288C192.579 15.3232 193.316 15.0545 194.066 14.8236C195.163 14.4919 196.303 14.3301 197.449 14.344C198.333 14.2872 199.212 14.5155 199.956 14.9952C200.557 15.4352 200.84 16.1832 200.84 17.1952V17.864C200.841 18.1283 200.815 18.3921 200.765 18.6516L200.729 18.92H200.469C199.77 18.873 199.181 18.8246 198.7 18.7748C198.231 18.7264 197.785 18.7044 197.374 18.7044C196.281 18.6941 195.191 18.8063 194.124 19.0388C193.255 19.2229 192.427 19.5613 191.679 20.0376C191.036 20.4566 190.515 21.0361 190.167 21.7184C189.801 22.4892 189.622 23.3347 189.645 24.1868C189.614 24.8559 189.73 25.5237 189.986 26.1432C190.242 26.7628 190.631 27.319 191.126 27.7728C192.117 28.6528 193.483 29.1324 195.194 29.1324C196.386 29.1914 197.572 28.9268 198.625 28.3668C199.405 27.9129 200.072 27.2885 200.575 26.5408L200.663 26.4044H201.251L201.724 28.8464H205.752C205.991 28.8464 206.223 28.7633 206.407 28.6115C206.591 28.4596 206.716 28.2486 206.76 28.0148L207.238 25.4892H204.916L204.872 25.1944ZM200.813 23.6676L200.778 23.7336C200.447 24.3051 199.994 24.7976 199.452 25.1768C198.631 25.6864 197.671 25.9265 196.706 25.8632C195.716 25.8632 195.013 25.6564 194.557 25.2252C194.328 24.9947 194.148 24.7192 194.031 24.4163C193.914 24.1133 193.861 23.7895 193.876 23.4652C193.866 23.0299 194 22.6034 194.257 22.2508C194.51 21.9172 194.839 21.6474 195.216 21.4632C195.623 21.2565 196.058 21.1083 196.507 21.0232C197.493 20.86 198.497 20.8466 199.487 20.9836C199.973 21.0452 200.332 21.098 200.579 21.1464L200.818 21.1948V23.6632L200.813 23.6676Z" fill="white"/>
<path d="M221.439 19.36L228.456 11.4796H223.721L217.823 18.612H216.302V4.29004H211.226C211.018 4.29006 210.814 4.35323 210.643 4.47113C210.471 4.58903 210.34 4.75608 210.266 4.95004L209.25 7.64724H214.193C214.193 7.64724 212.207 7.64724 212.207 9.09044V28.8244H216.302V21.3928H217.999L224.189 28.8244H227.62C227.83 28.825 228.035 28.7616 228.207 28.6428C228.379 28.524 228.511 28.3555 228.584 28.16L229.601 25.4628H226.4L221.439 19.36Z" fill="white"/>
<path d="M96.9603 11.4707C96.743 11.4706 96.5313 11.5391 96.3557 11.6664C96.1801 11.7937 96.0497 11.9733 95.9832 12.1791L92.2648 22.4839H91.5928L86.632 11.4839H83.0242C82.8158 11.4839 82.6124 11.5471 82.441 11.665C82.2697 11.7829 82.1384 11.9499 82.0648 12.1439L81.0479 14.8411H86.0838C86.0838 14.8411 83.6786 14.8411 84.5938 17.0411L89.6828 28.8243H93.9449L100.608 11.4663L96.9603 11.4707Z" fill="white"/>
<path d="M75.9324 12.5092C75.1552 11.9501 74.277 11.5452 73.3459 11.3168C71.2044 10.7812 68.9543 10.859 66.8553 11.5412C65.7536 11.9023 64.739 12.4866 63.8753 13.2572C63.0149 14.0558 62.3404 15.0319 61.899 16.1172C61.386 17.3983 61.1365 18.7688 61.165 20.1476C61.1429 21.4622 61.3617 22.7698 61.8106 24.0064C62.2099 25.0973 62.8503 26.0851 63.6844 26.8969C64.5185 27.7086 65.525 28.3237 66.6298 28.6968C67.9266 29.1336 69.2888 29.3464 70.6577 29.326C71.542 29.326 75.5742 29.1764 78.6648 26.9764L78.0944 24.1076C75.9544 25.4538 73.4768 26.1735 70.9451 26.1844C70.2371 26.1937 69.5305 26.1184 68.8405 25.96C68.2014 25.8099 67.5947 25.546 67.0499 25.1812C66.5206 24.8221 66.0818 24.3463 65.7677 23.7908C65.4246 23.1517 65.244 22.4386 65.2415 21.714V21.4104H78.258C78.4549 20.4086 78.5585 19.3908 78.5675 18.37C78.6122 17.1299 78.3575 15.8972 77.8247 14.7752C77.3802 13.8833 76.7322 13.1073 75.9324 12.5092ZM74.8182 18.5768H65.3255L65.3521 18.26C65.3963 17.6398 65.5823 17.0378 65.8959 16.5C66.1957 15.9851 66.5973 15.536 67.0764 15.18C67.5561 14.8267 68.0929 14.5573 68.6637 14.3836C69.2657 14.2021 69.8916 14.1116 70.5206 14.1152C71.9443 14.1152 73.032 14.498 73.7482 15.2504C74.492 16.0834 74.8778 17.1735 74.8226 18.2864L74.8182 18.5768Z" fill="white"/>
<path d="M117.913 12.5092C117.136 11.9501 116.258 11.5452 115.327 11.3168C113.185 10.7812 110.935 10.859 108.836 11.5412C107.734 11.9023 106.72 12.4866 105.856 13.2572C104.988 14.0523 104.306 15.027 103.858 16.1128C103.345 17.3939 103.095 18.7644 103.124 20.1432C103.102 21.4578 103.32 22.7654 103.769 24.002C104.171 25.0947 104.814 26.0837 105.651 26.8956C106.488 27.7075 107.498 28.3216 108.606 28.6924C109.903 29.1292 111.265 29.342 112.634 29.3216C113.518 29.3216 117.551 29.172 120.641 26.972L120.084 24.112C117.944 25.4582 115.466 26.1779 112.935 26.1888C112.225 26.1927 111.516 26.1115 110.826 25.9468C110.187 25.7967 109.58 25.5328 109.035 25.168C108.502 24.8045 108.062 24.3224 107.749 23.76C107.405 23.1208 107.225 22.4078 107.222 21.6832V21.3796H120.261C120.458 20.3778 120.561 19.36 120.57 18.3392C120.61 17.1028 120.353 15.8748 119.819 14.7576C119.368 13.8707 118.716 13.1008 117.913 12.5092ZM116.799 18.5768H107.306L107.333 18.26C107.377 17.6398 107.563 17.0378 107.877 16.5C108.176 15.9851 108.578 15.536 109.057 15.18C109.537 14.8267 110.074 14.5573 110.645 14.3836C111.246 14.2021 111.872 14.1116 112.501 14.1152C113.925 14.1152 115.013 14.498 115.729 15.2504C116.473 16.0834 116.859 17.1734 116.803 18.2864L116.799 18.5768Z" fill="white"/>
<path d="M246.95 12.5092C246.173 11.9501 245.295 11.5452 244.364 11.3168C242.222 10.7812 239.972 10.859 237.873 11.5412C236.772 11.9023 235.757 12.4866 234.893 13.2572C234.025 14.0523 233.343 15.027 232.895 16.1128C232.382 17.3939 232.132 18.7644 232.161 20.1432C232.139 21.4578 232.358 22.7654 232.806 24.002C233.208 25.096 233.851 26.0861 234.689 26.8989C235.527 27.7116 236.538 28.3261 237.648 28.6968C238.945 29.1336 240.307 29.3464 241.676 29.326C242.56 29.326 246.592 29.1764 249.683 26.9764L249.112 24.1076C246.972 25.4538 244.495 26.1735 241.963 26.1844C241.253 26.1883 240.545 26.1071 239.854 25.9424C239.215 25.7923 238.608 25.5284 238.063 25.1636C237.534 24.8045 237.095 24.3287 236.781 23.7732C236.438 23.1341 236.257 22.421 236.255 21.6964V21.3928H249.302C249.499 20.391 249.603 19.3732 249.612 18.3524C249.657 17.1123 249.402 15.8796 248.869 14.7576C248.415 13.8693 247.758 13.0992 246.95 12.5092ZM245.827 18.5768H236.343L236.37 18.26C236.414 17.6398 236.6 17.0378 236.914 16.5C237.214 15.9851 237.615 15.536 238.094 15.18C238.574 14.8267 239.111 14.5573 239.682 14.3836C240.284 14.2021 240.91 14.1116 241.539 14.1152C242.962 14.1152 244.05 14.498 244.766 15.2504C245.51 16.0834 245.896 17.1735 245.841 18.2864L245.827 18.5768Z" fill="white"/>
</svg>
