<svg width="159" height="40" viewBox="0 0 159 40" fill="none" xmlns="http://www.w3.org/2000/svg">
  <path fill-rule="evenodd" clip-rule="evenodd"
    d="M8.70913 15.6897C10.5266 9.9484 15.8788 5.78882 22.1984 5.78882C30.0141 5.78882 36.35 12.1513 36.35 19.9996C36.35 27.2905 30.8823 33.2988 23.8399 34.1156V29.6405C26.9271 29.1153 29.5202 27.133 30.8924 24.4234H26.9714C25.7847 25.712 24.0862 26.5189 22.1998 26.5189C18.612 26.5189 15.7036 23.6001 15.7036 19.9995C15.7036 16.399 18.612 13.4804 22.1998 13.4804C24.1422 13.4804 25.8857 14.336 27.0763 15.6923H30.9503C29.3631 12.4513 26.0412 10.2207 22.1998 10.2207C16.8181 10.2207 12.4555 14.5989 12.4555 19.9995C12.4555 24.8457 15.9683 28.8686 20.5781 29.6435V34.118C15.0188 33.4817 10.4375 29.6109 8.74643 24.4258H5.36187C7.31359 31.9321 14.1118 37.4716 22.1984 37.4716C31.808 37.4716 39.5982 29.6493 39.5982 19.9996C39.5981 10.3499 31.8078 2.52734 22.1984 2.52734C14.0699 2.52734 7.24328 8.12434 5.33203 15.6897H8.70913ZM55.7175 26.4291H51.9285V20.8054L53.0095 20.7507H55.2783C56.4496 20.7326 57.3558 20.9898 57.9964 21.5226C58.6552 22.0372 58.9849 22.7538 58.9849 23.6726C58.9849 24.518 58.6918 25.1888 58.1062 25.6848C57.5204 26.1809 56.7243 26.4291 55.7175 26.4291ZM59.3697 19.3212C59.8857 18.9786 60.3156 18.5824 60.6597 18.1323C61.2819 17.3238 61.5932 16.4143 61.5932 15.4036C61.5932 14.209 61.3277 13.2168 60.7968 12.4268C60.266 11.6182 59.5154 11.0117 58.5455 10.6075C57.5937 10.1848 56.4587 9.97349 55.141 9.97349L51.9285 10.01V10.0011H48.7986V29.2955H55.9646C57.2458 29.2955 58.3532 29.0842 59.2867 28.6615C60.2202 28.239 60.9434 27.6234 61.456 26.8148C61.9685 26.0063 62.2246 25.0323 62.2246 23.8931C62.2246 22.5885 61.8769 21.5226 61.1815 20.6958C60.7114 20.1369 60.1075 19.6787 59.3697 19.3212ZM51.9285 12.6196H54.9762C56.0378 12.6013 56.8617 12.831 57.4473 13.3086C58.0512 13.7865 58.3532 14.4665 58.3532 15.3483C58.3532 16.212 58.0878 16.8918 57.5571 17.388C57.0446 17.8659 56.3307 18.1049 55.4155 18.1049H51.9285V12.6196ZM74.6474 27.8264L74.7252 29.2954H77.6081L77.6904 21.7433C77.6904 20.3098 77.4708 19.1062 77.0314 18.1323C76.5922 17.1583 75.924 16.4234 75.027 15.9273C74.1484 15.431 73.0411 15.183 71.705 15.183C70.6615 15.183 69.7556 15.3392 68.9866 15.6517C68.2364 15.9641 67.614 16.3865 67.1199 16.9196C66.6255 17.4524 66.2228 18.0219 65.9116 18.6285L68.7121 19.6207C69.0416 19.0511 69.4535 18.6285 69.9477 18.3528C70.4418 18.0772 71.0094 17.9392 71.65 17.9392C72.3455 17.9392 72.9039 18.1047 73.3248 18.4355C73.7641 18.7662 74.0845 19.2442 74.2857 19.8688C74.393 20.2013 74.4715 20.5781 74.5217 20.9989H71.101C69.3803 20.9989 68.035 21.3757 67.0649 22.129C66.113 22.8826 65.6371 23.9757 65.6371 25.4091C65.6371 26.7504 66.0856 27.7888 66.9825 28.5236C67.8977 29.2586 69.1789 29.6264 70.8264 29.6264C72.492 29.6264 73.7183 29.0934 74.5054 28.0274C74.5545 27.9617 74.6017 27.8946 74.6474 27.8264ZM74.588 23.5899V23.3694H72.0893C70.8629 23.3694 70.0027 23.5439 69.5084 23.893C69.0142 24.2237 68.7671 24.7018 68.7671 25.3265C68.7671 25.8592 68.9777 26.282 69.3987 26.5944C69.8379 26.8882 70.4418 27.0352 71.2106 27.0352C71.888 27.0352 72.4736 26.8792 72.9679 26.5666C73.4805 26.236 73.8739 25.8133 74.1484 25.2988C74.4413 24.7659 74.588 24.1963 74.588 23.5899ZM82.1791 29.2954V10.0011H85.2539V17.5268C85.6237 16.947 86.072 16.4689 86.5991 16.0927C87.4413 15.486 88.4389 15.183 89.592 15.183C90.8367 15.183 91.9166 15.486 92.8319 16.0927C93.7655 16.6807 94.4883 17.5168 95.0009 18.6008C95.5318 19.6665 95.7971 20.9345 95.7971 22.4045C95.7971 23.8563 95.5318 25.1242 95.0009 26.2082C94.4883 27.2927 93.7655 28.1379 92.8319 28.7443C91.9166 29.3324 90.8367 29.6264 89.592 29.6264C88.4389 29.6264 87.4413 29.3324 86.5991 28.7443C86.0566 28.3447 85.5975 27.8415 85.2216 27.2347L85.0893 29.2954H82.1791ZM85.6933 24.6924C85.4004 24.0308 85.2539 23.2683 85.2539 22.4045C85.2539 21.5409 85.4004 20.7785 85.6933 20.1168C86.0044 19.4554 86.4347 18.9409 86.9838 18.5733C87.5328 18.2057 88.1552 18.0219 88.8508 18.0219C89.6012 18.0219 90.2602 18.2057 90.8275 18.5733C91.3951 18.9409 91.8344 19.4554 92.1455 20.1168C92.475 20.7785 92.6396 21.5409 92.6396 22.4045C92.6396 23.2683 92.4657 24.0308 92.1181 24.6924C91.7888 25.354 91.34 25.8777 90.7729 26.2634C90.2053 26.631 89.5556 26.8148 88.8233 26.8148C88.1275 26.8148 87.5054 26.631 86.9564 26.2634C86.4254 25.8777 86.0044 25.354 85.6933 24.6924ZM99.9754 34.8909C100.525 35.0564 101.019 35.1391 101.458 35.1391C102.373 35.1391 103.124 34.9553 103.71 34.5877C104.295 34.2386 104.78 33.7333 105.165 33.0716C105.567 32.4102 105.961 31.6384 106.345 30.7563L112.715 15.5138H109.365L105.298 25.7089L101.101 15.5138H97.7515L103.855 29.1901L103.106 30.9494C102.923 31.3902 102.675 31.7211 102.364 31.9416C102.071 32.1806 101.705 32.2998 101.266 32.2998C101.083 32.2998 100.845 32.245 100.552 32.1345C100.259 32.0426 99.9388 31.9141 99.5911 31.7486L98.4377 34.257C98.9306 34.5137 99.4452 34.7257 99.9754 34.8909ZM115.919 29.2954V10.0011H118.994V29.2954H115.919ZM126.416 28.7166C127.495 29.323 128.722 29.6264 130.095 29.6264C131.449 29.6264 132.658 29.323 133.719 28.7166C134.781 28.092 135.605 27.2375 136.191 26.1534C136.776 25.0691 137.069 23.8195 137.069 22.4045C137.069 20.9897 136.767 19.7401 136.162 18.6561C135.578 17.5718 134.753 16.7266 133.692 16.1201C132.63 15.4954 131.413 15.183 130.041 15.183C128.667 15.183 127.45 15.4954 126.388 16.1201C125.326 16.7266 124.494 17.5718 123.89 18.6561C123.304 19.7401 123.011 20.9897 123.011 22.4045C123.011 23.8195 123.313 25.0691 123.918 26.1534C124.521 27.2375 125.355 28.092 126.416 28.7166ZM132.099 26.236C131.513 26.6035 130.846 26.7873 130.095 26.7873C129.327 26.7873 128.64 26.6035 128.036 26.236C127.45 25.85 126.984 25.3357 126.636 24.6924C126.307 24.0308 126.141 23.2683 126.141 22.4045C126.141 21.5409 126.307 20.7785 126.636 20.1168C126.965 19.4554 127.423 18.9409 128.008 18.5733C128.594 18.2057 129.271 18.0219 130.041 18.0219C130.809 18.0219 131.486 18.2149 132.072 18.6008C132.658 18.9684 133.115 19.4829 133.444 20.1444C133.792 20.7877 133.966 21.5409 133.966 22.4045C133.966 23.2683 133.802 24.0308 133.473 24.6924C133.142 25.3357 132.685 25.85 132.099 26.236ZM141.106 15.5138H143.989L144.135 17.4304C144.498 16.8411 144.943 16.3675 145.471 16.0099C146.258 15.4586 147.193 15.183 148.272 15.183C149.938 15.183 151.219 15.6976 152.116 16.7266C153.032 17.7372 153.488 19.2991 153.488 21.4123V29.2954H150.414V22.2393C150.414 21.1367 150.287 20.2915 150.029 19.7033C149.792 19.097 149.444 18.6743 148.986 18.4355C148.547 18.1966 148.025 18.0772 147.421 18.0772C146.396 18.0588 145.6 18.3987 145.032 19.097C144.465 19.7952 144.181 20.7968 144.181 22.1015V29.2954H141.106V15.5138Z"
    fill="#0A1418" />
  <path
    d="M25.7645 19.9921C25.7645 21.9716 24.1662 23.5762 22.1947 23.5762C20.2233 23.5762 18.625 21.9716 18.625 19.9921C18.625 18.0128 20.2233 16.4082 22.1947 16.4082C24.1662 16.4082 25.7645 18.0128 25.7645 19.9921Z"
    fill="#F3823A" />
</svg>
  