<svg width="126" height="202" viewBox="0 0 126 202" fill="none" xmlns="http://www.w3.org/2000/svg">
<path d="M54.1028 201.107L15.45 178.644L15.3257 135.929L53.9785 158.392L54.1028 201.107Z" fill="#6E7578"/>
<path d="M69.634 103.656L30.9812 81.1927L86.5948 49.0845L125.248 71.5478L69.634 103.656Z" fill="#B0BCC2"/>
<path d="M39.3795 166.823L0.726682 144.36L0.5 63.3947L39.1528 85.8543L39.3795 166.823Z" fill="#6E7578"/>
<path d="M39.1528 85.8543L0.5 63.3946L14.9637 55.0403L53.6165 77.5036L39.1528 85.8543Z" fill="#B0BCC2"/>
<path d="M92.858 23.3525L92.975 64.327L69.561 77.8438L69.6341 103.656L125.248 71.5479L125.5 159.884L54.1028 201.107L53.9785 158.392L39.3795 166.823L39.1528 85.8544L53.6166 77.5037L53.5288 46.0609L92.858 23.3525Z" fill="#E4E7DB"/>
<path d="M53.6165 77.5036L14.9637 55.0403L14.876 23.6011L53.5288 46.0607L53.6165 77.5036Z" fill="#6E7578"/>
<path d="M53.5288 46.0608L14.876 23.6011L54.2051 0.892822L92.8579 23.3525L53.5288 46.0608Z" fill="#B0BCC2"/>
</svg>
