<svg width="722" height="835" viewBox="0 0 722 835" fill="none" xmlns="http://www.w3.org/2000/svg">
<path d="M4.86105 49.6816L85.4447 2.85595C88.4865 1.08845 92.2436 1.09288 95.2812 2.86754L175.403 49.6779C178.401 51.4295 180.244 54.6408 180.244 58.1131V150.909C180.244 154.399 178.382 157.625 175.359 159.37L95.0061 205.752C91.9838 207.497 88.2604 207.497 85.2382 205.752L4.8854 159.37C1.86234 157.625 0 154.399 0 150.909V58.1284C0 54.6479 1.85172 51.4303 4.86105 49.6816Z" stroke="#565656" stroke-width="0.976934"/>
<path d="M185.107 49.6816L265.691 2.85595C268.733 1.08845 272.49 1.09288 275.527 2.86754L355.649 49.6779C358.647 51.4295 360.49 54.6408 360.49 58.1131V150.909C360.49 154.399 358.628 157.625 355.605 159.37L275.252 205.752C272.23 207.497 268.507 207.497 265.484 205.752L185.131 159.37C182.108 157.625 180.246 154.399 180.246 150.909V58.1284C180.246 54.6479 182.098 51.4303 185.107 49.6816Z" stroke="#565656" stroke-width="0.976934"/>
<path d="M365.349 49.6816L445.933 2.85595C448.975 1.08845 452.732 1.09288 455.769 2.86754L535.891 49.6779C538.889 51.4295 540.733 54.6408 540.733 58.1131V150.909C540.733 154.399 538.87 157.625 535.847 159.37L455.494 205.752C452.472 207.497 448.749 207.497 445.726 205.752L365.374 159.37C362.351 157.625 360.488 154.399 360.488 150.909V58.1284C360.488 54.6479 362.34 51.4303 365.349 49.6816Z" stroke="#565656" stroke-width="0.976934"/>
<path d="M545.595 49.6816L626.179 2.85595C629.221 1.08845 632.978 1.09288 636.016 2.86754L716.137 49.6779C719.136 51.4295 720.979 54.6408 720.979 58.1131V150.909C720.979 154.399 719.116 157.625 716.093 159.37L635.74 205.752C632.718 207.497 628.995 207.497 625.973 205.752L545.62 159.37C542.597 157.625 540.734 154.399 540.734 150.909V58.1284C540.734 54.6479 542.586 51.4303 545.595 49.6816Z" stroke="#565656" stroke-width="0.976934"/>
<path d="M4.86105 258.256L85.4447 211.43C88.4865 209.663 92.2436 209.667 95.2812 211.442L175.403 258.252C178.401 260.004 180.244 263.215 180.244 266.687V359.483C180.244 362.974 178.382 366.199 175.359 367.944L95.0061 414.326C91.9838 416.071 88.2604 416.071 85.2382 414.326L4.8854 367.944C1.86234 366.199 0 362.974 0 359.483V266.703C0 263.222 1.85172 260.004 4.86105 258.256Z" stroke="#565656" stroke-width="0.976934"/>
<path d="M185.103 258.256L265.687 211.43C268.729 209.663 272.486 209.667 275.523 211.442L355.645 258.252C358.643 260.004 360.486 263.215 360.486 266.687V359.483C360.486 362.974 358.624 366.199 355.601 367.944L275.248 414.326C272.226 416.071 268.503 416.071 265.48 414.326L185.128 367.944C182.105 366.199 180.242 362.974 180.242 359.483V266.703C180.242 263.222 182.094 260.004 185.103 258.256Z" stroke="#565656" stroke-width="0.976934"/>
<path d="M365.349 258.256L445.933 211.43C448.975 209.663 452.732 209.667 455.769 211.442L535.891 258.252C538.889 260.004 540.733 263.215 540.733 266.687V359.483C540.733 362.974 538.87 366.199 535.847 367.944L455.494 414.326C452.472 416.071 448.749 416.071 445.726 414.326L365.374 367.944C362.351 366.199 360.488 362.974 360.488 359.483V266.703C360.488 263.222 362.34 260.004 365.349 258.256Z" stroke="#565656" stroke-width="0.976934"/>
<path d="M545.595 258.256L626.179 211.43C629.221 209.663 632.978 209.667 636.016 211.442L716.137 258.252C719.136 260.004 720.979 263.215 720.979 266.687V359.483C720.979 362.974 719.116 366.199 716.093 367.944L635.74 414.326C632.718 416.071 628.995 416.071 625.973 414.326L545.62 367.944C542.597 366.199 540.734 362.974 540.734 359.483V266.703C540.734 263.222 542.586 260.004 545.595 258.256Z" stroke="#565656" stroke-width="0.976934"/>
<path d="M4.86105 466.834L85.4447 420.008C88.4865 418.241 92.2436 418.245 95.2812 420.02L175.403 466.83C178.401 468.582 180.244 471.793 180.244 475.265V568.061C180.244 571.552 178.382 574.777 175.359 576.522L95.0061 622.905C91.9838 624.649 88.2604 624.649 85.2382 622.905L4.8854 576.522C1.86234 574.777 0 571.552 0 568.061V475.281C0 471.8 1.85172 468.583 4.86105 466.834Z" stroke="#565656" stroke-width="0.976934"/>
<path d="M185.103 466.834L265.687 420.008C268.729 418.241 272.486 418.245 275.523 420.02L355.645 466.83C358.643 468.582 360.486 471.793 360.486 475.265V568.061C360.486 571.552 358.624 574.777 355.601 576.522L275.248 622.905C272.226 624.649 268.503 624.649 265.48 622.905L185.128 576.522C182.105 574.777 180.242 571.552 180.242 568.061V475.281C180.242 471.8 182.094 468.583 185.103 466.834Z" stroke="#565656" stroke-width="0.976934"/>
<path d="M365.349 466.834L445.933 420.008C448.975 418.241 452.732 418.245 455.769 420.02L535.891 466.83C538.889 468.582 540.733 471.793 540.733 475.265V568.061C540.733 571.552 538.87 574.777 535.847 576.522L455.494 622.905C452.472 624.649 448.749 624.649 445.726 622.905L365.374 576.522C362.351 574.777 360.488 571.552 360.488 568.061V475.281C360.488 471.8 362.34 468.583 365.349 466.834Z" stroke="#565656" stroke-width="0.976934"/>
<path d="M545.595 466.834L626.179 420.008C629.221 418.241 632.978 418.245 636.016 420.02L716.137 466.83C719.136 468.582 720.979 471.793 720.979 475.265V568.061C720.979 571.552 719.116 574.777 716.093 576.522L635.74 622.905C632.718 624.649 628.995 624.649 625.973 622.905L545.62 576.522C542.597 574.777 540.734 571.552 540.734 568.061V475.281C540.734 471.8 542.586 468.583 545.595 466.834Z" stroke="#565656" stroke-width="0.976934"/>
<path d="M4.86105 675.408L85.4447 628.583C88.4865 626.815 92.2436 626.819 95.2812 628.594L175.403 675.404C178.401 677.156 180.244 680.367 180.244 683.84V776.635C180.244 780.126 178.382 783.351 175.359 785.096L95.0061 831.479C91.9838 833.223 88.2604 833.223 85.2382 831.479L4.8854 785.096C1.86234 783.351 0 780.126 0 776.635V683.855C0 680.374 1.85172 677.157 4.86105 675.408Z" stroke="#565656" stroke-width="0.976934"/>
<path d="M185.103 675.408L265.687 628.583C268.729 626.815 272.486 626.819 275.523 628.594L355.645 675.404C358.643 677.156 360.486 680.367 360.486 683.84V776.635C360.486 780.126 358.624 783.351 355.601 785.096L275.248 831.479C272.226 833.223 268.503 833.223 265.48 831.479L185.128 785.096C182.105 783.351 180.242 780.126 180.242 776.635V683.855C180.242 680.374 182.094 677.157 185.103 675.408Z" stroke="#565656" stroke-width="0.976934"/>
<path d="M365.349 675.408L445.933 628.583C448.975 626.815 452.732 626.819 455.769 628.594L535.891 675.404C538.889 677.156 540.733 680.367 540.733 683.84V776.635C540.733 780.126 538.87 783.351 535.847 785.096L455.494 831.479C452.472 833.223 448.749 833.223 445.726 831.479L365.374 785.096C362.351 783.351 360.488 780.126 360.488 776.635V683.855C360.488 680.374 362.34 677.157 365.349 675.408Z" stroke="#565656" stroke-width="0.976934"/>
<path d="M545.595 675.408L626.179 628.583C629.221 626.815 632.978 626.819 636.016 628.594L716.137 675.404C719.136 677.156 720.979 680.367 720.979 683.84V776.635C720.979 780.126 719.116 783.351 716.093 785.096L635.74 831.479C632.718 833.223 628.995 833.223 625.973 831.479L545.62 785.096C542.597 783.351 540.734 780.126 540.734 776.635V683.855C540.734 680.374 542.586 677.157 545.595 675.408Z" stroke="#565656" stroke-width="0.976934"/>
</svg>
