<svg width="164" height="40" viewBox="0 0 164 40" fill="none" xmlns="http://www.w3.org/2000/svg">
    <path
        d="M0 3.15782C0 2.28823 0.308554 1.54393 0.926343 0.926293C1.54413 0.308651 2.28718 0 3.15683 0C4.02649 0 4.77021 0.30933 5.38766 0.926293C6.00443 1.54393 6.31401 2.28823 6.31401 3.15782V7.36824C6.31401 7.70507 6.42568 7.96483 6.6504 8.14717C6.87477 8.33019 7.1134 8.42085 7.36595 8.42085H13.6796C14.5493 8.42085 15.293 8.73018 15.9104 9.34714C16.5272 9.96478 16.8368 10.7091 16.8368 11.5787C16.8368 11.888 16.9345 12.1406 17.1311 12.3365C17.3273 12.5331 17.5798 12.6313 17.8887 12.6313C18.7584 12.6313 19.5021 12.9406 20.1196 13.5576C20.7363 14.1752 21.0456 14.9195 21.0456 15.7891V24.2099C21.0456 25.0802 20.7367 25.8245 20.1196 26.4415C19.5024 27.0584 18.758 27.3678 17.8887 27.3678C17.6362 27.3678 17.3976 27.4591 17.1732 27.6414C16.9485 27.8244 16.8368 28.0835 16.8368 28.4204C16.8368 29.2906 16.5276 30.0349 15.9104 30.6519C15.2933 31.2688 14.5489 31.5782 13.6796 31.5782H3.15683C2.28718 31.5782 1.54311 31.2695 0.926343 30.6519C0.308893 30.0349 0 29.2906 0 28.4204V3.15782ZM13.6796 25.2625C13.9322 25.2625 14.1705 25.1783 14.3952 25.0099C14.6195 24.8415 14.7319 24.575 14.7319 24.2099V15.7891C14.7319 15.509 14.6331 15.2628 14.4373 15.0523C14.2407 14.8417 13.9882 14.7365 13.6796 14.7365H7.36595C7.05705 14.7365 6.8045 14.8489 6.6083 15.0733C6.41177 15.2984 6.31401 15.5365 6.31401 15.7891V24.2099C6.31401 24.5193 6.41924 24.7719 6.62969 24.9678C6.84015 25.1644 7.08556 25.2625 7.36628 25.2625H13.6796Z"
        fill="white" />
    <path
        d="M21.0485 20.0005C21.0485 19.1309 21.357 18.3867 21.9748 17.769C22.5926 17.1514 23.3356 16.8427 24.2053 16.8427H34.7281C34.9528 16.8427 35.1843 16.7521 35.4229 16.569C35.6609 16.3867 35.781 16.1269 35.781 15.7901C35.781 15.4533 35.6609 15.1942 35.4229 15.0112C35.1843 14.8288 34.9528 14.7375 34.7281 14.7375H24.2053C23.3356 14.7375 22.5916 14.4289 21.9748 13.8112C21.3574 13.1943 21.0485 12.45 21.0485 11.5797C21.0485 10.7094 21.357 9.96581 21.9748 9.34817C22.5926 8.73053 23.3356 8.42188 24.2053 8.42188H34.7281C35.5977 8.42188 36.3418 8.73121 36.9589 9.34817C37.576 9.96581 37.8853 10.7101 37.8853 11.5797C37.8853 11.9165 38.0047 12.1763 38.2434 12.3586C38.4813 12.5416 38.7128 12.6323 38.9375 12.6323C39.8072 12.6323 40.5513 12.9416 41.1684 13.5586C41.7855 14.1762 42.0947 14.9205 42.0947 15.7901V28.4214C42.0947 29.2916 41.7858 30.0359 41.1684 30.6529C40.5513 31.2705 39.8072 31.5792 38.9375 31.5792H28.4148C27.5448 31.5792 26.8007 31.2705 26.1839 30.6529C25.5665 30.0359 25.2579 29.2916 25.2579 28.4214C25.2579 28.1127 25.1456 27.8601 24.9212 27.6635C24.6965 27.4676 24.4582 27.3688 24.2056 27.3688C23.336 27.3688 22.5919 27.0601 21.9751 26.4425C21.3577 25.8255 21.0488 25.0812 21.0488 24.211V20.0005H21.0485ZM34.7281 25.2636C34.9806 25.2636 35.2186 25.1654 35.444 24.9688C35.668 24.7729 35.7807 24.5203 35.7807 24.211C35.7807 23.9583 35.6819 23.7203 35.4857 23.4952C35.2895 23.2707 35.037 23.1584 34.7281 23.1584H28.4144C28.1055 23.1584 27.853 23.2707 27.6568 23.4952C27.4602 23.7203 27.3625 23.9583 27.3625 24.211C27.3625 24.5203 27.4742 24.7729 27.6989 24.9688C27.9232 25.1654 28.1619 25.2636 28.4144 25.2636H34.7281Z"
        fill="white" />
    <path
        d="M42.095 3.15782C42.095 2.28823 42.4032 1.54393 43.021 0.926293C43.6388 0.308651 44.3819 0 45.2519 0C46.1219 0 46.8652 0.30933 47.4827 0.926293C48.0995 1.54393 48.4087 2.28823 48.4087 3.15782V7.36824C48.4087 7.70507 48.5207 7.96483 48.7454 8.14717C48.9698 8.33019 49.2084 8.42085 49.461 8.42085H55.7747C56.6443 8.42085 57.388 8.73018 58.0055 9.34714C58.6222 9.96478 58.9315 10.7091 58.9315 11.5787C58.9315 11.888 59.0296 12.1406 59.2261 12.3365C59.422 12.5331 59.6745 12.6313 59.9838 12.6313C60.8534 12.6313 61.5971 12.9406 62.2146 13.5576C62.8314 14.1752 63.1406 14.9195 63.1406 15.7891V24.2099C63.1406 25.0802 62.8317 25.8245 62.2146 26.4415C61.5975 27.0584 60.8531 27.3678 59.9838 27.3678C59.7312 27.3678 59.4926 27.4591 59.2682 27.6414C59.0435 27.8244 58.9315 28.0835 58.9315 28.4204C58.9315 29.2906 58.6226 30.0349 58.0055 30.6519C57.3884 31.2688 56.644 31.5782 55.7747 31.5782H45.2519C44.3819 31.5782 43.6378 31.2695 43.021 30.6519C42.4036 30.0349 42.095 29.2906 42.095 28.4204V3.15782ZM55.7747 25.2625C56.0272 25.2625 56.2651 25.1783 56.4902 25.0099C56.7142 24.8415 56.8269 24.575 56.8269 24.2099V15.7891C56.8269 15.509 56.7281 15.2628 56.5323 15.0523C56.3358 14.8417 56.0832 14.7365 55.7747 14.7365H49.461C49.1517 14.7365 48.8992 14.8489 48.7033 15.0733C48.5068 15.2984 48.4087 15.5365 48.4087 15.7891V24.2099C48.4087 24.5193 48.5143 24.7719 48.7247 24.9678C48.9352 25.1644 49.1806 25.2625 49.4613 25.2625H55.7747Z"
        fill="white" />
    <path
        d="M76.8172 33.6844C77.1258 33.6844 77.3784 33.5856 77.5749 33.3897C77.7708 33.1931 77.8695 32.9405 77.8695 32.6318C77.8695 32.3232 77.7708 32.0699 77.5749 31.8739C77.3784 31.6773 77.1258 31.5792 76.8172 31.5792H70.5036C69.6336 31.5792 68.8895 31.2706 68.2727 30.6529C67.6553 30.0359 67.3467 29.2917 67.3467 28.4214C67.3467 28.1413 67.248 27.8951 67.0521 27.6846C66.8556 27.474 66.603 27.3688 66.2945 27.3688C65.4245 27.3688 64.6804 27.0601 64.0636 26.4425C63.4462 25.8255 63.1376 25.0812 63.1376 24.211V11.5797C63.1376 10.7101 63.4458 9.96581 64.0636 9.34817C64.6814 8.73053 65.4245 8.42188 66.2945 8.42188C67.1645 8.42188 67.9079 8.73121 68.5253 9.34817C69.1421 9.96581 69.4513 10.7101 69.4513 11.5797V24.211C69.4513 24.5203 69.5494 24.7729 69.7459 24.9688C69.9418 25.1654 70.1944 25.2636 70.5036 25.2636H76.8172C77.1258 25.2636 77.3784 25.1654 77.5749 24.9688C77.7708 24.7729 77.8695 24.5203 77.8695 24.211V11.5797C77.8695 10.7101 78.1777 9.96581 78.7955 9.34817C79.4133 8.73053 80.1564 8.42188 81.0264 8.42188C81.8964 8.42188 82.6397 8.73121 83.2572 9.34817C83.874 9.96581 84.1832 10.7101 84.1832 11.5797V32.6318C84.1832 33.5014 83.8743 34.2457 83.2572 34.8633C82.6397 35.4803 81.8957 35.7896 81.0264 35.7896C80.7171 35.7896 80.4646 35.8949 80.2687 36.1054C80.0722 36.3159 79.9741 36.5614 79.9741 36.8422C79.9741 37.7118 79.6652 38.4561 79.0481 39.0738C78.4306 39.6907 77.6866 40 76.8172 40H66.2945C65.4245 40 64.6804 39.6907 64.0636 39.0738C63.4469 38.4568 63.1376 37.7118 63.1376 36.8422C63.1376 35.9726 63.4458 35.2277 64.0636 34.6107C64.6804 33.9931 65.4245 33.6844 66.2945 33.6844H76.8172Z"
        fill="white" />
    <path
        d="M84.1783 3.15782C84.1783 2.28823 84.4866 1.54393 85.1043 0.926293C85.7221 0.308651 86.4652 0 87.3352 0C88.2052 0 88.9486 0.30933 89.566 0.926293C90.1828 1.54393 90.492 2.28823 90.492 3.15782V24.2099C90.492 24.5468 90.604 24.8065 90.8287 24.9889C91.0531 25.1719 91.2917 25.2625 91.5443 25.2625H93.6488C94.5182 25.2625 95.2619 25.5719 95.8793 26.1888C96.4961 26.8065 96.8057 27.5508 96.8057 28.4204C96.8057 29.2899 96.4965 30.0349 95.8793 30.6519C95.2622 31.2688 94.5178 31.5782 93.6488 31.5782H91.5443C90.6743 31.5782 89.9302 31.2695 89.3135 30.6519C88.696 30.0349 88.3875 29.2906 88.3875 28.4204C88.3875 28.0835 88.2748 27.8244 88.0507 27.6414C87.8257 27.4591 87.5877 27.3678 87.3352 27.3678C86.4652 27.3678 85.7211 27.0591 85.1043 26.4415C84.4869 25.8245 84.1783 25.0802 84.1783 24.2099V3.15782Z"
        fill="white" />
    <path
        d="M95.1696 15.7901C95.1696 14.9205 95.4778 14.1762 96.0956 13.5586C96.7133 12.9409 97.4564 12.6323 98.3264 12.6323C98.635 12.6323 98.8875 12.5206 99.084 12.2955C99.2799 12.071 99.3787 11.8323 99.3787 11.5797C99.3787 10.7101 99.6869 9.96581 100.305 9.34817C100.922 8.73053 101.666 8.42188 102.536 8.42188H108.849C109.719 8.42188 110.463 8.73121 111.08 9.34817C111.697 9.96581 112.006 10.7101 112.006 11.5797C112.006 11.889 112.112 12.1416 112.322 12.3376C112.532 12.5342 112.778 12.6323 113.059 12.6323C113.928 12.6323 114.672 12.9416 115.289 13.5586C115.906 14.1762 116.215 14.9205 116.215 15.7901V24.211C116.215 25.0812 115.907 25.8255 115.289 26.4425C114.672 27.0594 113.928 27.3688 113.059 27.3688C112.722 27.3688 112.462 27.4886 112.28 27.7267C112.097 27.9654 112.006 28.1969 112.006 28.4214C112.006 29.2916 111.697 30.0359 111.08 30.6529C110.463 31.2699 109.718 31.5792 108.849 31.5792H102.536C101.666 31.5792 100.921 31.2705 100.305 30.6529C99.6872 30.0359 99.3787 29.2916 99.3787 28.4214C99.3787 28.1127 99.2799 27.8601 99.084 27.6635C98.8875 27.4676 98.635 27.3688 98.3264 27.3688C97.4564 27.3688 96.7123 27.0601 96.0956 26.4425C95.4781 25.8255 95.1696 25.0812 95.1696 24.211V15.7901ZM108.849 25.2636C109.102 25.2636 109.34 25.1794 109.565 25.0109C109.789 24.8425 109.901 24.576 109.901 24.211V15.7901C109.901 15.51 109.803 15.2638 109.607 15.0533C109.41 14.8428 109.158 14.7375 108.849 14.7375H102.536C102.226 14.7375 101.974 14.8499 101.778 15.0743C101.581 15.2995 101.483 15.5375 101.483 15.7901V24.211C101.483 24.5203 101.589 24.7729 101.799 24.9688C102.01 25.1654 102.255 25.2636 102.536 25.2636H108.849Z"
        fill="white" />
    <path
        d="M116.212 11.5797C116.212 10.7101 116.52 9.96581 117.138 9.34817C117.756 8.73053 118.499 8.42188 119.369 8.42188H127.787C128.657 8.42188 129.401 8.73121 130.018 9.34817C130.635 9.96581 130.944 10.7101 130.944 11.5797C130.944 11.9165 131.05 12.1763 131.26 12.3586C131.471 12.5416 131.716 12.6323 131.997 12.6323C132.529 12.6323 132.993 12.7376 133.386 12.9481C133.778 13.1586 134.108 13.4184 134.375 13.727C134.641 14.0363 134.838 14.3732 134.964 14.7375C135.09 15.1025 135.154 15.4533 135.154 15.7901V28.4214C135.154 29.2916 134.845 30.0359 134.228 30.6529C133.61 31.2699 132.866 31.5792 131.997 31.5792C131.127 31.5792 130.383 31.2705 129.766 30.6529C129.148 30.0359 128.84 29.2916 128.84 28.4214V15.7901C128.84 15.4815 128.728 15.2288 128.503 15.0322C128.278 14.8363 128.04 14.7375 127.788 14.7375H123.579C123.27 14.7375 123.017 14.8428 122.821 15.0533C122.625 15.2638 122.527 15.51 122.527 15.7901V28.4214C122.527 29.2916 122.218 30.0359 121.601 30.6529C120.983 31.2699 120.239 31.5792 119.37 31.5792C118.5 31.5792 117.756 31.2705 117.139 30.6529C116.521 30.0359 116.213 29.2916 116.213 28.4214V11.5797H116.212Z"
        fill="white" />
    <path
        d="M141.589 3.95802C141.485 3.67405 141.555 3.3551 141.769 3.14104L144.682 0.227247C144.896 0.0131831 145.215 -0.0567923 145.499 0.0479608L151.712 2.33033C151.864 2.3864 151.966 2.53175 151.966 2.69439V4.0546C151.966 4.15748 151.925 4.25612 151.852 4.32884L150.34 5.84099C150.233 5.94801 150.074 5.98301 149.932 5.93062L148.263 5.31516L146.429 4.63855C146.274 4.58124 146.123 4.73231 146.18 4.88758L147.472 8.39027C147.525 8.53225 147.49 8.69176 147.382 8.79878L146.038 10.1428C145.887 10.2942 145.887 10.5399 146.038 10.6913L147.39 12.0428C147.497 12.1498 147.532 12.3093 147.479 12.4513L146.187 15.9537C146.13 16.109 146.281 16.26 146.436 16.2027L149.939 14.9107C150.081 14.8583 150.24 14.8933 150.347 15.0003L151.852 16.5053C151.925 16.578 151.966 16.6767 151.966 16.7795V18.1401C151.966 18.3026 151.865 18.4478 151.712 18.504L145.507 20.7933C145.223 20.898 144.904 20.828 144.69 20.614L141.776 17.7001C141.562 17.4861 141.492 17.1671 141.597 16.8831L143.878 10.6988C143.942 10.5255 143.942 10.3351 143.878 10.1618L141.589 3.95802Z"
        fill="white" />
    <path
        d="M162.985 16.8831C163.09 17.1671 163.02 17.486 162.806 17.7001L159.892 20.6139C159.678 20.828 159.359 20.898 159.075 20.7932L152.863 18.5109C152.71 18.4548 152.608 18.3094 152.608 18.1468V16.7866C152.608 16.6837 152.649 16.5851 152.722 16.5123L154.234 15.0002C154.341 14.8932 154.501 14.8582 154.643 14.9106L156.312 15.526L158.145 16.2026C158.3 16.2599 158.451 16.1089 158.394 15.9536L157.102 12.4509C157.05 12.3089 157.085 12.1494 157.192 12.0424L158.536 10.6984C158.688 10.5469 158.688 10.3013 158.536 10.1499L157.185 8.79842C157.078 8.6914 157.043 8.5319 157.095 8.38991L158.387 4.88752C158.444 4.73221 158.293 4.58118 158.138 4.63845L154.636 5.93052C154.494 5.98292 154.334 5.94791 154.227 5.8409L152.722 4.33592C152.649 4.2632 152.608 4.16452 152.608 4.06168V2.70105C152.608 2.5386 152.71 2.39338 152.862 2.33718L159.067 0.0479617C159.351 -0.0567914 159.67 0.0131841 159.884 0.227215L162.798 3.14107C163.012 3.3551 163.082 3.67408 162.978 3.95806L160.696 10.1424C160.632 10.3157 160.632 10.5061 160.696 10.6794L162.985 16.8831L162.985 16.8831Z"
        fill="white" />
</svg>