<svg width="150" height="150" viewBox="0 0 150 150" fill="none" xmlns="http://www.w3.org/2000/svg">
<path d="M68.2626 135.451L51.7284 119.579L53.3276 113.819L69.8619 129.691L68.2626 135.451Z" fill="#718277"/>
<mask id="mask0_1028_32739" style="mask-type:luminance" maskUnits="userSpaceOnUse" x="63" y="71" width="35" height="32">
<path d="M78.9993 71.5292L95.5336 87.4012C97.9429 89.7143 98.5494 92.7698 95.6787 97.1761C92.8606 101.558 89.3605 102.707 85.2123 102.164C83.6193 101.954 81.9231 101.5 80.1358 100.877L63.6015 85.0052C65.3905 85.6217 67.0851 86.0818 68.678 86.2922C72.8323 86.8362 76.3325 85.6874 79.1444 81.3041C82.0135 76.9038 81.4087 73.8423 79.0054 71.5309L78.9993 71.5292Z" fill="white"/>
</mask>
<g mask="url(#mask0_1028_32739)">
<path d="M80.1374 100.879L63.6032 85.0066C65.3922 85.6231 67.0867 86.0832 68.6797 86.2936C69.9565 86.4626 71.1681 86.4637 72.3213 86.2726L88.8556 102.145C87.7007 102.342 86.4907 102.335 85.2139 102.166C83.621 101.955 81.9248 101.501 80.1374 100.879Z" fill="#92A89A"/>
<path d="M88.8481 102.141L72.3138 86.2688C72.809 86.1834 73.2943 86.0627 73.7652 85.899L90.2994 101.771C89.8285 101.935 89.3433 102.055 88.8481 102.141Z" fill="#8DA395"/>
<path d="M90.3006 101.774L73.7663 85.9017C74.1137 85.7822 74.4539 85.6411 74.7886 85.4725L91.3228 101.344C90.9882 101.513 90.648 101.654 90.3006 101.774Z" fill="#899E90"/>
<path d="M91.3218 101.345L74.7876 85.4732C75.0851 85.3204 75.38 85.1538 75.6737 84.9674L92.208 100.839C91.9203 101.028 91.6255 101.194 91.3218 101.345Z" fill="#85998C"/>
<path d="M92.202 100.837L75.6677 84.9652C75.9614 84.7787 76.2496 84.5646 76.529 84.3351L93.0633 100.207C92.7839 100.437 92.4957 100.651 92.202 100.837Z" fill="#809487"/>
<path d="M93.061 100.205L76.5267 84.3326C76.8482 84.069 77.1565 83.7822 77.4609 83.4618L93.9952 99.3338C93.6908 99.6542 93.3747 99.9454 93.061 100.205Z" fill="#7C8F82"/>
<path d="M94.004 99.3306L77.4698 83.4586C77.884 83.0249 78.2855 82.5422 78.6716 81.9964L95.2059 97.8684C94.8137 98.4125 94.4183 98.8969 94.004 99.3306Z" fill="#778A7E"/>
<path d="M95.2064 97.8729L78.6721 82.0009C78.8319 81.7776 78.9872 81.5465 79.1459 81.3033C82.0149 76.9031 81.4101 73.8415 79.0068 71.5302L95.5411 87.4022C97.9505 89.7152 98.5569 92.7707 95.6802 97.1753C95.5215 97.4185 95.3661 97.6496 95.2064 97.8729Z" fill="#738579"/>
</g>
<mask id="mask1_1028_32739" style="mask-type:luminance" maskUnits="userSpaceOnUse" x="78" y="65" width="24" height="22">
<path d="M94.7841 86.7453L78.2498 70.8733C81.0035 70.6273 83.4725 69.0837 84.9787 65.5406L101.513 81.4126C100.007 84.9557 97.5377 86.4993 94.7841 86.7453Z" fill="white"/>
</mask>
<g mask="url(#mask1_1028_32739)">
<path d="M94.7852 86.7444L78.2509 70.8724C78.4736 70.8489 78.6962 70.8255 78.9161 70.7882L95.4504 86.6602C95.2305 86.6975 95.0062 86.727 94.7852 86.7444Z" fill="#92A89A"/>
<path d="M95.4501 86.6623L78.9158 70.7903C79.3279 70.7212 79.7362 70.6185 80.1345 70.4804L96.6688 86.3524C96.2705 86.4905 95.8622 86.5932 95.4501 86.6623Z" fill="#8DA395"/>
<path d="M96.6682 86.35L80.134 70.478C80.4243 70.3753 80.7058 70.2572 80.9845 70.1253L97.5187 85.9973C97.2444 86.137 96.9569 86.2534 96.6682 86.35Z" fill="#899E90"/>
<path d="M97.5165 85.991L80.9822 70.119C81.2255 69.9969 81.4582 69.8654 81.6899 69.714L98.2241 85.586C97.9925 85.7374 97.7597 85.8689 97.5165 85.991Z" fill="#85998C"/>
<path d="M98.2224 85.5907L81.6882 69.7187C81.9121 69.5717 82.1332 69.4109 82.3456 69.2346L98.8798 85.1066C98.6675 85.2829 98.4463 85.4437 98.2224 85.5907Z" fill="#809487"/>
<path d="M98.8771 85.1068L82.3429 69.2348C82.5724 69.0437 82.7991 68.8388 83.0126 68.6107L99.5469 84.4827C99.3273 84.7091 99.1066 84.9157 98.8771 85.1068Z" fill="#7C8F82"/>
<path d="M99.5549 84.487L83.0206 68.615C83.2951 68.332 83.5596 68.0136 83.8065 67.6643L100.341 83.5363C100.094 83.8856 99.831 84.1979 99.5549 84.487Z" fill="#778A7E"/>
<path d="M100.339 83.5361L83.8046 67.6641C84.2411 67.054 84.6308 66.3528 84.9768 65.5482L101.511 81.4202C101.165 82.2248 100.774 82.9321 100.339 83.5361Z" fill="#738579"/>
</g>
<path d="M76.6075 107.474L60.0732 91.6019L63.6001 85.0029L80.1344 100.875L76.6075 107.474Z" fill="#778A7E"/>
<path d="M72.963 105.91L56.4287 90.038L60.0728 91.6021L76.6071 107.474L72.963 105.91Z" fill="#96AE9F"/>
<mask id="mask2_1028_32739" style="mask-type:luminance" maskUnits="userSpaceOnUse" x="83" y="57" width="20" height="25">
<path d="M83.4248 57.7177L99.9591 73.5897C102.069 75.6115 102.942 78.1016 101.505 81.416L84.9712 65.544C86.4018 62.2279 85.5344 59.7395 83.4248 57.7177Z" fill="white"/>
</mask>
<g mask="url(#mask2_1028_32739)">
<path d="M101.513 81.416L84.979 65.544C86.4096 62.2279 85.5422 59.7395 83.4326 57.7177L99.9669 73.5897C102.076 75.6115 102.95 78.1016 101.513 81.416Z" fill="#738579"/>
</g>
<path d="M70.0332 104.679L53.4989 88.8067L56.9907 82.335L73.525 98.207L70.0332 104.679Z" fill="#778A7E"/>
<mask id="mask3_1028_32739" style="mask-type:luminance" maskUnits="userSpaceOnUse" x="56" y="82" width="21" height="18">
<path d="M73.5255 98.2068L56.9912 82.3348C57.9803 82.7637 58.9112 83.1895 59.9169 83.5577L76.4512 99.4297C75.4455 99.0615 74.5145 98.6357 73.5255 98.2068Z" fill="white"/>
</mask>
<g mask="url(#mask3_1028_32739)">
<path d="M73.5255 98.2068L56.9912 82.3348C57.9803 82.7637 58.9112 83.1895 59.9169 83.5577L76.4512 99.4297C75.4455 99.0615 74.5145 98.6357 73.5255 98.2068Z" fill="#92A89A"/>
</g>
<path d="M66.3145 103.179L49.7803 87.3075L53.5009 88.8079L70.0351 104.68L66.3145 103.179Z" fill="#97AE9F"/>
<mask id="mask4_1028_32739" style="mask-type:luminance" maskUnits="userSpaceOnUse" x="64" y="68" width="24" height="21">
<path d="M71.3913 72.5154L87.9255 88.3874C85.915 86.458 82.3379 85.3166 80.8341 84.6873L64.2998 68.8153C65.8097 69.4462 69.3807 70.586 71.3913 72.5154Z" fill="white"/>
</mask>
<g mask="url(#mask4_1028_32739)">
<path d="M80.8263 84.6873L64.292 68.8153C65.3619 69.2599 67.4676 69.9635 69.323 71.0287L85.8573 86.9007C84.0002 85.8416 81.8945 85.1379 80.8263 84.6873Z" fill="#92A89A"/>
<path d="M85.8575 86.8943L69.3232 71.0223C69.9796 71.3987 70.6042 71.8184 71.1419 72.2925L87.6762 88.1645C87.1385 87.6904 86.5138 87.2707 85.8575 86.8943Z" fill="#8DA395"/>
<path d="M87.6778 88.1639L71.1436 72.2919C71.2276 72.3672 71.3056 72.4408 71.3836 72.5145L87.9179 88.3865C87.8399 88.3128 87.7558 88.2375 87.6778 88.1639Z" fill="#899E90"/>
</g>
<path d="M76.1362 93.4169L59.602 77.5449L64.2922 68.8145L80.8265 84.6865L76.1362 93.4169Z" fill="#778A7E"/>
<path d="M80.8257 84.6878C83.3402 85.7388 91.5778 88.2026 88.7953 93.383C87.5914 95.614 85.3775 96.0411 83.088 95.7433C80.3495 95.387 77.4965 93.995 76.1355 93.4181L80.8335 84.6834L80.8257 84.6878Z" fill="#C1DFCB"/>
<path d="M96.1828 70.9524L79.6485 55.0804L83.1587 48.542L99.6929 64.414L96.1828 70.9524Z" fill="#778A7E"/>
<mask id="mask5_1028_32739" style="mask-type:luminance" maskUnits="userSpaceOnUse" x="50" y="79" width="20" height="18">
<path d="M67.2286 95.4568L50.6943 79.5848C51.5838 79.9471 52.466 80.3596 53.299 80.7128L69.8333 96.5848C68.9942 96.2299 68.1181 95.8191 67.2286 95.4568Z" fill="white"/>
</mask>
<g mask="url(#mask5_1028_32739)">
<path d="M67.2286 95.4568L50.6943 79.5848C51.5838 79.9471 52.466 80.3596 53.299 80.7128L69.8333 96.5848C68.9942 96.2299 68.1181 95.8191 67.2286 95.4568Z" fill="#92A89A"/>
</g>
<path d="M87.2337 72.7385C89.3231 73.6203 96.2222 75.6634 93.7039 80.3362C92.5705 82.4301 90.5947 82.825 88.6031 82.5635C86.3579 82.2714 84.0933 81.1457 82.9885 80.685L87.2353 72.7324L87.2337 72.7385Z" fill="#C1DFCB"/>
<path d="M82.9893 80.6877L66.455 64.8157L70.7002 56.8691L87.2344 72.7411L82.9893 80.6877Z" fill="#778A7E"/>
<mask id="mask6_1028_32739" style="mask-type:luminance" maskUnits="userSpaceOnUse" x="70" y="56" width="23" height="20">
<path d="M76.4454 59.8906L92.9797 75.7626C91.3109 74.1621 88.4562 73.2522 87.2286 72.7381L70.6943 56.8661C71.9159 57.3785 74.7767 58.2901 76.4454 59.8906Z" fill="white"/>
</mask>
<g mask="url(#mask6_1028_32739)">
<path d="M87.2364 72.7381L70.7021 56.8661C71.5595 57.226 73.2334 57.7848 74.7259 58.6456L91.2601 74.5176C89.766 73.6628 88.0921 73.1041 87.2364 72.7381Z" fill="#92A89A"/>
<path d="M91.2638 74.5115L74.7295 58.6395C75.2724 58.952 75.7974 59.3052 76.251 59.704L92.7853 75.576C92.3317 75.1773 91.8127 74.8257 91.2638 74.5115Z" fill="#8DA395"/>
<path d="M92.7833 75.5779L76.249 59.7059C76.3182 59.7641 76.3857 59.8283 76.4531 59.8925L92.9874 75.7645C92.9199 75.7003 92.8524 75.6361 92.7833 75.5779Z" fill="#899E90"/>
</g>
<path d="M115.363 41.5519L98.829 25.6799L128.829 29.5978L145.363 45.4698L115.363 41.5519Z" fill="#9CB4A5"/>
<path d="M62.4747 93.449L45.9404 77.577L50.6943 79.5837L67.2286 95.4557L62.4747 93.449Z" fill="#97AE9F"/>
<path d="M89.6408 68.0497L73.1065 52.1777L76.5101 45.8121L93.0461 61.678L89.6408 68.0497Z" fill="#778A7E"/>
<mask id="mask7_1028_32739" style="mask-type:luminance" maskUnits="userSpaceOnUse" x="62" y="53" width="18" height="17">
<path d="M63.1913 53.6073L79.7256 69.4793C79.5082 69.2695 79.2183 69.0853 78.8419 68.9295L62.3076 53.0575C62.684 53.2133 62.9739 53.3975 63.1913 53.6073Z" fill="white"/>
</mask>
<g mask="url(#mask7_1028_32739)">
<path d="M78.8419 68.9295L62.3076 53.0575C62.4548 53.1176 62.5943 53.1821 62.7122 53.2537L79.2464 69.1257C79.1225 69.0524 78.9891 68.9896 78.8419 68.9295Z" fill="#92A89A"/>
<path d="M79.2481 69.1248L62.7139 53.2528C62.8727 53.3422 63.0099 53.4386 63.1255 53.5422L79.6598 69.4142C79.5442 69.3106 79.407 69.2142 79.2481 69.1248Z" fill="#8DA395"/>
<path d="M79.6583 69.4139L63.124 53.5419C63.124 53.5419 63.1661 53.5795 63.1932 53.6L79.7274 69.472C79.7274 69.472 79.6854 69.4344 79.6583 69.4139Z" fill="#899E90"/>
</g>
<mask id="mask8_1028_32739" style="mask-type:luminance" maskUnits="userSpaceOnUse" x="59" y="51" width="20" height="18">
<path d="M62.3037 53.0501L78.8379 68.9221C78.7345 68.8219 76.3146 67.8557 76.1856 67.8006L59.6514 51.9286C59.782 51.9776 62.2002 52.9499 62.3037 53.0501Z" fill="white"/>
</mask>
<g mask="url(#mask8_1028_32739)">
<path d="M76.1856 67.8006L59.6514 51.9286C59.7759 51.9759 61.9345 52.8442 62.2644 53.0263L78.7986 68.8983C78.4688 68.7162 76.3024 67.8523 76.1856 67.8006Z" fill="#92A89A"/>
<path d="M78.7989 68.8982L62.2646 53.0262L62.2918 53.0468L78.8277 68.9127L78.7989 68.8982Z" fill="#8DA395"/>
<path d="M78.8279 68.9117L62.292 53.0458L62.2981 53.0475L78.8324 68.9195L78.8279 68.9117Z" fill="#899E90"/>
<path d="M78.8302 68.9217L62.2959 53.0497L62.302 53.0514L78.8363 68.9234L78.8302 68.9217Z" fill="#85998C"/>
<path d="M78.838 68.9217L62.3037 53.0497L78.838 68.9217Z" fill="#809487"/>
</g>
<path d="M43.6201 39.494L27.0859 23.622L34.9593 24.6489L51.4935 40.5209L43.6201 39.494Z" fill="#9CB4A5"/>
<path d="M20.3929 123.234L3.85867 107.362L27.087 23.6206L43.6213 39.4926L20.3929 123.234Z" fill="#718277"/>
<path d="M51.4946 40.5209L34.9603 24.6489L38.8224 10.7417L55.3567 26.6137L51.4946 40.5209Z" fill="#718277"/>
<path d="M55.3542 26.613L38.8199 10.741L100.732 18.8163L117.266 34.6883L55.3542 26.613Z" fill="#9CB4A5"/>
<path d="M115.363 41.5524L145.37 45.4659L120.334 135.725L111.273 134.541L109.53 140.823L68.272 135.441L69.8712 129.681L20.3996 123.225L43.6279 39.4835L51.5074 40.5121L55.3634 26.6031L117.275 34.6784L115.372 41.542L115.363 41.5524ZM101.51 81.4179C103.635 76.5064 100.695 73.4083 96.1891 70.9547L99.6993 64.4163L95.9759 62.902L92.5934 69.2148C91.6458 68.8495 90.6567 68.4207 89.6465 68.0447L93.0502 61.6791L89.3983 60.1194L85.8942 66.6595C85.1116 66.3136 84.3184 66.0299 83.5419 65.6857L78.4686 63.5781L76.1918 67.8023C76.3269 67.8591 78.8652 68.871 78.8485 68.9316C80.374 69.5537 80.455 70.7106 80.0603 71.5017L76.0566 78.9996L70.4961 89.3682C70.2292 89.7902 69.6802 90.3563 68.8829 90.2542C68.7379 90.2338 68.5856 90.1919 68.4262 90.1284C68.2551 90.1074 65.8846 89.0569 65.7634 88.9975L62.4857 93.4547L67.2334 95.4596C68.1229 95.8219 69.0051 96.2343 69.8381 96.5876L66.319 103.182L70.0379 104.689L73.5297 98.217C74.5188 98.6458 75.4497 99.0717 76.4555 99.4399L72.9681 105.919L76.6138 107.477L80.139 100.885C81.9281 101.501 83.6226 101.961 85.2156 102.171C89.3699 102.715 92.87 101.567 95.682 97.1833C98.8334 92.3523 97.7985 89.1397 94.7856 86.7582C97.5376 86.5184 100.008 84.9687 101.514 81.4256" fill="#C1DFCB"/>
</svg>
