<svg width="32" height="32" viewBox="0 0 32 32" fill="none" xmlns="http://www.w3.org/2000/svg">
    <path
        d="M27.8999 17.5667C27.9665 17.0667 27.9999 16.55 27.9999 16C27.9999 15.4667 27.9665 14.9333 27.8832 14.4333L31.2665 11.8C31.5665 11.5667 31.6499 11.1167 31.4665 10.7833L28.2665 5.25C28.0665 4.88333 27.6499 4.76667 27.2832 4.88333L23.2999 6.48333C22.4665 5.85 21.5832 5.31667 20.5999 4.91667L19.9999 0.683333C19.9332 0.283333 19.5999 0 19.1999 0H12.7999C12.3999 0 12.0832 0.283333 12.0165 0.683333L11.4165 4.91667C10.4332 5.31667 9.53319 5.86667 8.71652 6.48333L4.73319 4.88333C4.36652 4.75 3.94986 4.88333 3.74986 5.25L0.566524 10.7833C0.366524 11.1333 0.43319 11.5667 0.766524 11.8L4.14986 14.4333C4.06652 14.9333 3.99986 15.4833 3.99986 16C3.99986 16.5167 4.03319 17.0667 4.11652 17.5667L0.733191 20.2C0.433191 20.4333 0.349857 20.8833 0.533191 21.2167L3.73319 26.75C3.93319 27.1167 4.34986 27.2333 4.71652 27.1167L8.69986 25.5167C9.53319 26.15 10.4165 26.6833 11.3999 27.0833L11.9999 31.3167C12.0832 31.7167 12.3999 32 12.7999 32H19.1999C19.5999 32 19.9332 31.7167 19.9832 31.3167L20.5832 27.0833C21.5665 26.6833 22.4665 26.15 23.2832 25.5167L27.2665 27.1167C27.6332 27.25 28.0499 27.1167 28.2499 26.75L31.4499 21.2167C31.6499 20.85 31.5665 20.4333 31.2499 20.2L27.8999 17.5667ZM15.9999 22C12.6999 22 9.99986 19.3 9.99986 16C9.99986 12.7 12.6999 10 15.9999 10C19.2999 10 21.9999 12.7 21.9999 16C21.9999 19.3 19.2999 22 15.9999 22Z"
        fill="#9E9E9E" />
</svg>