<svg width="32" height="33" viewBox="0 0 32 33" fill="none" xmlns="http://www.w3.org/2000/svg">
<path d="M8.95401 3.82919C6.92966 3.95093 5.32966 4.28484 4.03227 4.84484C3.05488 5.26919 2.37662 5.85701 2.0914 6.52484L1.99749 6.74397L1.98705 15.0918C1.9801 22.6535 1.98358 23.4535 2.03575 23.6309C2.12618 23.9405 2.28966 24.2153 2.56792 24.5074C3.32618 25.3144 4.83227 25.9405 6.82184 26.2744C7.98358 26.4692 8.43575 26.5005 9.99749 26.5005C11.7297 26.5005 12.0949 26.4657 13.9036 26.1457C14.0044 26.1283 14.0149 26.1353 14.0149 26.2083C14.0184 26.344 14.1679 26.6709 14.3384 26.9109C14.9784 27.8083 16.4844 28.5144 18.5714 28.897C19.0131 28.977 19.8062 29.0918 19.9279 29.0918C19.9557 29.0918 19.9071 29.0292 19.8131 28.9492C19.594 28.7579 19.034 28.1074 18.8079 27.7701L18.6236 27.4988L18.154 27.3874C17.2949 27.1822 16.5749 26.9109 16.0566 26.5979C15.8097 26.4483 15.4931 26.1631 15.4201 26.024C15.3818 25.9474 15.3714 25.617 15.3714 24.2083V22.4866L15.6601 22.6396C16.074 22.8588 16.6201 23.0709 17.3749 23.297C17.4444 23.3179 17.4514 23.304 17.4723 23.0153C17.4827 22.8448 17.521 22.5318 17.5488 22.3161C17.5801 22.1005 17.5975 21.9196 17.594 21.9161C17.5871 21.9127 17.4166 21.8535 17.2149 21.7874C16.7453 21.6309 16.0358 21.2796 15.7784 21.0744C15.6705 20.9874 15.5314 20.8518 15.4757 20.7718L15.3714 20.6292V18.8935C15.3714 17.937 15.3818 17.1614 15.3992 17.1683C16.5192 17.7422 17.4444 18.0414 18.8044 18.2709L19.3888 18.3683L19.7505 18.024C19.9488 17.8327 20.2827 17.5509 20.4949 17.3944L20.874 17.1092L20.3731 17.0674C18.9888 16.9457 17.7018 16.6709 16.7836 16.2953C15.9314 15.944 15.3714 15.4953 15.3714 15.1614C15.3714 14.9005 15.7436 14.5527 16.3453 14.2431C18.7801 12.9944 23.9349 12.8414 26.9366 13.9335C27.9244 14.2918 28.6236 14.8031 28.6236 15.1614C28.6236 15.4222 28.2479 15.784 27.6636 16.0831L27.3749 16.2327L27.7297 16.3683C28.4253 16.6292 29.114 17.0188 29.7297 17.4988L30.0184 17.7248L30.0079 16.2327C29.9975 14.7788 29.994 14.7405 29.9175 14.5492C29.5766 13.7005 28.6062 13.0083 27.0584 12.5074C24.7697 11.7701 21.4827 11.5961 18.7801 12.0692C18.5018 12.1179 18.2166 12.1666 18.1471 12.177L18.0184 12.1979L18.0079 9.47093L17.9975 6.74397L17.9175 6.54919C17.761 6.1631 17.4201 5.74571 17.0062 5.4431C15.6079 4.41006 12.8844 3.78745 9.89314 3.81179C9.47227 3.81527 9.0514 3.82223 8.95401 3.82919ZM11.1279 5.23092C12.9714 5.34571 14.6166 5.71093 15.6497 6.2431C16.2514 6.55266 16.6236 6.90049 16.6236 7.16136C16.6236 7.62397 15.6149 8.23962 14.241 8.61875C12.9853 8.9631 11.6218 9.12658 9.99749 9.12658C7.95227 9.12658 6.0914 8.83092 4.78358 8.29527C3.9314 7.94397 3.3714 7.49527 3.3714 7.16136C3.3714 6.90049 3.74358 6.55266 4.34531 6.2431C5.83749 5.47788 8.54705 5.0744 11.1279 5.23092ZM3.85836 9.3944C4.88097 9.89527 6.28271 10.2466 7.99749 10.4379C8.45662 10.4866 8.85314 10.5005 9.99749 10.5005C11.5592 10.5005 12.0114 10.4692 13.1801 10.2709C14.5436 10.0448 15.4688 9.74571 16.5992 9.16832C16.6131 9.16136 16.6201 9.93353 16.6166 10.8831L16.6062 12.6083L16.1644 12.7927C15.5244 13.0605 15.0479 13.3527 14.6514 13.7283C14.481 13.8883 14.4566 13.8988 13.994 14.017C10.8566 14.8066 6.50532 14.5318 4.32097 13.4083C3.92792 13.2031 3.62184 12.977 3.47575 12.7718L3.3714 12.6292V10.8935C3.3714 9.93701 3.38184 9.16136 3.39923 9.16832C3.41314 9.17527 3.61836 9.27962 3.85836 9.3944ZM4.29314 14.9283C6.64792 15.8605 10.1679 16.1214 13.2323 15.5961C13.5592 15.537 13.8584 15.4814 13.9036 15.4709L13.9801 15.4501V17.3979V19.3492L13.834 19.3909C13.2636 19.544 12.0566 19.7109 11.1279 19.7701C7.98358 19.9614 4.71053 19.3109 3.63923 18.2779C3.35401 18.0066 3.3714 18.1353 3.3714 16.2083V14.4866L3.6601 14.6396C3.81662 14.7231 4.10184 14.8518 4.29314 14.9283ZM3.60097 19.944C3.87923 20.1005 4.45662 20.337 4.93662 20.4935C7.22184 21.2309 10.5123 21.4048 13.2149 20.9318C13.4931 20.8831 13.7784 20.8344 13.8514 20.824L13.9801 20.8031L13.9731 22.7474L13.9627 24.6918L13.7192 24.7509C12.8497 24.9666 11.6949 25.0918 10.3801 25.1161C8.89836 25.144 7.7714 25.0535 6.58184 24.8135C5.04445 24.504 3.80271 23.9509 3.47227 23.4257L3.3714 23.2692V21.5544C3.3714 20.6118 3.38184 19.8396 3.39575 19.8396C3.40618 19.8396 3.5001 19.8848 3.60097 19.944Z" fill="#AFAFAF"/>
<path d="M24.4306 16.9905C22.0271 17.2375 20.0097 18.7157 19.0671 20.9175C18.6601 21.8705 18.4793 22.9731 18.5697 23.9575C18.7193 25.6201 19.3662 26.987 20.5419 28.1209C21.0706 28.6288 21.4845 28.9244 22.1175 29.2409C23.6897 30.034 25.3732 30.1627 27.0532 29.6235C27.554 29.467 28.361 29.0601 28.7958 28.754C29.2201 28.4514 30.0271 27.6444 30.3367 27.2131C30.6393 26.7853 31.0427 25.9818 31.2062 25.4809C32.0167 22.987 31.2688 20.267 29.3001 18.5627C28.3645 17.7522 27.2201 17.2201 26.0132 17.0392C25.5784 16.9731 24.8236 16.9488 24.4306 16.9905ZM25.9088 18.434C26.3123 18.5001 26.9523 18.7088 27.3245 18.8931C28.768 19.6201 29.7871 20.9975 30.0653 22.6044C30.1488 23.067 30.1488 23.8427 30.0688 24.3088C29.7001 26.4409 28.0306 28.1105 25.8914 28.4827C25.4288 28.5661 24.6532 28.5661 24.1871 28.4861C22.0549 28.1175 20.3853 26.4479 20.0132 24.3088C19.9297 23.8461 19.9297 23.0705 20.0097 22.6044C20.288 21.0009 21.314 19.6166 22.761 18.9001C23.7697 18.3992 24.7784 18.2531 25.9088 18.434Z" fill="#AFAFAF"/>
<path d="M24.8551 20.4657C24.6707 20.5248 24.5211 20.6535 24.4307 20.8344L24.3438 21.0118L24.3542 22.3544L24.3646 23.6935L24.469 23.8431C24.6151 24.0518 24.8342 24.1631 25.0637 24.1457C25.3003 24.1248 25.4916 24.0205 25.6168 23.8431L25.7211 23.6935L25.7316 22.3509L25.742 21.0118L25.6516 20.8239C25.5855 20.6883 25.5194 20.6153 25.4116 20.5526C25.2446 20.4553 25.0046 20.417 24.8551 20.4657Z" fill="#AFAFAF"/>
<path d="M24.7469 25.1433C24.2877 25.3937 24.2147 25.9572 24.6008 26.2981C24.7156 26.3989 24.9138 26.4824 25.0425 26.4824C25.2825 26.4824 25.6303 26.232 25.7069 26.0059C25.773 25.8042 25.7312 25.5294 25.613 25.3798C25.4356 25.1607 25.3417 25.112 25.0843 25.0981C24.9173 25.0911 24.8199 25.105 24.7469 25.1433Z" fill="#AFAFAF"/>
</svg>
