<svg xmlns="http://www.w3.org/2000/svg" width="126" height="202" viewBox="0 0 126 202" fill="none">
  <path d="M54.1028 201.107L15.45 178.643L15.3257 135.929L53.9785 158.392L54.1028 201.107Z" fill="#6E7578"/>
  <path d="M69.6341 103.656L30.9813 81.1923L86.5949 49.084L125.248 71.5473L69.6341 103.656Z" fill="#B0BCC2"/>
  <path d="M39.3795 166.823L0.726682 144.36L0.5 63.3945L39.1528 85.8542L39.3795 166.823Z" fill="#6E7578"/>
  <path d="M39.1528 85.854L0.5 63.3943L14.9637 55.04L53.6165 77.5034L39.1528 85.854Z" fill="#B0BCC2"/>
  <path d="M92.858 23.3525L92.9749 64.327L69.561 77.8438L69.6341 103.656L125.248 71.5479L125.5 159.884L54.1028 201.107L53.9785 158.392L39.3795 166.823L39.1528 85.8544L53.6165 77.5037L53.5288 46.0609L92.858 23.3525Z" fill="#E4E7DB"/>
  <path d="M53.6165 77.5031L14.9637 55.0398L14.876 23.6006L53.5288 46.0603L53.6165 77.5031Z" fill="#6E7578"/>
  <path d="M53.5288 46.0606L14.876 23.6009L54.2051 0.892578L92.8579 23.3523L53.5288 46.0606Z" fill="#B0BCC2"/>
</svg>