<svg width="32" height="33" viewBox="0 0 32 33" fill="none" xmlns="http://www.w3.org/2000/svg">
<path d="M15.2528 4.48574C14.5189 4.5553 14.2858 4.58661 13.8789 4.65965C11.4336 5.10835 9.26321 6.23878 7.51365 7.97791C6.20582 9.27878 5.21799 10.8614 4.61278 12.6318C4.27539 13.6231 3.97973 15.1014 4.0493 15.4736C4.09452 15.7101 4.45278 16.0092 4.69626 16.0127C4.98843 16.0127 5.31539 15.7727 5.38495 15.5083C5.40582 15.4318 5.46147 15.1083 5.51017 14.7918C5.98669 11.724 7.84756 8.97617 10.5397 7.37269C13.6145 5.53617 17.3536 5.36574 20.6058 6.91009C22.2058 7.67183 23.6145 8.85791 24.6476 10.3118C24.9954 10.8023 25.0963 10.9692 25.0441 10.9692C25.0232 10.9692 24.5084 10.837 23.9032 10.6736C23.2945 10.5101 22.7519 10.3779 22.6963 10.3779C22.4354 10.3814 22.1258 10.6353 22.0528 10.9031C21.9797 11.171 22.098 11.4875 22.3276 11.644C22.4771 11.7449 26.1676 12.7431 26.3867 12.7431C26.4597 12.7431 26.5884 12.7118 26.6649 12.677C26.9536 12.5449 26.9571 12.531 27.5206 10.4336C27.8023 9.37965 28.0354 8.46487 28.0354 8.40226C28.0354 8.11704 27.8128 7.83183 27.5241 7.74835C27.3571 7.69965 27.3223 7.69965 27.1554 7.74835C26.978 7.80052 26.8006 7.94313 26.7206 8.09965C26.7032 8.13791 26.5745 8.59009 26.4354 9.10835C26.2963 9.62313 26.1815 10.051 26.178 10.0579C26.171 10.0614 26.091 9.95356 26.0006 9.81443C25.5276 9.09791 24.8076 8.24922 24.2163 7.70661C22.2615 5.91183 19.9276 4.84748 17.2702 4.53443C16.9502 4.49617 15.5032 4.46139 15.2528 4.48574Z" fill="#AFAFAF"/>
<path d="M15.7615 11.2199C15.5945 11.2651 12.005 14.8408 11.8937 15.0669C11.838 15.1886 11.8276 15.2582 11.8415 15.4112C11.8902 15.8634 12.2832 16.1312 12.725 16.013C12.878 15.9712 12.9963 15.8634 14.1024 14.7643L15.3093 13.5643V17.4217C15.3093 21.0808 15.3128 21.2895 15.3754 21.4217C15.4797 21.6582 15.7684 21.8564 16.005 21.8564C16.2415 21.8564 16.5302 21.6582 16.6345 21.4217C16.6971 21.2895 16.7006 21.0808 16.7006 17.4217V13.5643L17.9111 14.7677C19.205 16.0582 19.2258 16.0756 19.5389 16.0373C19.9911 15.9886 20.2624 15.5886 20.1441 15.1434C20.1058 15.0008 19.9319 14.8164 18.2728 13.1504C17.0589 11.9364 16.3911 11.293 16.2971 11.2477C16.1476 11.1747 15.9563 11.1643 15.7615 11.2199Z" fill="#AFAFAF"/>
<path d="M27.0922 17.0181C26.7409 17.1329 26.6296 17.3172 26.5392 17.9363C26.3687 19.1259 26.0627 20.1311 25.5514 21.1781C23.4818 25.4042 18.8835 27.7659 14.2435 26.9868C11.534 26.5311 9.15136 25.0807 7.48875 22.8755C7.20005 22.4929 6.91832 22.0511 6.95658 22.0372C6.97397 22.0303 7.48527 22.1624 8.09745 22.3259C8.70614 22.4894 9.25223 22.6216 9.30788 22.6216C9.68005 22.6181 10.0348 22.1903 9.96875 21.825C9.93745 21.6442 9.79484 21.4216 9.66614 21.3416C9.52353 21.2546 5.80179 20.2563 5.6244 20.2563C5.38788 20.2563 5.13397 20.4059 5.02962 20.6042C4.96701 20.7224 3.96875 24.4616 3.96875 24.5729C3.96875 24.7642 4.01745 24.8894 4.14962 25.039C4.40353 25.3277 4.80005 25.3624 5.09571 25.119C5.16527 25.0633 5.24527 24.9729 5.26962 24.9242C5.29745 24.872 5.42962 24.4059 5.56875 23.8911C5.70788 23.3729 5.82266 22.9485 5.82614 22.9416C5.8331 22.9381 5.9131 23.0459 6.00353 23.185C6.57397 24.0442 7.41223 24.9868 8.19484 25.6511C10.0696 27.2337 12.2679 28.1763 14.7688 28.472C15.2731 28.5311 16.7792 28.5277 17.2731 28.4685C20.6018 28.0685 23.4922 26.4546 25.5061 23.8703C26.7792 22.2355 27.6348 20.2042 27.9166 18.152C27.9827 17.6685 27.9688 17.4737 27.847 17.2998C27.6905 17.0737 27.3322 16.9416 27.0922 17.0181Z" fill="#AFAFAF"/>
</svg>
