<svg width="20" height="20" viewBox="0 0 20 20" fill="none" xmlns="http://www.w3.org/2000/svg">
<path d="M10.8327 4.16667C10.8327 5.08714 8.78065 5.83333 6.24935 5.83333C3.71804 5.83333 1.66602 5.08714 1.66602 4.16667M10.8327 4.16667C10.8327 3.24619 8.78065 2.5 6.24935 2.5C3.71804 2.5 1.66602 3.24619 1.66602 4.16667M10.8327 4.16667V5.41667M1.66602 4.16667V14.1667C1.66602 15.0871 3.71804 15.8333 6.24935 15.8333M6.24935 9.16667C6.10889 9.16667 5.96992 9.16437 5.83268 9.15987C3.49664 9.08332 1.66602 8.3694 1.66602 7.5M6.24935 12.5C3.71804 12.5 1.66602 11.7538 1.66602 10.8333M18.3327 9.58333C18.3327 10.5038 16.2807 11.25 13.7493 11.25C11.218 11.25 9.16602 10.5038 9.16602 9.58333M18.3327 9.58333C18.3327 8.66286 16.2807 7.91667 13.7493 7.91667C11.218 7.91667 9.16602 8.66286 9.16602 9.58333M18.3327 9.58333V15.8333C18.3327 16.7538 16.2807 17.5 13.7493 17.5C11.218 17.5 9.16602 16.7538 9.16602 15.8333V9.58333M18.3327 12.7083C18.3327 13.6288 16.2807 14.375 13.7493 14.375C11.218 14.375 9.16602 13.6288 9.16602 12.7083" stroke="#E15E0C" stroke-width="1.5" stroke-linecap="round" stroke-linejoin="round"/>
</svg>
