<svg xmlns="http://www.w3.org/2000/svg" width="10" height="10" viewBox="0 0 10 10" fill="none">
  <path d="M8.33341 3.33335H7.08341V2.58751C7.08341 1.50001 6.28758 0.529179 5.20425 0.425012C3.96258 0.308346 2.91675 1.28335 2.91675 2.50001V3.33335H1.66675V9.16668H8.33341V3.33335ZM5.00008 7.08335C4.54175 7.08335 4.16675 6.70835 4.16675 6.25001C4.16675 5.79168 4.54175 5.41668 5.00008 5.41668C5.45841 5.41668 5.83341 5.79168 5.83341 6.25001C5.83341 6.70835 5.45841 7.08335 5.00008 7.08335ZM3.75008 3.33335V2.50001C3.75008 1.80835 4.30841 1.25001 5.00008 1.25001C5.69175 1.25001 6.25008 1.80835 6.25008 2.50001V3.33335H3.75008Z" fill="#387085"/>
</svg>