<svg width="44" height="44" viewBox="0 0 44 44" fill="#3173FA" xmlns="http://www.w3.org/2000/svg">
  <path d="M22.01376 0c11.54538.00706 21.00722 8.90338 21.91609 20.21383a.30206.30206 0 01-.2706.32468l-.03146.00154h-1.25892c-.1564 0-.28503-.11886-.3005-.27117l-.00156-.03089v-1.66267c0-.06673-.04868-.12209-.11247-.13249l-.02178-.00176h-1.57004c-.06672 0-.12208.04869-.13249.11248l-.00175.02177V20.238c0 .1564-.11886.28503-.27118.3005l-.03088.00156h-.91826c-.1564 0-.28504-.11886-.3005-.27117l-.00156-.03089v-1.66267c0-.06673-.04869-.12209-.11248-.13249l-.02177-.00176h-1.57071c-.06673 0-.12209.04869-.1325.11248l-.00175.02177V20.238c0 .1564-.11886.28503-.27118.3005l-.03088.00156H30.1207c-.53353-.00063-1.00676-.3427-1.17468-.84912-.96357-2.8991-3.69184-4.99305-6.91146-5.00714-1.94706-.01596-3.8196.74761-5.2003 2.12056s-2.1548 3.24115-2.1498 5.18827c-.00404 4.04424 3.2733 7.32394 7.31654 7.32394 3.23103 0 5.97272-2.09428 6.942-4.99942.16138-.49215.60957-.8311 1.1231-.85575l.05527-.00143h13.50507a.30206.30206 0 01.30206.3269C43.01897 35.10132 33.54874 44 22 44 9.84982 44 0 34.14615 0 22.00034 0 9.85453 9.86795-.00738 22.01376 0z"></path>
</svg>