<svg width="160" height="160" viewBox="0 0 160 160" fill="none" xmlns="http://www.w3.org/2000/svg">
<path d="M41.0033 124.155H39.5127C28.8949 124.155 24.3314 123.123 24.5148 116.496C24.5836 113.285 25.6156 107.3 27.4731 99.3194L28.5051 95.0769C28.9637 93.1506 29.2848 91.4765 29.5371 89.8712L33.2063 71.8004C33.5273 70.6308 33.8484 69.3466 34.1006 67.9478L37.3112 52.6288C39.8796 40.2682 41.7601 36.6678 52.0568 36.6678H59.1888L62.0095 23.0918H51.965C45.9109 23.0918 39.1687 23.3441 33.619 26.761C28.0694 30.1779 25.0652 36.4156 22.8637 46.8957L18.6212 67.9478C17.5892 72.5801 16.4426 73.5433 10.8929 73.5433H2.70603L0 87.3028H8.23277C11.8332 87.3028 13.5072 87.8073 13.4384 91.5453C13.3696 93.9991 12.6587 97.9205 11.2599 103.975L11.0764 104.548C9.79218 109.433 9.15006 114.455 8.94367 119.477C8.69142 133.122 16.3509 137.685 34.1006 137.685H67.1005L69.8065 124.178L41.0033 124.155Z" fill="url(#paint0_linear_60664_44956)"/>
<path d="M119.042 36.4384H120.533C131.151 36.4384 135.714 37.4704 135.531 44.1667C135.462 47.3772 134.43 53.3626 132.573 61.3431L131.541 65.5856C131.082 67.512 130.761 69.186 130.646 70.7913L126.977 88.9997C126.656 90.1693 126.335 91.4535 126.083 92.8524L122.872 108.171C120.304 120.532 118.423 124.132 108.127 124.132H100.926L97.8757 137.662H107.92C113.974 137.662 120.716 137.41 126.266 133.993C131.862 130.462 134.82 124.339 137.021 113.859L141.264 92.8065C142.296 88.1741 143.443 87.211 148.992 87.211H157.225L160 73.4515H151.882C148.281 73.4515 146.607 72.947 146.676 69.209C146.745 66.7552 147.456 62.8337 148.855 56.7796L149.038 56.2062C150.322 51.3216 150.964 46.2994 151.171 41.2084C151.423 27.5636 143.901 23 125.945 23H92.9223L90.1475 36.5072H119.042V36.4384Z" fill="#405CFF"/>
<path d="M83.1529 57.2393C87.6706 57.2393 90.6747 60.9085 89.8721 65.4262C89.0694 69.9439 84.7352 73.6131 80.2175 73.6131C75.6998 73.6131 72.6956 69.9439 73.4983 65.4262C74.3009 60.9085 78.6351 57.2393 83.1529 57.2393Z" fill="url(#paint1_linear_60664_44956)"/>
<path d="M78.0851 87.6465C82.6028 87.6465 85.607 91.3157 84.8043 95.8334C84.0017 100.351 79.6675 104.02 75.1498 104.02C70.6321 104.02 67.6279 100.351 68.4305 95.8334C69.2332 91.3157 73.5674 87.6465 78.0851 87.6465Z" fill="url(#paint2_linear_60664_44956)"/>
<defs>
<linearGradient id="paint0_linear_60664_44956" x1="82.8011" y1="22.6456" x2="14.9141" y2="140.229" gradientUnits="userSpaceOnUse">
<stop offset="0.2" stop-color="#22E6B8"/>
<stop offset="1" stop-color="#00C1CE"/>
</linearGradient>
<linearGradient id="paint1_linear_60664_44956" x1="94.5667" y1="43.104" x2="31.8608" y2="151.714" gradientUnits="userSpaceOnUse">
<stop offset="0.2" stop-color="#22E6B8"/>
<stop offset="1" stop-color="#00C1CE"/>
</linearGradient>
<linearGradient id="paint2_linear_60664_44956" x1="101.877" y1="52.0774" x2="39.1714" y2="160.687" gradientUnits="userSpaceOnUse">
<stop offset="0.2" stop-color="#22E6B8"/>
<stop offset="1" stop-color="#00C1CE"/>
</linearGradient>
</defs>
</svg>
