<svg width="226" height="226" viewBox="0 0 226 226" fill="none" xmlns="http://www.w3.org/2000/svg">
<rect x="0.144531" y="0.477539" width="225" height="225" rx="112.5" fill="url(#paint0_linear_17241_4335)"/>
<path d="M179.813 75.9788C184.266 134.678 145.492 162.424 110.73 165.381C78.4125 168.136 47.9919 148.812 45.3228 119.122C43.1225 94.5934 58.7004 84.146 70.9432 83.1072C83.5323 82.031 94.1129 90.4805 95.0293 100.71C95.9136 110.544 89.6058 115.019 85.2212 115.392C81.7529 115.691 77.3896 113.64 76.9954 109.239C76.6597 105.456 78.1355 104.945 77.7732 100.928C77.1339 93.7783 70.7248 92.9472 67.2192 93.2402C62.9731 93.6025 55.2694 98.424 56.3509 110.432C57.4378 122.547 69.3716 132.116 85.0187 130.784C101.902 129.351 113.66 116.554 114.544 98.6105C114.534 97.6621 114.741 96.7192 115.146 95.8561V95.8348C115.333 95.4565 115.546 95.0996 115.786 94.7533C116.148 94.2258 116.606 93.6451 117.203 93.0112C117.203 93.0112 117.208 93.0058 117.219 92.9952C117.65 92.521 118.178 92.0042 118.769 91.4502C126.142 84.6788 152.706 68.7067 177.831 73.7626C178.363 73.8744 178.843 74.1461 179.2 74.5457C179.557 74.9453 179.77 75.4408 179.813 75.9682V75.9788Z" fill="white"/>
<defs>
<linearGradient id="paint0_linear_17241_4335" x1="201.938" y1="54.1593" x2="10.081" y2="131.035" gradientUnits="userSpaceOnUse">
<stop stop-color="#0CC5FF"/>
<stop offset="1" stop-color="#007FFF"/>
</linearGradient>
</defs>
</svg>
