<?xml version="1.0" encoding="UTF-8"?>
<svg width="225px" height="224px" viewBox="0 0 225 224" version="1.1" xmlns="http://www.w3.org/2000/svg" xmlns:xlink="http://www.w3.org/1999/xlink">
    <title>okx</title>
    <g id="Page-1" stroke="none" stroke-width="1" fill="none" fill-rule="evenodd">
        <g id="okx" transform="translate(0.401000, 0.006000)" fill="#000000" fill-rule="nonzero">
            <path d="M144.382,74.667 L79.673,74.667 C76.924,74.667 74.695,76.895 74.695,79.644 L74.695,144.354 C74.695,147.103 76.924,149.332 79.673,149.332 L144.382,149.332 C147.131,149.332 149.36,147.103 149.36,144.354 L149.36,79.644 C149.36,76.895 147.131,74.667 144.382,74.667 Z" id="Path"></path>
            <path d="M69.687,0 L4.978,0 C2.229,0 0,2.228 0,4.978 L0,69.687 C0,72.436 2.229,74.665 4.978,74.665 L69.687,74.665 C72.437,74.665 74.665,72.436 74.665,69.687 L74.665,4.978 C74.665,2.228 72.437,0 69.687,0 Z" id="Path"></path>
            <path d="M219.017,0 L154.307,0 C151.558,0 149.329,2.228 149.329,4.978 L149.329,69.687 C149.329,72.436 151.558,74.665 154.307,74.665 L219.017,74.665 C221.766,74.665 223.994,72.436 223.994,69.687 L223.994,4.978 C223.994,2.228 221.766,0 219.017,0 Z" id="Path"></path>
            <path d="M69.687,149.328 L4.978,149.328 C2.229,149.328 0,151.556 0,154.305 L0,219.015 C0,221.764 2.229,223.993 4.978,223.993 L69.687,223.993 C72.437,223.993 74.665,221.764 74.665,219.015 L74.665,154.305 C74.665,151.556 72.437,149.328 69.687,149.328 Z" id="Path"></path>
            <path d="M219.017,149.328 L154.307,149.328 C151.558,149.328 149.329,151.556 149.329,154.305 L149.329,219.015 C149.329,221.764 151.558,223.993 154.307,223.993 L219.017,223.993 C221.766,223.993 223.994,221.764 223.994,219.015 L223.994,154.305 C223.994,151.556 221.766,149.328 219.017,149.328 Z" id="Path"></path>
        </g>
    </g>
</svg>