<svg width="128" height="128" viewBox="0 0 128 128" fill="none" xmlns="http://www.w3.org/2000/svg">
<g clip-path="url(#clip0_2195_31432)">
<rect width="128" height="128" rx="64" fill="#151923"/>
<path d="M53.0115 36.256C50.4588 37.0222 45.6899 32.8618 42.3317 29.3197C41.5258 28.4697 39.9274 29.0258 39.7539 30.1842C39.1422 34.2691 37.3966 39.5259 33.3648 41.6185C29.3634 43.6952 24.3216 41.2919 20.8186 38.7201C19.8446 38.0051 18.2245 38.8325 18.2828 40.0394C18.4905 44.3368 18.1281 49.8636 15.823 52.3433C13.4737 54.8705 8.13152 54.3529 4.06268 53.3513C2.92301 53.0707 1.81072 54.381 2.27142 55.4605C3.74485 58.913 5.21079 63.8428 4.59628 68.0846C3.99301 72.2489 -1.02864 73.8202 -5.52662 74.2493C-6.81065 74.3718 -7.54925 76.4644 -6.65186 77.3909C-4.16605 79.9573 -1.93759 83.4685 -2.77125 86.9395C-3.6442 90.5741 -7.24899 93.2061 -10.4927 94.7897C-11.6067 95.3335 -11.6421 97.3228 -10.5372 97.8851C-6.83336 99.77 -2.77125 102.844 -2.77125 106.659C-2.77125 111.178 -11.4934 114.232 -17.6949 115.624C-18.7588 115.863 -19.1222 117.282 -18.3142 118.014C-14.8125 121.187 -10.3142 126.24 -10.3142 130.185C-10.3142 134.067 -16.2506 137.913 -20.9855 140.207C-22.0421 140.718 -22.0062 142.394 -20.9343 142.873C-16.4676 144.87 -10.8672 148.355 -10.3142 152.499C-9.78834 156.44 -13.6961 160.951 -17.238 164.008C-18.1741 164.816 -17.6229 166.612 -16.3937 166.747C-10.7583 167.365 -3.65512 169.328 -2.77125 174.122C-2.12267 177.64 -3.19924 180.826 -4.64129 183.235C-5.31236 184.356 -4.16016 186.528 -2.8563 186.446C2.13818 186.132 8.27845 186.714 10.9113 190.209C13.6703 193.872 14.1291 199.281 13.9107 203.148C13.8466 204.282 15.2336 205.161 16.2367 204.627C20.3875 202.417 26.5913 200.578 30.7335 204.221C34.0047 207.098 35.5446 210.767 36.1778 213.765C36.437 214.993 38.4969 215.712 39.3951 214.836C43.0398 211.28 48.4387 207.727 53.0115 209.929C57.6511 212.163 60.8596 216.791 62.5734 220.225C63.0644 221.21 64.5918 221.319 65.1833 220.391C67.9206 216.099 72.6615 210.384 77.3946 209.929C82.0555 209.481 87.1845 213.164 90.3012 216.143C91.0661 216.874 92.4294 216.496 92.6791 215.468C93.8776 210.535 96.3806 203.593 100.023 202.318C103.319 201.165 108.769 202.917 112.743 204.686C113.83 205.171 115.226 203.984 115.032 202.81C114.444 199.263 114.641 194.35 117.741 190.209C121.128 185.684 127.5 186.423 132.17 187.625C133.322 187.921 134.459 186.533 134.014 185.431C132.472 181.607 131.197 176.047 132.651 172.565C134.18 168.904 140.34 167.31 145.147 166.755C146.332 166.619 146.88 164.962 146.011 164.145C142.756 161.087 138.966 156.5 138.966 152.499C138.966 148.514 144.072 145.138 148.478 143.109C149.602 142.592 149.575 140.688 148.444 140.185C144.045 138.231 138.966 134.788 138.966 130.185C138.966 125.576 142.718 121.139 145.962 118.329C146.856 117.555 146.434 115.864 145.276 115.622C139.888 114.494 132.99 111.791 132.651 106.659C132.365 102.341 135.454 99.4766 138.566 97.8289C139.679 97.2396 139.743 95.1465 138.61 94.5964C134.863 92.7769 130.696 90.0022 130.195 86.9395C129.646 83.5808 133.362 79.2253 136.544 76.3305C137.383 75.5676 136.965 74.0452 135.851 73.8317C131.386 72.9755 125.417 71.1513 123.529 68.0846C121.674 65.0704 123.307 60.0464 125.059 56.4978C125.551 55.5031 124.675 54.2389 123.573 54.3684C119.265 54.8749 113.2 54.8654 110.198 52.3433C107.633 50.1892 107.817 46.0122 108.693 42.4824C109 41.2448 107.359 39.8617 106.199 40.3906C102.651 42.0076 98.0515 43.2325 94.5855 41.6185C90.8626 39.8848 89.2608 34.7883 88.699 30.6345C88.5357 29.4272 86.7687 28.8403 85.9352 29.7288C83.044 32.8106 78.8376 36.256 75.1141 36.256C70.8822 36.256 66.9293 30.3489 64.7607 25.957C64.2997 25.0232 62.9386 24.9284 62.3791 25.8068C59.8035 29.8503 55.7037 35.4481 53.0115 36.256Z" fill="white"/>
<path fill-rule="evenodd" clip-rule="evenodd" d="M63.4824 27.4169C62.2344 29.3349 60.6906 31.5266 59.1174 33.4013C58.2421 34.4442 57.3306 35.4216 56.4325 36.2061C55.5659 36.9631 54.5718 37.6663 53.5287 37.9793C52.3286 38.3395 51.0969 38.068 50.0795 37.6679C49.0284 37.2545 47.9521 36.6033 46.9239 35.8647C45.0269 34.5022 43.0809 32.6868 41.4463 30.9967C41.1018 33.03 40.487 35.3282 39.4594 37.4366C38.3417 39.73 36.669 41.9307 34.1936 43.2154C31.6327 44.5445 28.8481 44.3775 26.3854 43.6351C24.0753 42.9388 21.8886 41.6933 20.1004 40.421C20.1807 42.5326 20.1247 44.9284 19.7725 47.1541C19.4041 49.4811 18.6676 51.9259 17.1409 53.5682C15.4684 55.3675 12.934 55.9033 10.6392 55.9691C8.45692 56.0317 6.13276 55.6803 4.11943 55.2146C5.57068 58.7425 7.03498 63.8011 6.37709 68.3423C5.96285 71.2018 4.01663 73.0447 1.81388 74.1699C-0.306717 75.2531 -2.85817 75.7867 -5.16673 76.0217C-5.18272 76.05 -5.19855 76.0838 -5.21214 76.122C-5.22875 76.1686 -5.23918 76.2138 -5.24427 76.253C-5.24448 76.2546 -5.24467 76.2562 -5.24486 76.2577C-3.95541 77.6071 -2.68713 79.2456 -1.83686 81.0633C-0.958371 82.9414 -0.481938 85.1126 -1.02161 87.3595C-1.56741 89.632 -2.94126 91.4924 -4.52076 92.9541C-6.05543 94.3744 -7.86442 95.4943 -9.54628 96.3292C-9.54715 96.3385 -9.5477 96.3483 -9.54786 96.3585C-9.54793 96.3624 -9.54793 96.3662 -9.54787 96.37C-7.64991 97.3511 -5.60386 98.6621 -3.99182 100.277C-2.34213 101.93 -0.97185 104.083 -0.97185 106.659C-0.97185 108.411 -1.82571 109.875 -2.93896 111.023C-4.04601 112.165 -5.52297 113.121 -7.09219 113.918C-9.98946 115.391 -13.5221 116.484 -16.5384 117.203C-14.8717 118.763 -13.0328 120.703 -11.5447 122.753C-9.93456 124.972 -8.5148 127.616 -8.5148 130.185C-8.5148 132.995 -10.5939 135.396 -12.721 137.172C-14.7647 138.879 -17.2933 140.371 -19.574 141.517C-17.4147 142.525 -15.0223 143.867 -13.0254 145.481C-10.888 147.209 -8.90002 149.493 -8.53061 152.261C-8.18087 154.882 -9.31462 157.455 -10.7601 159.593C-12.1282 161.617 -13.9389 163.492 -15.662 165.02C-12.8773 165.361 -9.72203 166.029 -7.06148 167.228C-4.28164 168.48 -1.60513 170.523 -1.00168 173.796C-0.259005 177.823 -1.47878 181.416 -3.03687 184.057C-3.02751 184.146 -2.98968 184.283 -2.90979 184.43C-2.85834 184.524 -2.80561 184.593 -2.76402 184.638C-0.220732 184.49 2.65927 184.565 5.29685 185.141C7.973 185.725 10.6587 186.883 12.3485 189.126C15.4044 193.183 15.9017 198.896 15.7267 202.863C17.8698 201.759 20.5468 200.738 23.2942 200.44C26.2074 200.124 29.3564 200.613 31.9218 202.869C35.5166 206.031 37.2081 210.03 37.9133 213.276C37.9294 213.289 37.9505 213.303 37.9771 213.319C38.0203 213.344 38.0707 213.367 38.1248 213.385C38.1783 213.404 38.2281 213.415 38.2702 213.42C40.155 211.601 42.5397 209.728 45.1238 208.579C47.7726 207.4 50.8547 206.893 53.7923 208.308C58.7487 210.695 62.1144 215.436 63.9559 218.975C65.3448 216.854 67.1912 214.43 69.2982 212.419C71.5097 210.309 74.2466 208.424 77.2222 208.138C80.0627 207.864 82.8866 208.853 85.2926 210.173C87.5033 211.386 89.5124 212.963 91.0879 214.413C91.7059 212.004 92.6162 209.183 93.8188 206.729C94.4736 205.393 95.2405 204.113 96.1324 203.056C97.0166 202.008 98.1067 201.082 99.4291 200.619C101.567 199.871 104.165 200.115 106.527 200.651C108.854 201.179 111.227 202.056 113.229 202.934C112.63 199.121 112.852 193.738 116.3 189.131C118.391 186.337 121.38 185.237 124.315 184.977C127.057 184.733 129.88 185.205 132.218 185.781C131.453 183.823 130.763 181.468 130.428 179.124C130.08 176.694 130.08 174.052 130.991 171.872C132.042 169.353 134.544 167.799 137.006 166.822C139.339 165.896 141.994 165.346 144.343 165.041C142.774 163.524 141.101 161.668 139.771 159.674C138.342 157.533 137.167 155.025 137.167 152.499C137.167 149.721 138.926 147.426 140.886 145.715C142.779 144.062 145.153 142.69 147.333 141.658C145.135 140.648 142.741 139.261 140.835 137.5C138.828 135.647 137.167 133.191 137.167 130.185C137.167 127.399 138.294 124.792 139.746 122.591C141.105 120.53 142.823 118.713 144.43 117.28C141.745 116.682 138.676 115.698 136.147 114.187C133.499 112.604 131.083 110.212 130.856 106.778C130.503 101.442 134.311 98.076 137.611 96.2987C137.613 96.2921 137.615 96.2848 137.617 96.2769C137.625 96.2423 137.63 96.2025 137.631 96.1612C137.632 96.1468 137.631 96.1331 137.631 96.1203C135.741 95.1901 133.705 94.0023 132.037 92.6192C130.366 91.2341 128.777 89.4181 128.419 87.2298C128.029 84.8424 129.159 82.4157 130.477 80.4566C131.708 78.6262 133.319 76.8868 134.832 75.4632C132.682 75.0189 130.237 74.3607 128.036 73.4494C125.677 72.4732 123.254 71.0695 121.997 69.0278C120.719 66.9521 120.747 64.3956 121.173 62.1548C121.57 60.0721 122.364 57.9795 123.195 56.2202C121.077 56.4385 118.588 56.5301 116.208 56.281C113.659 56.0142 110.956 55.3298 109.04 53.7209C107.271 52.2349 106.555 50.1307 106.364 48.0971C106.178 46.1277 106.463 44.051 106.905 42.2176C106.898 42.2096 106.891 42.2014 106.883 42.1929C106.869 42.1787 106.854 42.1647 106.838 42.1514C106.822 42.138 106.806 42.1258 106.79 42.1151C106.785 42.1115 106.779 42.1081 106.774 42.1049C104.94 42.9273 102.804 43.6663 100.631 43.9951C98.3994 44.3327 95.9912 44.2578 93.8258 43.2495C91.4326 42.135 89.8569 40.0082 88.8255 37.7934C87.8471 35.6922 87.2787 33.3461 86.9692 31.2532C85.5143 32.7725 83.7398 34.3809 81.8317 35.6472C79.834 36.9729 77.494 38.0552 75.1141 38.0552C72.1842 38.0552 69.6791 36.0562 67.8146 33.9441C66.0674 31.9649 64.5816 29.5448 63.4824 27.4169ZM-3.03883 184.007C-3.03874 184.007 -3.03879 184.009 -3.03924 184.013C-3.03913 184.009 -3.03892 184.007 -3.03883 184.007ZM60.8614 24.8398C62.2034 22.7329 65.3164 23.0178 66.3742 25.1601C67.4193 27.2768 68.8677 29.6991 70.5126 31.5624C72.2247 33.5019 73.812 34.4564 75.1141 34.4564C76.4577 34.4564 78.0826 33.8159 79.8417 32.6485C81.5671 31.5035 83.2358 29.9759 84.6228 28.4974L85.9351 29.7286L84.6228 28.4974C85.6516 27.4008 87.1072 27.349 88.1314 27.6864C89.1551 28.0236 90.2834 28.9232 90.4822 30.3931C90.7484 32.3616 91.2538 34.4827 92.088 36.2742C92.9287 38.0795 94.0154 39.3678 95.3451 39.987C96.6457 40.5927 98.2704 40.7124 100.092 40.4367C101.904 40.1626 103.776 39.517 105.452 38.753C106.899 38.0933 108.337 38.71 109.154 39.3963C109.971 40.0832 110.819 41.3858 110.439 42.9156C110.028 44.5713 109.807 46.2805 109.947 47.7599C110.086 49.2358 110.56 50.2971 111.355 50.9652L110.198 52.3431L111.355 50.9652C112.442 51.8784 114.272 52.4598 116.583 52.7017C118.839 52.9378 121.291 52.8246 123.363 52.5811C124.693 52.4247 125.791 53.1211 126.391 53.9835C126.99 54.8446 127.259 56.1067 126.673 57.2944C125.838 58.9846 125.063 60.9671 124.709 62.828C124.345 64.7398 124.484 66.2024 125.062 67.1409C125.693 68.1659 127.198 69.2077 129.412 70.1242C131.547 71.0081 134.028 71.6496 136.19 72.0642C137.541 72.3232 138.378 73.3613 138.664 74.3955C138.95 75.4284 138.765 76.743 137.755 77.6614C136.223 79.0552 134.611 80.7584 133.463 82.4651C132.265 84.2471 131.812 85.6774 131.971 86.6488C132.114 87.5232 132.859 88.626 134.334 89.8487C135.754 91.0261 137.593 92.1017 139.396 92.9774C140.833 93.675 141.251 95.1768 141.229 96.2342C141.208 97.2976 140.737 98.7151 139.408 99.419C136.51 100.953 134.232 103.301 134.447 106.54C134.559 108.238 135.761 109.764 137.993 111.097C140.194 112.412 143.05 113.317 145.645 113.86C147.059 114.156 147.871 115.296 148.134 116.336C148.395 117.375 148.221 118.753 147.14 119.689C145.601 121.022 143.977 122.713 142.75 124.573C141.514 126.446 140.765 128.361 140.765 130.185C140.765 131.781 141.644 133.349 143.276 134.856C144.898 136.354 147.075 137.608 149.175 138.541C150.56 139.156 151.092 140.53 151.106 141.619C151.12 142.707 150.621 144.103 149.231 144.743C147.109 145.72 144.901 146.987 143.253 148.425C141.559 149.905 140.765 151.292 140.765 152.499C140.765 153.974 141.485 155.76 142.764 157.676C144.018 159.555 145.677 161.362 147.243 162.833C148.304 163.83 148.399 165.237 148.058 166.27C147.716 167.303 146.8 168.376 145.353 168.543C143.035 168.81 140.464 169.322 138.333 170.167C136.131 171.042 134.788 172.116 134.312 173.258C133.768 174.56 133.679 176.439 133.99 178.614C134.295 180.747 134.955 182.952 135.683 184.757C136.215 186.076 135.753 187.387 135.074 188.203C134.394 189.02 133.157 189.737 131.722 189.367C129.462 188.786 126.933 188.357 124.633 188.561C122.368 188.762 120.477 189.556 119.181 191.287C116.482 194.893 116.265 199.244 116.807 202.516C117.036 203.9 116.324 205.083 115.518 205.753C114.712 206.424 113.37 206.935 112.011 206.33C110.088 205.474 107.849 204.641 105.731 204.161C103.55 203.666 101.775 203.611 100.618 204.016C100.119 204.191 99.5298 204.61 98.8827 205.377C98.2433 206.135 97.6266 207.137 97.0505 208.313C95.8978 210.665 95.0098 213.497 94.4277 215.893C93.8385 218.318 90.787 219.096 89.058 217.443C87.5759 216.027 85.6398 214.469 83.5613 213.328C81.4583 212.174 79.3873 211.545 77.5668 211.72C75.8094 211.889 73.8094 213.089 71.7828 215.023C69.8019 216.913 68.0207 219.289 66.7004 221.359C65.9832 222.483 64.7573 222.889 63.7212 222.821C62.6882 222.752 61.5448 222.194 60.9632 221.029C59.3201 217.735 56.3416 213.53 52.2307 211.55C50.5954 210.763 48.6917 210.93 46.5866 211.867C44.4775 212.805 42.3916 214.426 40.6517 216.124C39.5163 217.232 37.9499 217.126 36.9688 216.794C35.9793 216.458 34.7282 215.61 34.4171 214.137C33.8405 211.406 32.4494 208.126 29.5451 205.572C27.9683 204.185 25.9443 203.772 23.6823 204.018C21.4 204.265 19.0376 205.174 17.0824 206.215C15.8825 206.854 14.5872 206.59 13.7087 206.032C12.8298 205.474 12.037 204.41 12.1141 203.046C12.3264 199.288 11.8354 194.426 9.47403 191.292C8.53099 190.04 6.83014 189.159 4.52931 188.657C2.26121 188.162 -0.341604 188.091 -2.74318 188.242C-4.4387 188.349 -5.57301 187.063 -6.06907 186.153C-6.57559 185.225 -6.99387 183.661 -6.18523 182.311C-4.88793 180.144 -3.996 177.403 -4.5409 174.448C-4.82132 172.927 -6.13833 171.591 -8.5399 170.509C-10.8886 169.451 -13.8645 168.834 -16.59 168.535C-18.1081 168.369 -19.0247 167.209 -19.3477 166.159C-19.6707 165.11 -19.565 163.639 -18.4137 162.646C-16.7108 161.176 -14.9747 159.401 -13.7414 157.577C-12.479 155.71 -11.9218 154.057 -12.0979 152.737C-12.2814 151.362 -13.3702 149.83 -15.2878 148.28C-17.1509 146.774 -19.5157 145.478 -21.6687 144.516C-22.9673 143.936 -23.5354 142.677 -23.5572 141.588C-23.5791 140.498 -23.0594 139.212 -21.77 138.587C-19.4701 137.473 -16.9465 136.012 -15.0276 134.41C-13.0027 132.719 -12.1137 131.256 -12.1137 130.185C-12.1137 128.809 -12.9431 126.954 -14.4575 124.867C-15.9228 122.848 -17.8273 120.884 -19.5224 119.348C-21.3911 117.655 -20.6023 114.432 -18.089 113.868C-15.0569 113.188 -11.4891 112.116 -8.72292 110.71C-7.33641 110.005 -6.24524 109.263 -5.52308 108.518C-4.80713 107.78 -4.57073 107.166 -4.57073 106.659C-4.57073 105.42 -5.2315 104.129 -6.53884 102.82C-7.83464 101.521 -9.59553 100.383 -11.3534 99.4885C-12.7187 98.7937 -13.163 97.3666 -13.1463 96.302C-13.1296 95.2369 -12.6428 93.8367 -11.2822 93.1724L-10.4928 94.7894L-11.2822 93.1724C-9.76423 92.4313 -8.21421 91.4687 -6.96521 90.3128C-5.71314 89.1541 -4.84812 87.8812 -4.52097 86.5191C-4.22698 85.295 -4.44795 83.9751 -5.09672 82.5882C-5.74856 81.1947 -6.78716 79.8374 -7.94443 78.6426C-9.05262 77.4984 -8.96086 75.9212 -8.60248 74.9147C-8.24494 73.9106 -7.31076 72.6116 -5.69753 72.4578C-3.55713 72.2536 -1.43074 71.7861 0.176737 70.9649C1.76013 70.1561 2.62637 69.1312 2.8154 67.8264C3.35733 64.0855 2.05316 59.5332 0.616366 56.1666C0.0566485 54.855 0.503056 53.5461 1.19523 52.7309C1.88744 51.9157 3.10725 51.2627 4.49278 51.6038C6.44202 52.0836 8.62101 52.4266 10.5361 52.3717C12.517 52.3149 13.8283 51.8459 14.505 51.1179C15.2834 50.2806 15.8806 48.722 16.2178 46.5914C16.5448 44.5258 16.5858 42.2023 16.4854 40.126C16.4132 38.6318 17.3779 37.5558 18.3377 37.0601C19.2959 36.5651 20.7076 36.4061 21.8834 37.2694C23.5379 38.484 25.4888 39.606 27.4241 40.1894C29.3583 40.7724 31.0953 40.7687 32.5358 40.0211C34.0924 39.2132 35.3084 37.7392 36.2243 35.8599C37.1373 33.9867 37.6862 31.8412 37.9743 29.9175C38.1812 28.5361 39.2087 27.6411 40.2261 27.295C41.2479 26.9474 42.6411 27.0305 43.6375 28.0814C45.2806 29.8146 47.2236 31.649 49.0234 32.9417C49.9262 33.5902 50.7307 34.0568 51.3967 34.3187C52.0963 34.5939 52.418 34.5552 52.4942 34.5323C52.7973 34.4414 53.3252 34.1418 54.065 33.4956C54.7732 32.8769 55.5525 32.0506 56.3606 31.0877C57.9751 29.1641 59.5969 26.8249 60.8614 24.8398L62.3791 25.8065L62.3878 25.8121M60.8614 24.8398L62.3791 25.8065Z" fill="#151923"/>
<path fill-rule="evenodd" clip-rule="evenodd" d="M96.8303 59.8049V63.515H101.006V58.4822C101.006 56.027 98.446 54.4107 96.2292 55.4663L88.1971 59.2911L89.9923 63.0611L96.8303 59.8049ZM91.9722 89.6049C92.4166 93.1635 90.6788 96.3103 88.0908 96.6334C85.5027 96.9566 83.0445 94.3339 82.6001 90.7753C82.1557 87.2168 83.8935 84.07 86.4815 83.7468C89.0695 83.4236 91.5278 86.0464 91.9722 89.6049ZM49.8119 90.8224C50.0372 94.4015 48.1097 97.4357 45.5067 97.5996C42.9038 97.7634 40.611 94.9948 40.3857 91.4157C40.1604 87.8366 42.0879 84.8023 44.6909 84.6385C47.2938 84.4746 49.5866 87.2432 49.8119 90.8224ZM67.8247 95.8228C69.277 95.7676 70.4622 96.1564 71.1995 96.6509C71.9405 97.1479 72.0134 97.5643 72.0178 97.6793C72.0221 97.7942 71.9811 98.215 71.28 98.7668C70.5823 99.3159 69.4301 99.7936 67.9778 99.8489C66.5255 99.9041 65.3403 99.5153 64.6029 99.0207C63.8619 98.5238 63.7891 98.1073 63.7847 97.9924C63.7803 97.8775 63.8214 97.4567 64.5225 96.9049C65.2201 96.3557 66.3724 95.878 67.8247 95.8228ZM67.6879 92.2265C71.9476 92.0645 75.4962 94.4445 75.614 97.5425C75.6993 99.7834 73.9659 101.786 71.3881 102.784C71.4985 103.3 71.6796 103.939 71.951 104.618C72.4622 105.896 73.1835 107.035 74.0468 107.693C74.9528 108.383 76.1349 108.282 77.8225 107.241C79.1496 106.423 80.2975 105.319 81.1554 104.493L81.1559 104.493L81.1571 104.491C81.3676 104.289 81.5606 104.103 81.7345 103.943C82.4648 103.268 83.6032 103.314 84.2773 104.044C84.9514 104.775 84.9058 105.913 84.1756 106.587C84.0696 106.685 83.9319 106.818 83.7666 106.978L83.7661 106.979C82.9375 107.781 81.4157 109.254 79.7114 110.305C77.7006 111.545 74.6435 112.672 71.8657 110.555C70.5917 109.585 69.6763 108.232 69.0392 106.926C68.6117 108.216 67.961 109.6 66.9776 110.794C65.1767 112.981 62.325 113.305 60.1457 113.085C59.0056 112.97 57.9048 112.697 56.9668 112.347C56.0651 112.011 55.1692 111.549 54.5447 110.972C53.8144 110.298 53.7689 109.16 54.443 108.43C55.117 107.699 56.2555 107.654 56.9857 108.328C57.1214 108.453 57.5265 108.715 58.2254 108.976C58.8881 109.223 59.6877 109.422 60.5064 109.504C62.2448 109.679 63.5446 109.301 64.1995 108.506C64.9644 107.577 65.4877 106.364 65.8163 105.15C65.9953 104.489 66.1067 103.864 66.1709 103.34C62.825 102.842 60.2878 100.741 60.1884 98.1292C60.0706 95.0312 63.4282 92.3885 67.6879 92.2265ZM36.3367 65.6932L29.9115 62.1425L29.9115 70.0055L25.736 70.0055L25.736 60.7269C25.736 58.1831 28.4658 56.5728 30.6922 57.8031L38.3563 62.0386L36.3367 65.6932Z" fill="#151923"/>
</g>
<defs>
<clipPath id="clip0_2195_31432">
<rect width="128" height="128" rx="64" fill="white"/>
</clipPath>
</defs>
</svg>
