<?xml version="1.0" encoding="UTF-8"?>
<svg width="50px" height="48px" viewBox="0 0 50 48" version="1.1" xmlns="http://www.w3.org/2000/svg" xmlns:xlink="http://www.w3.org/1999/xlink">
    <title>tomo</title>
    <defs>
        <radialGradient cx="50.0029854%" cy="50.0173158%" fx="50.0029854%" fy="50.0173158%" r="65.1266558%" gradientTransform="translate(0.500030,0.500173),scale(0.956692,1.000000),translate(-0.500030,-0.500173)" id="radialGradient-1">
            <stop stop-color="#F21F7F" offset="47%"></stop>
            <stop stop-color="#EB3F9F" offset="60%"></stop>
            <stop stop-color="#E558B9" offset="73%"></stop>
            <stop stop-color="#E168C9" offset="85%"></stop>
            <stop stop-color="#E06DCE" offset="94%"></stop>
        </radialGradient>
    </defs>
    <g id="Page-1" stroke="none" stroke-width="1" fill="none" fill-rule="evenodd">
        <g id="tomo" transform="translate(0.000000, 0.083498)" fill-rule="nonzero">
            <path d="M0.771537973,35.7935019 C-1.13031003,29.3458019 0.682657973,22.6150019 4.03776997,16.7750019 C5.21401997,14.7285019 6.36752997,13.1925019 7.81044997,11.3279019 C9.18224997,9.54010194 10.669,7.84342194 12.2612,6.24872194 C13.2369,5.27919194 14.192,4.28692194 15.2504,3.40629194 C16.1434,2.66415194 17.9006,1.02484194 19.1781,1.72770194 C20.0298,2.19489194 20.2117,3.20783194 20.1146,4.05746194 C20.0112,4.97324194 19.451,6.12469194 20.4019,6.69731194 C21.1316,7.14176194 22.2976,6.64977194 22.8991,6.05647194 C24.3462,4.63835194 32.2141,-2.56385806 33.8699,0.960761937 C34.0994,1.45276194 33.9257,2.03778194 33.6859,2.52565194 C33.1381,3.64608194 32.4063,5.21304194 33.7334,6.14123194 C34.7485,6.85855194 35.8937,6.22805194 36.8942,5.84768194 C38.6514,5.17790194 40.4933,4.52672194 42.3765,4.36341194 C43.3399,4.27659194 44.7538,4.26212194 45.1735,5.35568194 C45.7296,6.80274194 44.5161,7.91077194 43.6231,8.86997194 C43.1249,9.40740194 42.267,10.0628019 42.176,11.0137019 C42.0292,12.5352019 44.3652,12.8597019 45.5228,13.0685019 C46.2038,13.1614019 46.8778,13.2996019 47.5405,13.4819019 C48.5327,13.7528019 49.8992,14.3791019 49.9219,15.5740019 C49.9446,16.8681019 48.4583,17.5316019 47.648,18.1146019 C47.648,18.1146019 43.5321,20.2149019 43.4246,22.5819019 C43.3481,24.2729019 44.8076,25.2920019 46.2236,26.1086019 C47.0919,26.6109019 48.1028,26.8197019 48.9607,27.3489019 C49.5085,27.6879019 50.0625,28.3205019 49.9943,29.0027019 C49.924,29.7365019 49.1012,30.3112019 48.4996,30.6110019 C47.8154,30.9541019 47.0361,31.0368019 46.3084,31.2518019 C45.4438,31.5026019 44.6054,31.8363019 43.805,32.2482019 C43.036,32.6493019 42.1822,33.1867019 41.806,34.0054019 C41.3595,34.9790019 41.5041,35.6137019 41.9341,36.5708019 C42.3641,37.5279019 43.4536,38.3838019 43.7802,39.4112019 C44.4004,41.3647019 42.3807,42.2371019 40.8303,42.5782019 C38.2373,43.1629019 35.676,43.8805019 33.1567,44.7281019 C30.2812,45.6811019 27.4388,47.0744019 24.3607,47.4981019 C22.0463,47.8273019 19.7039,47.9153019 17.3714,47.7607019 C12.9062,47.4444019 8.35823997,46.0656019 5.04447997,42.9358019 C3.01497997,40.9737019 1.54078997,38.5096019 0.771537973,35.7935019 Z" id="Path" fill="url(#radialGradient-1)"></path>
            <path d="M2.84276997,30.6603019 C3.09703997,28.7791019 4.24226997,26.8297019 6.28881997,26.6271019 C9.38965997,26.3233019 11.3639,28.4504019 13.4373,29.2194019 C15.4549,29.9678019 16.6167,30.0463019 18.7542,29.7424019 C22.2478,29.2401019 28.2055,27.4189019 28.9187,32.3492019 C29.4087,35.7333019 28.6914,38.5902019 25.9316,41.0626019 C22.7336,43.9464019 17.7723,44.6285019 12.319,43.3531019 C9.90442997,42.7887019 7.48990997,41.3582019 5.70382997,39.6321019 C3.27483997,37.2940019 2.37970997,34.0919019 2.84276997,30.6603019 Z" id="Path" fill="#FFFFFF"></path>
            <path d="M7.99104997,35.4503019 C8.84389997,35.4503019 9.53525997,34.5220019 9.53525997,33.3769019 C9.53525997,32.2318019 8.84389997,31.3035019 7.99104997,31.3035019 C7.13819997,31.3035019 6.44683997,32.2318019 6.44683997,33.3769019 C6.44683997,34.5220019 7.13819997,35.4503019 7.99104997,35.4503019 Z" id="Path" fill="#221F20"></path>
            <path d="M18.8657,37.4350019 C19.8852,37.4350019 20.7117,36.3243019 20.7117,34.9543019 C20.7117,33.5843019 19.8852,32.4736019 18.8657,32.4736019 C17.8461,32.4736019 17.0197,33.5843019 17.0197,34.9543019 C17.0197,36.3243019 17.8461,37.4350019 18.8657,37.4350019 Z" id="Path" fill="#221F20"></path>
            <path d="M10.4462,37.8793019 C11.0353,37.8793019 11.5128,37.3897019 11.5128,36.7857019 C11.5128,36.1817019 11.0353,35.6921019 10.4462,35.6921019 C9.85705997,35.6921019 9.37945997,36.1817019 9.37945997,36.7857019 C9.37945997,37.3897019 9.85705997,37.8793019 10.4462,37.8793019 Z" id="Path" fill="#221F20"></path>
            <path d="M12.3047,39.5764202 C11.8749,39.5778019 11.4485,39.4986019 11.0479,39.3428019 C10.9516,39.3039019 10.8748,39.2284019 10.8343,39.1328019 C10.7938,39.0372019 10.7929,38.9295019 10.8319,38.8333019 C10.8708,38.7371019 10.9463,38.6602019 11.0419,38.6197019 C11.1375,38.5792019 11.2452,38.5783019 11.3414,38.6172019 C11.4261,38.6503019 13.3859,39.4028019 14.4299,37.4637019 C14.4542,37.4184019 14.4871,37.3783019 14.5269,37.3457019 C14.5667,37.3131019 14.6125,37.2887019 14.6618,37.2738019 C14.711,37.2589019 14.7627,37.2539019 14.8139,37.2590019 C14.8651,37.2641019 14.9148,37.2792019 14.9601,37.3035019 C15.0054,37.3278019 15.0456,37.3608019 15.0781,37.4006019 C15.1107,37.4404019 15.1351,37.4862019 15.15,37.5355019 C15.1649,37.5847019 15.1699,37.6364019 15.1648,37.6876019 C15.1598,37.7388019 15.1446,37.7884019 15.1203,37.8338019 C14.3926,39.1919019 13.2577,39.5764202 12.3047,39.5764202 Z" id="Path" fill="#221F20"></path>
        </g>
    </g>
</svg>