<?xml version="1.0" encoding="UTF-8"?>
<svg width="748px" height="224px" viewBox="0 0 748 224" version="1.1" xmlns="http://www.w3.org/2000/svg"
    xmlns:xlink="http://www.w3.org/1999/xlink">
    <title>OKX_Logo</title>
    <g id="Page-1" stroke="none" stroke-width="1" fill="none" fill-rule="evenodd">
        <g id="OKX_Logo" transform="translate(0.654000, 0.000000)" fill="#000000" fill-rule="nonzero">
            <path
                d="M219.016,-5.68434189e-14 L4.977,-5.68434189e-14 C3.657,-5.68434189e-14 2.391,0.524 1.458,1.458 C0.524,2.391 0,3.657 0,4.978 L0,219.017 C0,220.337 0.524,221.603 1.458,222.536 C2.391,223.47 3.657,223.994 4.977,223.994 L219.016,223.994 C220.337,223.994 221.603,223.47 222.536,222.536 C223.47,221.603 223.994,220.337 223.994,219.017 L223.994,4.978 C223.994,3.657 223.47,2.391 222.536,1.458 C221.603,0.524 220.337,-5.68434189e-14 219.016,-5.68434189e-14 Z M149.329,144.352 C149.329,145.672 148.805,146.938 147.871,147.872 C146.938,148.805 145.672,149.33 144.352,149.33 L79.642,149.33 C78.322,149.33 77.056,148.805 76.122,147.872 C75.189,146.938 74.665,145.672 74.665,144.352 L74.665,79.642 C74.665,78.322 75.189,77.056 76.122,76.123 C77.056,75.189 78.322,74.665 79.642,74.665 L144.352,74.665 C145.672,74.665 146.938,75.189 147.871,76.123 C148.805,77.056 149.329,78.322 149.329,79.642 L149.329,144.352 Z"
                id="Shape"></path>
            <path
                d="M667.129,74.673 L602.42,74.673 C599.671,74.673 597.442,76.901 597.442,79.65 L597.442,144.36 C597.442,147.109 599.671,149.338 602.42,149.338 L667.129,149.338 C669.878,149.338 672.107,147.109 672.107,144.36 L672.107,79.65 C672.107,76.901 669.878,74.673 667.129,74.673 Z"
                id="Path"></path>
            <path
                d="M592.434,0.006 L527.725,0.006 C524.976,0.006 522.747,2.234 522.747,4.984 L522.747,69.693 C522.747,72.442 524.976,74.671 527.725,74.671 L592.434,74.671 C595.184,74.671 597.412,72.442 597.412,69.693 L597.412,4.984 C597.412,2.234 595.184,0.006 592.434,0.006 Z"
                id="Path"></path>
            <path
                d="M741.764,0.006 L677.054,0.006 C674.305,0.006 672.076,2.234 672.076,4.984 L672.076,69.693 C672.076,72.442 674.305,74.671 677.054,74.671 L741.764,74.671 C744.513,74.671 746.741,72.442 746.741,69.693 L746.741,4.984 C746.741,2.234 744.513,0.006 741.764,0.006 Z"
                id="Path"></path>
            <path
                d="M592.434,149.334 L527.725,149.334 C524.976,149.334 522.747,151.562 522.747,154.311 L522.747,219.021 C522.747,221.77 524.976,223.999 527.725,223.999 L592.434,223.999 C595.184,223.999 597.412,221.77 597.412,219.021 L597.412,154.311 C597.412,151.562 595.184,149.334 592.434,149.334 Z"
                id="Path"></path>
            <path
                d="M741.764,149.334 L677.054,149.334 C674.305,149.334 672.076,151.562 672.076,154.311 L672.076,219.021 C672.076,221.77 674.305,223.999 677.054,223.999 L741.764,223.999 C744.513,223.999 746.741,221.77 746.741,219.021 L746.741,154.311 C746.741,151.562 744.513,149.334 741.764,149.334 Z"
                id="Path"></path>
            <path
                d="M480.343,0.006 L415.634,0.006 C412.885,0.006 410.656,2.234 410.656,4.984 L410.656,69.693 C410.656,72.442 412.885,74.671 415.634,74.671 L480.343,74.671 C483.092,74.671 485.321,72.442 485.321,69.693 L485.321,4.984 C485.321,2.234 483.092,0.006 480.343,0.006 Z"
                id="Path"></path>
            <path
                d="M480.343,149.334 L415.634,149.334 C412.885,149.334 410.656,151.562 410.656,154.311 L410.656,219.021 C410.656,221.77 412.885,223.999 415.634,223.999 L480.343,223.999 C483.092,223.999 485.321,221.77 485.321,219.021 L485.321,154.311 C485.321,151.562 483.092,149.334 480.343,149.334 Z"
                id="Path"></path>
            <path
                d="M410.656,79.586 C410.656,78.266 410.131,77 409.198,76.067 C408.264,75.133 406.998,74.609 405.678,74.609 L335.991,74.609 L335.991,4.978 C335.991,3.657 335.466,2.391 334.533,1.458 C333.599,0.524 332.333,-5.68434189e-14 331.013,-5.68434189e-14 L266.304,-5.68434189e-14 C264.983,-5.68434189e-14 263.717,0.524 262.784,1.458 C261.85,2.391 261.326,3.657 261.326,4.978 L261.326,218.905 C261.326,220.225 261.85,221.491 262.784,222.424 C263.717,223.358 264.983,223.882 266.304,223.882 L331.013,223.882 C332.333,223.882 333.599,223.358 334.533,222.424 C335.466,221.491 335.991,220.225 335.991,218.905 L335.991,149.274 L405.678,149.274 C406.998,149.274 408.264,148.749 409.198,147.816 C410.131,146.882 410.656,145.616 410.656,144.296 L410.656,79.586 Z"
                id="Path"></path>
        </g>
    </g>
</svg>
