<svg width="20" height="20" viewBox="0 0 20 20" fill="none" xmlns="http://www.w3.org/2000/svg">
<path d="M3.33398 9.99967L9.76214 13.2328C9.84959 13.2768 9.89332 13.2988 9.93918 13.3075C9.97981 13.3151 10.0215 13.3151 10.0621 13.3075C10.108 13.2988 10.1517 13.2768 10.2392 13.2328L16.6673 9.99967M3.33398 13.3528L9.76214 16.586C9.84959 16.6299 9.89332 16.6519 9.93918 16.6606C9.97981 16.6683 10.0215 16.6683 10.0621 16.6606C10.108 16.6519 10.1517 16.6299 10.2392 16.586L16.6673 13.3528M3.33398 6.64655L9.76214 3.41339C9.84959 3.36941 9.89332 3.34741 9.93918 3.33876C9.97981 3.33109 10.0215 3.33109 10.0621 3.33876C10.108 3.34741 10.1517 3.36941 10.2392 3.41339L16.6673 6.64655L10.2392 9.87971C10.1517 9.9237 10.108 9.94569 10.0621 9.95435C10.0215 9.96201 9.97981 9.96201 9.93918 9.95435C9.89332 9.94569 9.84959 9.9237 9.76214 9.87971L3.33398 6.64655Z" stroke="#FF7C2A" stroke-width="1.5" stroke-linecap="round" stroke-linejoin="round"/>
</svg>
