<svg width="24" height="24" viewBox="0 0 24 24" fill="none" xmlns="http://www.w3.org/2000/svg">
<path d="M10.8985 1.19531C7.65005 1.85156 4.79068 2.41875 4.54693 2.46094C3.75474 2.59687 3.32349 2.88281 3.03755 3.45937L2.92974 3.67969L2.91568 9.03281C2.9063 14.3297 2.9063 14.3859 3.00005 14.6391C3.19693 15.1687 3.60474 15.5344 4.14849 15.6797C4.38755 15.7406 4.92193 15.75 8.00161 15.75H11.5782V17.8078V19.8656L11.4047 19.9266C10.9079 20.0859 10.5235 20.3719 10.2563 20.7844C10.1532 20.9437 10.0501 21.1594 10.0172 21.2672L9.96568 21.4688L5.10474 21.4781L0.243801 21.4922L0.121926 21.6047C5.14085e-05 21.7219 -0.0421361 21.9609 0.0281764 22.1484C0.112551 22.3641 0.0188015 22.3594 5.13286 22.3594C9.67036 22.3594 9.94224 22.3641 9.96568 22.4437C10.2938 23.4234 11.0485 24 12.0001 24C12.9516 24 13.7063 23.4234 14.0344 22.4391C14.0579 22.3641 14.3297 22.3594 18.8672 22.3594C23.9813 22.3594 23.8875 22.3641 23.9719 22.1484C24.0329 21.9797 24 21.7547 23.8875 21.6234L23.775 21.4922L18.8954 21.4781C14.2126 21.4688 14.0157 21.4641 14.0157 21.3797C14.0157 21.2578 13.7626 20.7703 13.5844 20.5594C13.4016 20.3344 12.9657 20.0484 12.6516 19.9453L12.4219 19.8656V17.8078V15.75H15.9985C19.0782 15.75 19.6125 15.7406 19.8516 15.6797C20.3954 15.5344 20.8032 15.1687 21 14.6391C21.0938 14.3859 21.0938 14.3297 21.0844 9.03281L21.0704 3.67969L20.9625 3.45937C20.7891 3.1125 20.5125 2.83125 20.1657 2.6625C19.8704 2.51719 19.8188 2.50781 19.2563 2.48906L18.6563 2.475V2.11406C18.6516 1.275 18.4641 0.735937 18.0469 0.360937C17.7657 0.107811 17.4704 0 17.0907 0.00468636C16.9219 0.00937462 14.3907 0.496874 10.8985 1.19531ZM17.4141 0.970312C17.6579 1.15312 17.7376 1.3875 17.7563 1.95469L17.7751 2.48438L13.4016 2.47969L9.02349 2.475L13.0313 1.66406C15.2344 1.21406 17.1 0.857811 17.1704 0.867188C17.2407 0.881248 17.3532 0.928123 17.4141 0.970312ZM19.8047 3.45937C19.9079 3.52031 20.0485 3.64219 20.1094 3.73594C20.2219 3.9 20.2266 3.94219 20.2407 4.74375L20.2594 5.57812H16.6688H13.0829L12.9516 5.69062L12.8204 5.80312L12.8063 9.03281C12.7969 11.4469 12.811 12.2906 12.8532 12.3937C12.961 12.6609 12.8954 12.6562 16.7344 12.6562H20.25V13.4156C20.25 14.0578 20.236 14.2078 20.161 14.3672C20.0625 14.5828 19.9079 14.7375 19.7204 14.8078C19.6266 14.8453 17.2594 14.8594 11.9954 14.8594C5.69068 14.8594 4.37818 14.85 4.25161 14.7937C4.05474 14.7141 3.86255 14.4844 3.79693 14.2594C3.75943 14.1375 3.75005 12.5297 3.75943 8.99531L3.77349 3.90937L3.89068 3.74062C4.02193 3.54375 4.2188 3.41719 4.45318 3.37031C4.54224 3.35156 7.99224 3.34219 12.1172 3.34687L19.6172 3.35156L19.8047 3.45937ZM20.25 9.11719V11.7656H16.9688H13.6876V9.11719V6.46875H16.9688H20.25V9.11719ZM12.4922 20.8312C12.961 21.0469 13.261 21.5578 13.2047 22.0406C13.1204 22.7437 12.436 23.25 11.7657 23.1047C11.0672 22.9547 10.6313 22.2234 10.8516 21.5625C11.0157 21.0703 11.4938 20.7187 12.0001 20.7187C12.1735 20.7187 12.3376 20.7562 12.4922 20.8312Z" fill="white"/>
<path d="M16.5794 7.8805C16.1481 7.94612 15.745 8.28831 15.6044 8.7055C15.5341 8.92581 15.5716 9.49768 15.6747 9.68987C15.8763 10.0836 16.2606 10.3227 16.7434 10.3508C17.0013 10.3649 17.0997 10.3508 17.3059 10.2571C17.7606 10.0461 18.0044 9.69925 18.0372 9.21175C18.0606 8.8555 17.995 8.60706 17.8075 8.35393C17.5403 7.98831 17.0716 7.81018 16.5794 7.8805Z" fill="white"/>
</svg>
