<svg width="464" height="421" viewBox="0 0 464 421" fill="none" xmlns="http://www.w3.org/2000/svg">
<path d="M412.061 338.353C410.53 338.356 409.024 337.969 407.685 337.228C406.345 336.488 405.217 335.419 404.405 334.121C403.594 332.823 403.126 331.341 403.047 329.812C402.968 328.284 403.279 326.761 403.951 325.386C405.695 321.894 406.039 317.868 404.912 314.132C403.785 310.395 401.272 307.23 397.889 305.285C384.386 296.64 352.982 295.263 341.985 295.436H341.832C339.438 295.458 337.133 294.529 335.424 292.852C333.715 291.176 332.742 288.889 332.719 286.494C332.696 284.1 333.626 281.795 335.302 280.086C336.979 278.377 339.266 277.404 341.66 277.381C346.269 277.286 387.102 276.961 407.604 290.08C427.82 303.028 424.683 323.951 420.189 333.227C419.452 334.759 418.299 336.052 416.861 336.958C415.424 337.865 413.76 338.348 412.061 338.353Z" fill="#191919"/>
<path d="M453.685 385.967L451.696 392.718L421.573 343.183L420.789 332.492L453.685 385.967Z" fill="#E1E1E1" stroke="#191919" stroke-width="1.08162" stroke-linecap="round" stroke-linejoin="round"/>
<path d="M451.688 392.725L461.097 388.078L462.78 381.633L453.676 385.974L451.688 392.725Z" fill="#E1E1E1" stroke="#191919" stroke-width="1.08162" stroke-linecap="round" stroke-linejoin="round"/>
<path d="M416.836 326.955L451.701 325.75L462.794 381.634L453.69 385.976L416.836 326.955Z" fill="#E1E1E1" stroke="#191919" stroke-width="1.08162" stroke-linecap="round" stroke-linejoin="round"/>
<path d="M412.063 329.324L446.928 387.962L435.453 393.509L383.93 351.51L412.063 329.324Z" fill="#E1E1E1" stroke="#191919" stroke-width="1.08162" stroke-linecap="round" stroke-linejoin="round"/>
<path d="M435.454 393.507L433.867 399.455L381.961 358.24L383.931 351.508L435.454 393.507Z" fill="#E1E1E1" stroke="#191919" stroke-width="1.08162" stroke-linecap="round" stroke-linejoin="round"/>
<path d="M435.447 393.503L446.922 387.957L445.354 393.905L433.859 399.451L435.447 393.503Z" fill="#E1E1E1" stroke="#191919" stroke-width="1.08162" stroke-linecap="round" stroke-linejoin="round"/>
<path d="M431.409 350.476C438.311 343.575 438.311 332.386 431.409 325.485C424.508 318.583 413.319 318.583 406.418 325.485C399.516 332.386 399.516 343.575 406.418 350.476C413.319 357.378 424.508 357.378 431.409 350.476Z" fill="#F3823A" stroke="#191919" stroke-width="1.08162" stroke-linecap="round" stroke-linejoin="round"/>
<path d="M46.4922 385.967L48.4812 392.718L78.5845 343.183L79.3877 332.492L46.4922 385.967Z" fill="#E1E1E1" stroke="#191919" stroke-width="1.08162" stroke-linecap="round" stroke-linejoin="round"/>
<path d="M48.4833 392.725L39.0736 388.078L37.3906 381.633L46.4943 385.974L48.4833 392.725Z" fill="#E1E1E1" stroke="#191919" stroke-width="1.08162" stroke-linecap="round" stroke-linejoin="round"/>
<path d="M83.3487 326.955L48.4833 325.75L37.3906 381.634L46.4943 385.976L83.3487 326.955Z" fill="#E1E1E1" stroke="#191919" stroke-width="1.08162" stroke-linecap="round" stroke-linejoin="round"/>
<path d="M88.0955 329.324L53.2109 387.962L64.7052 393.509L116.21 351.51L88.0955 329.324Z" fill="#E1E1E1" stroke="#191919" stroke-width="1.08162" stroke-linecap="round" stroke-linejoin="round"/>
<path d="M64.7188 393.507L66.3062 399.455L118.212 358.24L116.223 351.508L64.7188 393.507Z" fill="#E1E1E1" stroke="#191919" stroke-width="1.08162" stroke-linecap="round" stroke-linejoin="round"/>
<path d="M64.7052 393.503L53.2109 387.957L54.7983 393.905L66.2926 399.451L64.7052 393.503Z" fill="#E1E1E1" stroke="#191919" stroke-width="1.08162" stroke-linecap="round" stroke-linejoin="round"/>
<path d="M82.3929 344.356C80.5258 344.364 78.7022 343.792 77.1734 342.721C75.6445 341.649 74.4856 340.129 73.8563 338.371C73.227 336.614 73.1583 334.704 73.6595 332.905C74.1608 331.107 75.2074 329.508 76.6553 328.329C148.413 269.939 133.802 182.862 133.649 181.982C133.291 179.654 133.859 177.278 135.229 175.362C136.599 173.446 138.665 172.141 140.984 171.727C143.303 171.312 145.692 171.821 147.641 173.144C149.59 174.467 150.945 176.499 151.416 178.807C152.124 182.804 167.979 277.303 88.0539 342.329C86.4556 343.634 84.4567 344.35 82.3929 344.356Z" fill="#191919"/>
<path d="M187.213 162.748C190.324 143.478 177.224 125.334 157.954 122.224C138.684 119.113 120.54 132.213 117.429 151.483C114.319 170.753 127.418 188.897 146.689 192.008C165.959 195.118 184.102 182.018 187.213 162.748Z" fill="#919191" stroke="#191919" stroke-width="1.08162" stroke-linecap="round" stroke-linejoin="round"/>
<path d="M93.7453 350.465C100.647 343.563 100.647 332.374 93.7453 325.473C86.8441 318.572 75.6549 318.572 68.7536 325.473C61.8524 332.374 61.8524 343.563 68.7536 350.465C75.6549 357.366 86.844 357.366 93.7453 350.465Z" fill="#F3823A" stroke="#191919" stroke-width="1.08162" stroke-linecap="round" stroke-linejoin="round"/>
<path d="M246.97 302.665C277.95 302.665 303.064 279.238 303.064 250.339C303.064 221.439 277.95 198.012 246.97 198.012C215.989 198.012 190.875 221.439 190.875 250.339C190.875 279.238 215.989 302.665 246.97 302.665Z" fill="#919191" stroke="#191919" stroke-width="1.08162" stroke-linecap="round" stroke-linejoin="round"/>
<path d="M217.727 227.978L222.967 248.423C224.515 253.482 227.797 257.834 232.236 260.713C236.675 263.591 241.986 264.813 247.237 264.163C252.481 263.508 257.326 261.023 260.919 257.147C264.512 253.271 266.622 248.252 266.879 242.973L267.911 222.355L217.727 227.978Z" fill="#191919" stroke="#191919" stroke-width="1.08162" stroke-linecap="round" stroke-linejoin="round"/>
<path d="M328.316 125.109C323.023 125.186 317.749 124.464 312.672 122.967L314.125 118.702C314.374 118.702 339.486 126.869 365.056 108.164L367.715 111.817C356.355 120.373 342.537 125.035 328.316 125.109Z" fill="#191919"/>
<path d="M356.503 159.033C335.809 128.796 312.266 131.072 312.036 131.091L311.539 126.616C312.61 126.501 338.028 124.034 360.213 156.49L356.503 159.033Z" fill="#191919"/>
<path d="M351.267 180.394C324.492 172.151 308.407 136.502 307.719 134.991L311.85 133.078C312.003 133.442 327.8 168.364 352.606 175.995L351.267 180.394Z" fill="#191919"/>
<path d="M365.195 111.202L372.425 106.383" stroke="#191919" stroke-width="1.08162" stroke-miterlimit="10"/>
<path d="M356.344 153.758L361.163 163.378" stroke="#191919" stroke-width="1.08162" stroke-miterlimit="10"/>
<path d="M347.922 176.625C351.732 177.594 355.639 178.133 359.569 178.232" stroke="#191919" stroke-width="1.08162" stroke-miterlimit="10"/>
<path d="M144.906 118.468L151.581 165.153L317.684 148.17L317.072 99.668L144.906 118.468Z" fill="#E1E1E1" stroke="#191919" stroke-width="1.08162" stroke-linecap="round" stroke-linejoin="round"/>
<path d="M151.586 165.151L181.288 240.314L309.198 227.576L317.689 148.168L151.586 165.151Z" fill="#AFAFAF" stroke="#191919" stroke-width="1.08162" stroke-linecap="round" stroke-linejoin="round"/>
<path d="M191.649 184.8L203.315 219.226C204.147 221.709 205.813 223.828 208.031 225.223C210.248 226.617 212.88 227.201 215.479 226.876L266.715 221.291C269.302 220.976 271.701 219.782 273.512 217.909C275.322 216.036 276.434 213.597 276.661 211.002L279.835 174.798C279.943 173.612 279.784 172.418 279.372 171.301C278.96 170.184 278.304 169.174 277.453 168.342C276.601 167.511 275.575 166.879 274.449 166.494C273.322 166.109 272.125 165.979 270.942 166.115L198.4 174.224C197.203 174.355 196.051 174.753 195.029 175.388C194.006 176.024 193.139 176.88 192.491 177.895C191.844 178.91 191.432 180.057 191.286 181.252C191.14 182.447 191.264 183.659 191.649 184.8Z" fill="#191919"/>
<mask id="mask0_5940_40772" style="mask-type:luminance" maskUnits="userSpaceOnUse" x="191" y="166" width="89" height="61">
<path d="M191.649 184.792L203.315 219.218C204.147 221.701 205.813 223.82 208.031 225.215C210.248 226.61 212.88 227.194 215.479 226.868L266.715 221.283C269.302 220.969 271.701 219.775 273.512 217.901C275.322 216.028 276.434 213.589 276.661 210.994L279.835 174.79C279.943 173.604 279.784 172.41 279.372 171.293C278.96 170.177 278.304 169.166 277.453 168.334C276.601 167.503 275.575 166.872 274.449 166.486C273.322 166.101 272.125 165.971 270.942 166.107L198.4 174.216C197.203 174.347 196.051 174.745 195.029 175.381C194.006 176.016 193.139 176.873 192.491 177.887C191.844 178.902 191.432 180.049 191.286 181.244C191.14 182.439 191.264 183.651 191.649 184.792Z" fill="white"/>
</mask>
<g mask="url(#mask0_5940_40772)">
<path d="M191.641 203.706L212.793 201.832L219.506 183.605L235.304 212.007L243.336 190.835L247.353 197.548L285.68 192.977" stroke="#E1E1E1" stroke-width="1.08162" stroke-linecap="round" stroke-linejoin="round"/>
</g>
<path d="M191.649 184.8L203.315 219.226C204.147 221.709 205.813 223.828 208.031 225.223C210.248 226.617 212.88 227.201 215.479 226.876L266.715 221.291C269.302 220.976 271.701 219.782 273.512 217.909C275.322 216.036 276.434 213.597 276.661 211.002L279.835 174.798C279.943 173.612 279.784 172.418 279.372 171.301C278.96 170.184 278.304 169.174 277.453 168.342C276.601 167.511 275.575 166.879 274.449 166.494C273.322 166.109 272.125 165.979 270.942 166.115L198.4 174.224C197.203 174.355 196.051 174.753 195.029 175.388C194.006 176.024 193.139 176.88 192.491 177.895C191.844 178.91 191.432 180.057 191.286 181.252C191.14 182.447 191.264 183.659 191.649 184.8Z" stroke="#191919" stroke-width="1.08162" stroke-linecap="round" stroke-linejoin="round"/>
<path d="M298.412 179.398C303.546 179.398 307.707 175.237 307.707 170.103C307.707 164.97 303.546 160.809 298.412 160.809C293.279 160.809 289.117 164.97 289.117 170.103C289.117 175.237 293.279 179.398 298.412 179.398Z" fill="#E1E1E1" stroke="#191919" stroke-width="1.08162" stroke-linecap="round" stroke-linejoin="round"/>
<path d="M305.981 199.174C305.981 200.899 305.47 202.585 304.512 204.019C303.553 205.454 302.191 206.571 300.598 207.232C299.004 207.892 297.251 208.064 295.559 207.728C293.867 207.391 292.313 206.561 291.093 205.341C289.874 204.121 289.043 202.567 288.707 200.876C288.37 199.184 288.543 197.43 289.203 195.837C289.863 194.243 290.981 192.881 292.415 191.923C293.849 190.965 295.535 190.453 297.26 190.453C299.573 190.453 301.791 191.372 303.427 193.007C305.062 194.643 305.981 196.861 305.981 199.174Z" fill="#F3823A" stroke="#191919" stroke-width="1.08162" stroke-linecap="round" stroke-linejoin="round"/>
<path d="M185.242 180.2C185.772 181.96 185.768 183.838 185.232 185.596C184.695 187.353 183.649 188.913 182.227 190.076C180.804 191.24 179.068 191.956 177.239 192.133C175.409 192.311 173.569 191.942 171.949 191.073C170.329 190.204 169.003 188.875 168.139 187.253C167.275 185.631 166.91 183.789 167.093 181.96C167.275 180.131 167.995 178.397 169.163 176.978C170.33 175.558 171.892 174.517 173.652 173.985C174.821 173.628 176.049 173.507 177.265 173.627C178.481 173.747 179.662 174.106 180.739 174.683C181.816 175.261 182.768 176.046 183.541 176.993C184.313 177.939 184.891 179.029 185.242 180.2Z" fill="#F3823A" stroke="#191919" stroke-width="1.08162" stroke-linecap="round" stroke-linejoin="round"/>
<path d="M190.941 215.842C193.564 211.802 192.416 206.401 188.376 203.778C184.337 201.155 178.936 202.303 176.312 206.342C173.689 210.382 174.837 215.783 178.877 218.406C182.916 221.029 188.317 219.881 190.941 215.842Z" fill="#E1E1E1" stroke="#191919" stroke-width="1.08162" stroke-linecap="round" stroke-linejoin="round"/>
<path d="M213.257 311.363C226.904 311.363 237.967 300.694 237.967 287.533C237.967 274.372 226.904 263.703 213.257 263.703C199.61 263.703 188.547 274.372 188.547 287.533C188.547 300.694 199.61 311.363 213.257 311.363Z" fill="#F3823A" stroke="#191919" stroke-width="1.08162" stroke-linecap="round" stroke-linejoin="round"/>
<path d="M176.922 341.014L199.547 290.217C200.517 288.035 202.256 286.286 204.431 285.302C206.607 284.318 209.068 284.168 211.347 284.881C213.698 285.602 215.69 287.186 216.921 289.315C218.152 291.443 218.532 293.959 217.984 296.356L203.085 363.142L176.922 341.014Z" fill="#191919" stroke="#191919" stroke-width="1.08162" stroke-linecap="round" stroke-linejoin="round"/>
<path d="M169.364 263.211L218.764 379.474L159.476 387.621C159.476 387.621 124.018 351.57 100.188 282.987L169.364 263.211Z" fill="#919191" stroke="#191919" stroke-width="1.08162" stroke-linecap="round" stroke-linejoin="round"/>
<path d="M169.375 263.117L171.689 252.082L221.109 370.659L218.776 379.38L169.375 263.117Z" fill="#E1E1E1" stroke="#191919" stroke-width="1.08162" stroke-linecap="round" stroke-linejoin="round"/>
<path d="M171.678 252.082L104.261 272.412L100.188 282.893L169.364 263.117L171.678 252.082Z" fill="#E1E1E1" stroke="#191919" stroke-width="1.08162" stroke-linecap="round" stroke-linejoin="round"/>
<path d="M104.828 293.919L172.838 272.996" stroke="#191919" stroke-width="1.08162" stroke-linecap="round" stroke-linejoin="round"/>
<path d="M110.062 306.129L178.665 287.539" stroke="#191919" stroke-width="1.08162" stroke-linecap="round" stroke-linejoin="round"/>
<path d="M115.289 318.922L184.465 300.332" stroke="#191919" stroke-width="1.08162" stroke-linecap="round" stroke-linejoin="round"/>
<path d="M122.859 334.627L190.295 314.852" stroke="#191919" stroke-width="1.08162" stroke-linecap="round" stroke-linejoin="round"/>
<path d="M130.008 347.089L197.272 329.379" stroke="#191919" stroke-width="1.08162" stroke-linecap="round" stroke-linejoin="round"/>
<path d="M137.391 358.494L203.086 342.754" stroke="#191919" stroke-width="1.08162" stroke-linecap="round" stroke-linejoin="round"/>
<path d="M145.891 369.447L207.13 354.969" stroke="#191919" stroke-width="1.08162" stroke-linecap="round" stroke-linejoin="round"/>
<path d="M151.93 378.4L212.767 368.34" stroke="#191919" stroke-width="1.08162" stroke-linecap="round" stroke-linejoin="round"/>
<path d="M279.069 311.363C292.716 311.363 303.779 300.694 303.779 287.533C303.779 274.372 292.716 263.703 279.069 263.703C265.422 263.703 254.359 274.372 254.359 287.533C254.359 300.694 265.422 311.363 279.069 311.363Z" fill="#F3823A" stroke="#191919" stroke-width="1.08162" stroke-linecap="round" stroke-linejoin="round"/>
<path d="M315.386 341.014L292.761 290.217C291.791 288.035 290.052 286.286 287.877 285.302C285.701 284.318 283.239 284.168 280.96 284.881C278.61 285.602 276.621 287.187 275.393 289.316C274.165 291.446 273.79 293.961 274.343 296.356L289.242 363.142L315.386 341.014Z" fill="#191919" stroke="#191919" stroke-width="1.08162" stroke-linecap="round" stroke-linejoin="round"/>
<path d="M322.967 263.211L273.547 379.474L332.835 387.621C332.835 387.621 368.294 351.57 392.124 282.987L322.967 263.211Z" fill="#919191" stroke="#191919" stroke-width="1.08162" stroke-linecap="round" stroke-linejoin="round"/>
<path d="M322.964 263.117L320.631 252.082L271.211 370.659L273.544 379.38L322.964 263.117Z" fill="#E1E1E1" stroke="#191919" stroke-width="1.08162" stroke-linecap="round" stroke-linejoin="round"/>
<path d="M320.625 252.082L388.061 272.412L392.135 282.893L322.958 263.117L320.625 252.082Z" fill="#E1E1E1" stroke="#191919" stroke-width="1.08162" stroke-linecap="round" stroke-linejoin="round"/>
<path d="M387.463 293.919L319.453 272.996" stroke="#191919" stroke-width="1.08162" stroke-linecap="round" stroke-linejoin="round"/>
<path d="M382.251 306.129L313.648 287.539" stroke="#191919" stroke-width="1.08162" stroke-linecap="round" stroke-linejoin="round"/>
<path d="M377.004 318.922L307.828 300.332" stroke="#191919" stroke-width="1.08162" stroke-linecap="round" stroke-linejoin="round"/>
<path d="M369.459 334.627L302.023 314.852" stroke="#191919" stroke-width="1.08162" stroke-linecap="round" stroke-linejoin="round"/>
<path d="M362.299 347.089L295.055 329.379" stroke="#191919" stroke-width="1.08162" stroke-linecap="round" stroke-linejoin="round"/>
<path d="M354.926 358.494L289.25 342.754" stroke="#191919" stroke-width="1.08162" stroke-linecap="round" stroke-linejoin="round"/>
<path d="M346.43 369.447L285.172 354.969" stroke="#191919" stroke-width="1.08162" stroke-linecap="round" stroke-linejoin="round"/>
<path d="M340.384 378.4L279.547 368.34" stroke="#191919" stroke-width="1.08162" stroke-linecap="round" stroke-linejoin="round"/>
<path d="M368.008 163.773L374.434 166.585" stroke="#191919" stroke-width="1.08162" stroke-miterlimit="10"/>
<path d="M363.984 166.188L370.411 176.228" stroke="#191919" stroke-width="1.08162" stroke-miterlimit="10"/>
<path d="M360.377 166.582L359.172 173.008" stroke="#191919" stroke-width="1.08162" stroke-miterlimit="10"/>
<path d="M376.039 124.836H391.684" stroke="#191919" stroke-width="1.08162" stroke-miterlimit="10"/>
<path d="M363.984 125.645L386.457 132.071" stroke="#191919" stroke-width="1.08162" stroke-miterlimit="10"/>
<path d="M372.422 117.223L386.862 115.215" stroke="#191919" stroke-width="1.08162" stroke-miterlimit="10"/>
<path d="M320.625 166.988L324.641 178.636" stroke="#191919" stroke-width="1.08162" stroke-miterlimit="10"/>
<path d="M325.852 166.188L337.078 184.663" stroke="#191919" stroke-width="1.08162" stroke-miterlimit="10"/>
<path d="M329.867 155.359L340.692 158.974" stroke="#191919" stroke-width="1.08162" stroke-miterlimit="10"/>
<path d="M389.669 149.337L386.055 153.277L388.675 157.944L383.798 155.706L380.183 159.646L380.795 154.329L375.938 152.091L381.178 151.039L381.809 145.723L384.429 150.389L389.669 149.337Z" fill="#F3823A" stroke="#191919" stroke-width="0.540812" stroke-linecap="round" stroke-linejoin="round"/>
<path d="M395.302 96.3373L391.668 100.277L394.308 104.944L389.431 102.706L385.816 106.646L386.428 101.329L381.57 99.0914L386.811 98.0395L387.423 92.7227L390.062 97.3892L395.302 96.3373Z" fill="#F3823A" stroke="#191919" stroke-width="0.540812" stroke-linecap="round" stroke-linejoin="round"/>
<path d="M336.669 189.076L333.055 193.015L335.675 197.682L330.817 195.444L327.183 199.384L327.795 194.067L322.938 191.83L328.178 190.778L328.809 185.461L331.429 190.127L336.669 189.076Z" fill="#F3823A" stroke="#191919" stroke-width="0.540812" stroke-linecap="round" stroke-linejoin="round"/>
<path d="M163.392 101.5C178.296 101.5 190.378 89.5553 190.378 74.8204C190.378 60.0856 178.296 48.1406 163.392 48.1406C148.488 48.1406 136.406 60.0856 136.406 74.8204C136.406 89.5553 148.488 101.5 163.392 101.5Z" fill="#919191" stroke="#191919" stroke-width="1.08162" stroke-linecap="round" stroke-linejoin="round"/>
<path d="M281.001 94.219C295.905 94.219 307.987 82.274 307.987 67.5392C307.987 52.8043 295.905 40.8594 281.001 40.8594C266.098 40.8594 254.016 52.8043 254.016 67.5392C254.016 82.274 266.098 94.219 281.001 94.219Z" fill="#919191" stroke="#191919" stroke-width="1.08162" stroke-linecap="round" stroke-linejoin="round"/>
<path d="M226.736 156.049C245.485 156.049 260.684 141.526 260.684 123.612C260.684 105.698 245.485 91.1758 226.736 91.1758C207.988 91.1758 192.789 105.698 192.789 123.612C192.789 141.526 207.988 156.049 226.736 156.049Z" fill="#F3823A" stroke="#191919" stroke-width="1.08162" stroke-linecap="round" stroke-linejoin="round"/>
<path d="M201.891 106.953L206.576 127.532C207.976 132.632 211.133 137.074 215.49 140.073C219.847 143.072 225.123 144.435 230.387 143.922C235.649 143.411 240.561 141.063 244.262 137.288C247.963 133.514 250.215 128.556 250.622 123.286L252.209 102.707L201.891 106.953Z" fill="#191919" stroke="#191919" stroke-width="1.08162" stroke-linecap="round" stroke-linejoin="round"/>
<path d="M170.968 20.2585L158.25 71.1892L284.936 60.8807L266.155 12.3789L170.968 20.2585Z" fill="#E1E1E1" stroke="#191919" stroke-width="1.08162" stroke-linecap="round" stroke-linejoin="round"/>
<path d="M158.25 71.1914L180.665 126.961L280.097 117.264L284.936 60.8828L158.25 71.1914Z" fill="#AFAFAF" stroke="#191919" stroke-width="1.08162" stroke-linecap="round" stroke-linejoin="round"/>
<path d="M215.23 93.9291C214.886 101.847 207.963 108.082 199.681 108.713C191.4 109.344 183.291 104.161 181.512 96.3197C179.6 87.3308 186.313 78.4949 196.927 77.8256C207.542 77.1562 215.594 84.9019 215.23 93.9291Z" fill="#F3823A" stroke="#191919" stroke-width="1.08162" stroke-linecap="round" stroke-linejoin="round"/>
<path d="M208.898 94.3703C208.794 96.8734 207.753 99.246 205.982 101.017C204.211 102.789 201.838 103.83 199.335 103.933C196.794 104.208 194.241 103.539 192.16 102.055C190.08 100.57 188.618 98.3733 188.051 95.8812C187.114 90.4496 191.379 85.3432 197.614 84.9224C198.981 84.7695 200.365 84.8954 201.682 85.2925C202.999 85.6897 204.222 86.3497 205.276 87.2328C206.331 88.116 207.196 89.2038 207.818 90.4306C208.441 91.6574 208.808 92.9976 208.898 94.3703Z" fill="#E1E1E1" stroke="#191919" stroke-width="1.08162" stroke-linecap="round" stroke-linejoin="round"/>
<path d="M271.596 88.4815C271.271 96.3994 264.348 102.634 256.067 103.265C247.785 103.896 239.657 98.7135 237.898 90.853C235.89 81.8833 242.698 73.0474 253.313 72.3589C263.927 71.6704 271.979 79.4543 271.596 88.4815Z" fill="#F3823A" stroke="#191919" stroke-width="1.08162" stroke-linecap="round" stroke-linejoin="round"/>
<path d="M265.265 88.9215C265.166 91.426 264.126 93.8012 262.354 95.5735C260.582 97.3458 258.207 98.3851 255.702 98.4842C253.159 98.7538 250.606 98.081 248.526 96.5934C246.446 95.1058 244.985 92.9068 244.418 90.4133C243.481 84.9817 247.746 79.8944 253.981 79.4736C255.349 79.3151 256.735 79.4371 258.054 79.832C259.374 80.227 260.599 80.8867 261.655 81.7708C262.711 82.6549 263.575 83.745 264.196 84.9744C264.817 86.2039 265.18 87.5469 265.265 88.9215Z" fill="#E1E1E1" stroke="#191919" stroke-width="1.08162" stroke-linecap="round" stroke-linejoin="round"/>
<path d="M215.841 116.916C214.676 116.928 213.551 116.489 212.702 115.691C211.854 114.892 211.346 113.797 211.287 112.633C211.228 111.469 211.621 110.327 212.384 109.447C213.148 108.566 214.222 108.015 215.382 107.908L239.633 105.479C240.825 105.36 242.016 105.719 242.943 106.478C243.87 107.237 244.458 108.332 244.577 109.524C244.696 110.716 244.337 111.907 243.579 112.834C242.82 113.761 241.724 114.349 240.532 114.468L216.377 116.897L215.841 116.916Z" fill="#191919" stroke="#191919" stroke-width="1.08162" stroke-linecap="round" stroke-linejoin="round"/>
<path d="M173.302 45.3142C178.361 45.3142 182.463 41.2127 182.463 36.1532C182.463 31.0937 178.361 26.9922 173.302 26.9922C168.242 26.9922 164.141 31.0937 164.141 36.1532C164.141 41.2127 168.242 45.3142 173.302 45.3142Z" fill="#F3823A" stroke="#191919" stroke-width="1.08162" stroke-linecap="round" stroke-linejoin="round"/>
<path d="M167.643 38.6406C171.963 38.6406 175.465 35.1385 175.465 30.8184C175.465 26.4983 171.963 22.9961 167.643 22.9961C163.322 22.9961 159.82 26.4983 159.82 30.8184C159.82 35.1385 163.322 38.6406 167.643 38.6406Z" fill="#F3823A" stroke="#191919" stroke-width="1.08162" stroke-linecap="round" stroke-linejoin="round"/>
<path d="M166.129 22.5017C166.125 23.7189 165.761 24.9077 165.082 25.9179C164.403 26.9281 163.44 27.7144 162.314 28.1776C161.189 28.6408 159.951 28.76 158.758 28.5203C157.564 28.2805 156.469 27.6924 155.609 26.8304C154.75 25.9684 154.166 24.871 153.929 23.677C153.693 22.4829 153.816 21.2456 154.283 20.1215C154.75 18.9973 155.539 18.0366 156.551 17.3608C157.564 16.6849 158.754 16.3242 159.971 16.3242C160.781 16.3242 161.584 16.4841 162.332 16.7948C163.08 17.1055 163.76 17.5608 164.332 18.1347C164.904 18.7086 165.358 19.3898 165.666 20.1391C165.974 20.8885 166.132 21.6914 166.129 22.5017Z" fill="#F3823A" stroke="#191919" stroke-width="1.08162" stroke-linecap="round" stroke-linejoin="round"/>
<path d="M158.492 20.3294L144.492 7.32422" stroke="#191919" stroke-width="1.08162" stroke-linecap="round" stroke-linejoin="round"/>
<path d="M263.278 38.9861C268.338 38.9861 272.439 34.8846 272.439 29.8251C272.439 24.7656 268.338 20.6641 263.278 20.6641C258.219 20.6641 254.117 24.7656 254.117 29.8251C254.117 34.8846 258.219 38.9861 263.278 38.9861Z" fill="#F3823A" stroke="#191919" stroke-width="1.08162" stroke-linecap="round" stroke-linejoin="round"/>
<path d="M268.932 32.3086C273.252 32.3086 276.754 28.8064 276.754 24.4863C276.754 20.1662 273.252 16.6641 268.932 16.6641C264.612 16.6641 261.109 20.1662 261.109 24.4863C261.109 28.8064 264.612 32.3086 268.932 32.3086Z" fill="#F3823A" stroke="#191919" stroke-width="1.08162" stroke-linecap="round" stroke-linejoin="round"/>
<path d="M270.445 16.1657C270.449 17.3829 270.814 18.5717 271.493 19.5819C272.172 20.5921 273.135 21.3785 274.26 21.8417C275.386 22.3049 276.623 22.4241 277.817 22.1843C279.01 21.9445 280.106 21.3565 280.965 20.4945C281.824 19.6325 282.409 18.5351 282.645 17.341C282.881 16.147 282.758 14.9097 282.291 13.7855C281.825 12.6614 281.035 11.7007 280.023 11.0248C279.011 10.349 277.821 9.98829 276.604 9.98828C275.793 9.98828 274.991 10.1482 274.243 10.4589C273.494 10.7695 272.814 11.2249 272.242 11.7988C271.67 12.3726 271.217 13.0538 270.909 13.8032C270.6 14.5525 270.443 15.3554 270.445 16.1657Z" fill="#F3823A" stroke="#191919" stroke-width="1.08162" stroke-linecap="round" stroke-linejoin="round"/>
<path d="M278.094 13.9861L292.093 1" stroke="#191919" stroke-width="1.08162" stroke-linecap="round" stroke-linejoin="round"/>
<path d="M257.594 350.377C257.594 354.795 254.668 358.372 251.053 358.372C247.438 358.372 244.531 354.795 244.531 350.377C244.531 345.959 247.457 342.383 251.053 342.383C254.649 342.383 257.594 345.959 257.594 350.377Z" fill="#E1E1E1" stroke="#191919" stroke-width="1.08162" stroke-linecap="round" stroke-linejoin="round"/>
<path d="M270.515 357.077H270.018L251.868 354.419C251.01 354.257 250.247 353.77 249.739 353.059C249.232 352.348 249.019 351.468 249.145 350.604C249.271 349.74 249.726 348.957 250.415 348.421C251.105 347.884 251.975 347.635 252.844 347.725L270.993 350.364C271.872 350.449 272.683 350.874 273.253 351.548C273.823 352.222 274.107 353.092 274.045 353.973C273.982 354.854 273.578 355.675 272.919 356.262C272.26 356.849 271.397 357.155 270.515 357.116V357.077Z" fill="#E1E1E1" stroke="#191919" stroke-width="1.08162" stroke-miterlimit="10"/>
<path d="M16.861 387.75C14.4895 384.021 14.9485 379.431 18.0851 377.518C21.2216 375.606 25.5057 377.04 27.8772 380.751C30.2488 384.461 29.6941 389.07 26.6341 391.002C23.574 392.933 19.2134 391.48 16.861 387.75Z" fill="#E1E1E1" stroke="#191919" stroke-width="1.08162" stroke-linecap="round" stroke-linejoin="round"/>
<path d="M2.34561 389.032C2.48607 388.944 2.63316 388.868 2.78552 388.803L19.5393 381.325C20.3504 381.006 21.2533 381.012 22.06 381.342C22.8666 381.672 23.5149 382.301 23.8698 383.097C24.2247 383.893 24.2588 384.795 23.9652 385.616C23.6715 386.436 23.0727 387.112 22.2933 387.502L5.53954 394.98C4.75911 395.326 3.87664 395.365 3.06894 395.088C2.26124 394.811 1.58798 394.24 1.18404 393.487C0.780113 392.735 0.675347 391.858 0.890756 391.032C1.10616 390.206 1.62582 389.491 2.34561 389.032Z" fill="#E1E1E1" stroke="#191919" stroke-width="1.08162" stroke-miterlimit="10"/>
<path d="M450.3 302.067C447.929 298.338 448.483 293.767 451.524 291.835C454.565 289.904 458.945 291.357 461.317 295.068C463.688 298.778 463.133 303.387 460.092 305.319C457.052 307.25 452.653 305.797 450.3 302.067Z" fill="#E1E1E1" stroke="#191919" stroke-width="1.08162" stroke-linecap="round" stroke-linejoin="round"/>
<path d="M435.799 303.37L436.22 303.141L452.973 295.663C453.382 295.458 453.828 295.338 454.285 295.311C454.741 295.283 455.199 295.349 455.629 295.503C456.06 295.657 456.455 295.896 456.79 296.207C457.125 296.518 457.394 296.894 457.58 297.311C457.767 297.729 457.866 298.18 457.873 298.637C457.881 299.095 457.795 299.549 457.622 299.972C457.448 300.395 457.191 300.779 456.866 301.1C456.54 301.421 456.153 301.673 455.727 301.84L438.993 309.318C438.212 309.665 437.33 309.703 436.522 309.426C435.714 309.15 435.041 308.578 434.637 307.826C434.233 307.073 434.128 306.196 434.344 305.37C434.559 304.544 435.079 303.83 435.799 303.37Z" fill="#E1E1E1" stroke="#191919" stroke-width="1.08162" stroke-miterlimit="10"/>
<path d="M126.84 391.352C119.19 391.352 113.031 395.024 113.031 399.537C113.031 404.051 119.209 407.723 126.84 407.723C134.471 407.723 140.667 404.051 140.667 399.537C140.667 395.024 134.471 391.352 126.84 391.352ZM126.84 403.764C122.9 403.764 119.706 401.851 119.706 399.537C119.706 397.223 122.9 395.311 126.84 395.311C130.78 395.311 133.993 397.223 133.993 399.537C133.993 401.851 130.799 403.764 126.84 403.764Z" fill="#E1E1E1" stroke="#191919" stroke-width="1.08162" stroke-miterlimit="10"/>
<path d="M251.304 392.669L241.875 388.844L232.427 392.669L230.094 401.084L236.635 407.835H247.115L253.637 401.084L251.304 392.669ZM244.533 403.417H239.217L235.889 399.994L237.074 395.729L241.875 393.816L246.656 395.729L247.842 399.994L244.533 403.417Z" fill="#E1E1E1" stroke="#191919" stroke-width="1.08162" stroke-linecap="round" stroke-linejoin="round"/>
<path d="M430.229 270.474L420.781 266.648L411.333 270.474L409 278.908L415.541 285.659H426.022L432.562 278.908L430.229 270.474ZM423.44 281.241H418.123L414.814 277.818L415.981 273.534L420.781 271.621L425.582 273.534L426.767 277.818L423.44 281.241Z" fill="#E1E1E1" stroke="#191919" stroke-width="1.08162" stroke-linecap="round" stroke-linejoin="round"/>
<path d="M314.433 411.87C314.166 411.87 313.9 411.825 313.648 411.736C312.364 411.194 311.281 410.264 310.55 409.077C309.498 407.452 308.638 404.564 310.302 400.088C310.884 398.451 311.861 396.983 313.145 395.812C314.429 394.642 315.981 393.805 317.665 393.375C319.825 392.853 322.077 392.839 324.244 393.333C326.411 393.827 328.434 394.817 330.154 396.225C330.384 396.412 330.575 396.643 330.716 396.905C330.856 397.166 330.943 397.453 330.972 397.748C331 398.044 330.969 398.342 330.882 398.626C330.794 398.909 330.65 399.172 330.46 399.4C330.079 399.861 329.531 400.152 328.936 400.21C328.34 400.267 327.747 400.086 327.285 399.706C326.111 398.77 324.741 398.112 323.277 397.78C321.813 397.449 320.294 397.454 318.831 397.793C317.844 398.048 316.934 398.543 316.184 399.233C315.433 399.924 314.864 400.789 314.528 401.752C312.826 406.247 314.873 407.49 315.293 407.605C315.831 407.845 316.256 408.282 316.481 408.827C316.705 409.372 316.711 409.982 316.498 410.531C316.325 410.933 316.036 411.275 315.668 411.513C315.301 411.751 314.871 411.875 314.433 411.87Z" fill="#E1E1E1" stroke="#191919" stroke-width="1.08162" stroke-linecap="round" stroke-linejoin="round"/>
<path d="M361.071 420.171C360.357 420.174 359.647 420.064 358.967 419.845L322.266 407.892C321.398 407.636 320.591 407.208 319.892 406.635C319.192 406.061 318.614 405.353 318.193 404.552C317.772 403.752 317.515 402.875 317.438 401.974C317.362 401.072 317.466 400.165 317.746 399.304C318.026 398.444 318.476 397.649 319.068 396.965C319.661 396.281 320.384 395.723 321.196 395.324C322.008 394.925 322.891 394.692 323.795 394.64C324.698 394.588 325.602 394.718 326.454 395.021L363.175 406.974C364.7 407.48 365.995 408.511 366.829 409.883C367.663 411.256 367.983 412.88 367.73 414.466C367.477 416.052 366.668 417.497 365.449 418.542C364.229 419.587 362.677 420.164 361.071 420.171Z" fill="#E1E1E1" stroke="#191919" stroke-width="1.08162" stroke-linecap="round" stroke-linejoin="round"/>
<path d="M321.148 407.586C321.148 407.586 322.602 398.253 334.268 398.023" stroke="#191919" stroke-width="1.08162" stroke-linecap="round" stroke-linejoin="round"/>
<path d="M329.008 409.61C329.008 409.61 330.48 400.296 342.128 400.047" stroke="#191919" stroke-width="1.08162" stroke-linecap="round" stroke-linejoin="round"/>
<path d="M336.016 412.231C336.016 412.231 337.469 402.917 349.116 402.668" stroke="#191919" stroke-width="1.08162" stroke-linecap="round" stroke-linejoin="round"/>
<path d="M343.289 414.301C343.289 414.301 344.743 404.987 356.39 404.738" stroke="#191919" stroke-width="1.08162" stroke-linecap="round" stroke-linejoin="round"/>
<path d="M350.586 416.903C350.586 416.903 352.039 407.588 363.687 407.34" stroke="#191919" stroke-width="1.08162" stroke-linecap="round" stroke-linejoin="round"/>
<path d="M361.042 420.037C360.78 420.032 360.521 419.98 360.277 419.884C358.986 419.355 357.894 418.431 357.16 417.244C356.108 415.619 355.247 412.731 356.911 408.236C357.5 406.603 358.478 405.138 359.761 403.968C361.044 402.798 362.593 401.959 364.274 401.523C366.436 401.004 368.689 400.992 370.856 401.49C373.023 401.988 375.045 402.981 376.763 404.392C376.994 404.579 377.185 404.81 377.325 405.072C377.465 405.333 377.552 405.62 377.581 405.915C377.609 406.211 377.579 406.509 377.491 406.793C377.403 407.076 377.26 407.339 377.069 407.567C376.688 408.028 376.14 408.32 375.545 408.377C374.95 408.434 374.356 408.253 373.894 407.873C372.722 406.936 371.352 406.277 369.887 405.945C368.423 405.614 366.903 405.619 365.441 405.96C364.453 406.209 363.543 406.699 362.791 407.387C362.04 408.074 361.472 408.938 361.138 409.9C359.435 414.414 361.482 415.638 361.903 415.753C362.378 415.96 362.767 416.324 363.008 416.783C363.248 417.243 363.324 417.77 363.224 418.279C363.123 418.787 362.852 419.246 362.456 419.58C362.059 419.913 361.56 420.102 361.042 420.113V420.037Z" fill="#E1E1E1" stroke="#191919" stroke-width="1.08162" stroke-linecap="round" stroke-linejoin="round"/>
</svg>
