<?xml version="1.0" encoding="UTF-8"?>
<svg width="35px" height="36px" viewBox="0 0 35 36" version="1.1" xmlns="http://www.w3.org/2000/svg" xmlns:xlink="http://www.w3.org/1999/xlink">
    <title>logo-full-black</title>
    <g id="Page-1" stroke="none" stroke-width="1" fill="none" fill-rule="evenodd">
        <g id="logo-full-black" transform="translate(0.333620, 0.527830)">
            <path d="M3.3771,13.16237 C5.19458,7.42106 10.54678,3.26147 16.86638,3.26147 C24.68208,3.26147 31.01798,9.62397 31.01798,17.47227 C31.01798,24.76317 25.55028,30.77147 18.50778,31.58827 L18.50778,27.11317 C21.59508,26.58797 24.18818,24.60567 25.56038,21.89607 L21.63938,21.89607 C20.45268,23.18467 18.75418,23.99157 16.86778,23.99157 C13.27998,23.99157 10.37148,21.07267 10.37148,17.47217 C10.37148,13.87167 13.27998,10.95307 16.86778,10.95307 C18.81018,10.95307 20.55368,11.80867 21.74428,13.16487 L25.61828,13.16487 C24.03108,9.92397 20.70918,7.69337 16.86778,7.69337 C11.48608,7.69337 7.12348,12.07157 7.12348,17.47217 C7.12348,22.31837 10.63628,26.34127 15.24598,27.11617 L15.24598,31.59067 C9.68678,30.95437 5.10548,27.08357 3.41439,21.89847 L0.02984,21.89847 C1.98156,29.40477 8.77978,34.94427 16.86638,34.94427 C26.47598,34.94427 34.26618,27.12197 34.26618,17.47227 C34.26618,7.82257 26.47578,0 16.86638,0 C8.73788,0 1.91124,5.597 0,13.16237 L3.3771,13.16237 Z" id="Shape" fill="#FFFFFF"></path>
            <path d="M20.42928,17.46477 C20.42928,19.44427 18.83098,21.04887 16.85948,21.04887 C14.88808,21.04887 13.28978,19.44427 13.28978,17.46477 C13.28978,15.48547 14.88808,13.88087 16.85948,13.88087 C18.83098,13.88087 20.42928,15.48547 20.42928,17.46477 Z" id="Path" fill="#FF7C2B" fill-rule="nonzero"></path>
        </g>
    </g>
</svg>